<?xml version="1.0" encoding="UTF-8"?>
<!DOCTYPE svg PUBLIC "-//W3C//DTD SVG 1.1//EN" "http://www.w3.org/Graphics/SVG/1.1/DTD/svg11.dtd">
<!-- Creator: CorelDRAW 2019 (64-Bit) -->
<svg xmlns="http://www.w3.org/2000/svg" xml:space="preserve" width="215px" height="215px" version="1.1" style="shape-rendering:geometricPrecision; text-rendering:geometricPrecision; image-rendering:optimizeQuality; fill-rule:evenodd; clip-rule:evenodd"
viewBox="0 0 215 215"
 xmlns:xlink="http://www.w3.org/1999/xlink"
 xmlns:xodm="http://www.corel.com/coreldraw/odm/2003">
 <defs>
  <style type="text/css">
   <![CDATA[
    .str0 {stroke:white;stroke-width:3.13;stroke-miterlimit:22.9256}
    .str1 {stroke:#0F0F12;stroke-linecap:round;stroke-linejoin:round;stroke-miterlimit:22.9256}
    .fil0 {fill:none}
    .fil1 {fill:#27498C}
    .fil2 {fill:#E1D3AE}
    .fil4 {fill:#FEFEFE}
    .fil3 {fill:url(#id0)}
   ]]>
  </style>
  <radialGradient id="id0" gradientUnits="userSpaceOnUse" gradientTransform="matrix(59.0421 -2.58926 3.01485 69.5137 -6250 -6904)" cx="102.24" cy="104.64" r="181" fx="102.24" fy="104.64">
   <stop offset="0" style="stop-opacity:1; stop-color:#274D97"/>
   <stop offset="0.270588" style="stop-opacity:1; stop-color:#254378"/>
   <stop offset="1" style="stop-opacity:1; stop-color:#233A59"/>
  </radialGradient>
 </defs>
 <g id="Layer_x0020_1">
  <metadata id="CorelCorpID_0Corel-Layer"/>
  <path class="fil0 str0" d="M107.12 4.88c56.82,0 102.88,46.06 102.88,102.88 0,56.82 -46.06,102.88 -102.88,102.88 -56.83,0 -102.89,-46.06 -102.89,-102.88 0,-56.82 46.06,-102.88 102.89,-102.88z"/>
  <path class="fil1" d="M107.12 5.22c56.62,0 102.53,45.91 102.53,102.54 0,56.63 -45.92,102.52 -102.53,102.52 -56.63,0 -102.54,-45.89 -102.54,-102.52 0,-56.63 45.91,-102.54 102.54,-102.54z"/>
  <path class="fil2" d="M107.12 35.54c39.89,0 72.21,32.33 72.21,72.22 0,39.88 -32.32,72.21 -72.21,72.21 -39.88,0 -72.21,-32.33 -72.21,-72.21 0,-39.89 32.33,-72.22 72.21,-72.22z"/>
  <path class="fil3 str1" d="M78.08 120.76c-0.2,0.24 -0.15,-0.24 -0.21,0.6 -0.97,0.02 -1.14,0.09 -1.22,1.03 -1.12,0.12 -0.18,-0.18 -0.96,0.67 -1.77,1.94 -0.32,0.63 -0.85,3.76l-1.66 3.51c-0.41,1.1 0,3.52 0.12,4.3 0.33,2.11 2.09,2.76 1.32,5.3l-0.75 3.54c-0.14,1.07 0.05,0.09 0.06,0.79 0.03,1.19 -0.55,0.67 -0.55,1.19l0.22 3.03c0.57,1.26 1.78,1.88 1.88,3.79l0.36 1.52c0.02,0.06 0.05,0.1 0.07,0.15 0.02,0.04 0.04,0.1 0.06,0.14 0.23,0.51 1.09,1.4 1.09,1.98 0,1.68 -0.26,2.09 0.96,3.53 0.28,0.35 0.44,0.61 0.67,0.96l5.11 0.4c1.68,0.13 11.18,0.88 12.32,0.7 1.3,-0.19 15.23,1.02 17.87,1.15l7.16 0.59c2.47,0.2 4.66,0.3 7.13,0.43l7.13 0.61 0.53 1.51c0.09,0.21 -0.05,2.83 1.15,3.54 0.28,0.16 3.16,0.47 3.68,-0.53l0.49 -2.56c0.32,-2.26 0.49,-2.86 -0.33,-4.36l-0.18 -1.05c0.01,-0.17 0.21,-1.32 0.31,-1.52 0.17,-0.35 0.1,-0.22 0.38,-0.44l1.29 -0.96c0.03,-0.03 0.09,-0.07 0.11,-0.08 0.03,-0.02 0.08,-0.05 0.13,-0.08 0.31,0.21 0.4,0.36 0.69,0.53 0.67,0.38 1.16,0.36 1.77,0.68l1.02 0.4c0.08,0.02 0.25,0.08 0.31,0.1 0.44,0.14 0.76,0.21 1.11,0.32 1.16,0.4 1.9,0.62 3.27,0.62 0.66,0 0.42,-0.41 0.81,-0.41 0.85,0 0.82,0.53 1.39,-0.04 0.6,-0.6 0.03,-0.84 0.03,-1.39 0,-1.95 1.54,-3.4 0.69,-5.76 -0.21,-0.56 -0.28,0.09 0.02,-0.84 0.35,-1.12 0.31,-1.23 0.31,-2.58 0.94,-0.26 0.79,-0.67 1.3,-1.37 0.42,-0.57 0.9,-0.78 1.17,-1.48 0.27,-0.66 -0.03,-1.25 0.09,-2.13 0.21,-1.71 0.98,-2.29 1.59,-3.73 0.44,-1.01 0.47,-1.94 1.07,-2.81 0.25,-0.37 0.39,-0.62 0.44,-0.96 0.15,-0.95 -0.14,-1.28 -0.14,-2.22 0,-0.96 2.58,-1.48 1.63,-3.46 0.8,0.17 0.6,0.19 1.28,-0.33 0.34,-0.27 0.91,-0.64 1.12,-0.95 0.4,-0.62 -0.15,-0.2 0.27,-0.85 0.33,-0.48 1.15,-0.88 1.61,-1.14 0,-1.33 0.39,-2.14 -1.05,-2.41 -1.06,-0.21 -2.11,-0.35 -2.42,-1.46 -1.61,0.03 -1.01,0.53 -2.44,0.2 0,-1.01 0.02,-1.34 -0.17,-2.09 -0.48,-1.89 0.55,-1.37 0,-3.46l-0.23 -0.58c-0.21,-0.28 -0.31,-0.19 -0.73,-0.69 -0.61,-0.76 0.06,-0.44 -0.7,-0.73 0.09,-1.16 0.3,-0.26 0.4,-1.43l-0.71 -0.52c-0.03,-0.03 -0.07,-0.08 -0.1,-0.11 -0.02,-0.03 -0.05,-0.08 -0.08,-0.11 -0.02,-0.03 -0.04,-0.09 -0.07,-0.13 -0.02,-0.05 -0.04,-0.11 -0.06,-0.15l-0.95 -1.08c-0.62,-0.71 -0.38,-0.55 -1.37,-0.71l-1.36 -0.66c0.07,-0.8 0.2,-0.49 0.2,-1.02 0,-0.49 -0.4,-0.89 -0.4,-1.63 0,-1.08 0.27,0.28 0.07,-0.89 -0.11,-0.68 -0.14,-0.3 -0.24,-0.98 -0.06,-0.48 0.01,-0.65 -0.13,-1.1 -0.01,-0.03 -0.21,-0.4 -0.21,-0.4l-0.89 -1.55c-0.92,-1.79 -0.44,-0.64 -0.44,-2.42 0,-0.09 -0.49,-0.65 -0.62,-0.79l-0.93 -0.73c-1.45,-0.94 -0.7,-0.79 -2.41,-1.26l-0.61 -0.2c-1.51,-0.48 -1.12,-0.47 -1.19,-1.53 -0.07,-1.06 -0.11,-0.25 -0.36,-1.2l-1.22 0c0.18,-0.39 0.18,-0.22 0.1,-0.74 0,0 -0.31,-0.87 -0.32,-0.89 -0.5,-0.87 -1.6,-0.59 -1.68,-1.72 -0.07,-1.04 0.01,0.39 0.23,-0.79 0.31,-1.76 -1.12,-1.81 -1.82,-2.79 -1,-1.39 -2.54,-2.73 -4.28,-2.88 0,-1.1 -0.04,-0.83 -0.48,-1.55 -0.49,-0.82 -0.4,-1.45 -1.02,-2.03l-0.48 -0.54c-0.42,-0.6 -0.18,-0.69 -1.27,-0.77 -0.13,-1.09 -0.23,-0.5 -0.74,-0.8l-0.62 -0.5c-0.6,-0.31 -1.09,-0.27 -1.59,-0.86 -0.96,-1.14 -1.45,-1.29 -2.02,-2.47 -1.21,-2.62 -3.09,-3.95 -3.26,-5.22 -0.25,-2.12 -0.35,-0.99 -1.01,-2.55l-0.3 -0.72c-0.03,-0.03 -0.07,-0.07 -0.09,-0.12 -1.12,-1.48 -0.64,-2.2 -1.23,-3.04 -0.81,-1.15 -2.78,-0.48 -3.85,-0.46 -0.28,-1.09 -1.71,-1.89 -2.44,-3.26l-1.63 0c-0.11,-1.03 -0.95,-0.73 -1.83,-2.04l1.74 -3.15 2.51 -1.78c0.4,-0.16 -0.32,0.03 0.44,-0.18 0,-1.62 0.14,-1.14 0.4,-2.24 -1.71,-1.14 -3.88,-0.52 -5.91,-0.41 -2.18,0.12 -4.54,-0.07 -6.75,0 -3.83,0.11 -9.49,0.64 -13.13,0.09 -3.83,-0.58 -9.46,0.4 -13.3,-0.17 -3.24,-0.5 -9.9,-0.12 -13.55,-0.12 -0.8,0 0.01,3.6 0.12,4.37 0.51,3.63 1.58,13.45 2.48,16.09 0.68,2.02 3.11,22.02 3.63,25.54 0.24,1.63 0.49,3.18 0.68,4.65 0.16,1.5 0.33,3.03 0.79,4.5l0.91 2.96c0.47,1.39 0.55,2.52 1.24,3.67l0.82 1.01c0.37,0.49 0.86,2.11 0.81,2.78 -0.1,1.03 -1.1,1.88 -0.29,2.61 0.53,0.45 1.08,0.19 1.67,1l0 0 0 0 0 0z"/>
  <polygon class="fil4" points="91.18,52.67 92.5,56.78 96.81,56.77 93.31,59.29 94.65,63.39 91.18,60.85 87.69,63.39 89.02,59.29 85.53,56.77 89.84,56.78 "/>
  <path class="fil4" d="M81.98 78.43l0 -8.87 3.33 0c0.68,0 1.22,0.09 1.64,0.26 0.39,0.19 0.71,0.46 0.94,0.83 0.24,0.38 0.36,0.77 0.36,1.18 0,0.37 -0.11,0.73 -0.3,1.08 -0.21,0.32 -0.51,0.6 -0.94,0.8 0.54,0.15 0.96,0.42 1.24,0.81 0.29,0.38 0.43,0.82 0.43,1.35 0,0.4 -0.08,0.79 -0.26,1.15 -0.18,0.36 -0.39,0.63 -0.65,0.82 -0.26,0.2 -0.58,0.34 -0.98,0.44 -0.38,0.11 -0.87,0.15 -1.43,0.15l-3.38 0 0 0 0 0zm1.18 -5.15l1.92 0c0.52,0 0.89,-0.03 1.11,-0.09 0.3,-0.1 0.53,-0.24 0.68,-0.45 0.15,-0.21 0.22,-0.47 0.22,-0.77 0,-0.3 -0.06,-0.56 -0.21,-0.79 -0.14,-0.21 -0.34,-0.38 -0.61,-0.45 -0.25,-0.09 -0.7,-0.13 -1.34,-0.13l-1.77 0 0 2.68 0 0 0 0zm0 4.11l2.2 0c0.38,0 0.65,-0.01 0.81,-0.04 0.26,-0.06 0.5,-0.13 0.67,-0.25 0.19,-0.1 0.34,-0.28 0.45,-0.49 0.13,-0.21 0.18,-0.47 0.18,-0.74 0,-0.35 -0.1,-0.64 -0.26,-0.88 -0.17,-0.24 -0.41,-0.41 -0.7,-0.52 -0.3,-0.09 -0.73,-0.14 -1.31,-0.14l-2.04 0 0 3.06 0 0 0 0 0 0zm6.98 1.04l0 -8.87 1.09 0 0 8.87 -1.09 0zm6.98 0l0 -0.95c-0.5,0.72 -1.18,1.09 -2.04,1.09 -0.38,0 -0.74,-0.08 -1.06,-0.22 -0.33,-0.15 -0.57,-0.32 -0.74,-0.55 -0.15,-0.22 -0.26,-0.49 -0.33,-0.8 -0.04,-0.22 -0.07,-0.55 -0.07,-1.02l0 -3.98 1.1 0 0 3.56c0,0.57 0.02,0.95 0.06,1.15 0.07,0.29 0.21,0.51 0.44,0.66 0.22,0.18 0.5,0.25 0.82,0.25 0.32,0 0.63,-0.07 0.91,-0.25 0.29,-0.16 0.49,-0.39 0.6,-0.68 0.14,-0.29 0.19,-0.7 0.19,-1.25l0 -3.44 1.09 0 0 6.43 -0.98 0 0 0 0.01 0 0 0zm7.07 -2.09l1.13 0.16c-0.18,0.65 -0.5,1.16 -0.98,1.53 -0.48,0.36 -1.1,0.54 -1.83,0.54 -0.95,0 -1.7,-0.29 -2.25,-0.88 -0.55,-0.57 -0.81,-1.39 -0.81,-2.43 0,-1.08 0.27,-1.92 0.82,-2.51 0.56,-0.59 1.28,-0.89 2.17,-0.89 0.86,0 1.56,0.3 2.1,0.88 0.54,0.58 0.82,1.4 0.82,2.46 0,0.06 0,0.16 -0.01,0.29l-4.79 0c0.05,0.71 0.23,1.25 0.6,1.62 0.36,0.38 0.81,0.56 1.35,0.56 0.39,0 0.72,-0.1 1.01,-0.32 0.27,-0.21 0.5,-0.54 0.67,-1.01l0 0 0 0 0 0zm-3.56 -1.74l3.57 0c-0.04,-0.54 -0.18,-0.94 -0.42,-1.22 -0.33,-0.41 -0.79,-0.63 -1.33,-0.63 -0.51,0 -0.92,0.18 -1.26,0.5 -0.34,0.34 -0.53,0.79 -0.56,1.35l0 0z"/>
  <path class="fil4" d="M79.76 91.11l0 -8.87 3.94 0c0.79,0 1.39,0.09 1.8,0.24 0.4,0.16 0.73,0.45 0.98,0.85 0.25,0.4 0.36,0.84 0.36,1.33 0,0.64 -0.19,1.17 -0.6,1.59 -0.41,0.44 -1.04,0.71 -1.89,0.82 0.31,0.16 0.54,0.31 0.71,0.45 0.35,0.32 0.66,0.71 0.97,1.18l1.54 2.41 -1.46 0 -1.18 -1.85c-0.34,-0.53 -0.63,-0.93 -0.85,-1.21 -0.23,-0.29 -0.41,-0.48 -0.59,-0.59 -0.18,-0.12 -0.35,-0.2 -0.54,-0.24 -0.14,-0.03 -0.34,-0.04 -0.65,-0.04l-1.35 0 0 3.93 -1.19 0 0 0 0 0 0 0zm1.19 -4.95l2.51 0c0.54,0 0.94,-0.05 1.26,-0.17 0.3,-0.1 0.53,-0.29 0.67,-0.53 0.17,-0.25 0.25,-0.51 0.25,-0.8 0,-0.41 -0.14,-0.75 -0.46,-1.03 -0.31,-0.26 -0.78,-0.41 -1.44,-0.41l-2.79 0 0 2.94 0 0 0 0zm7.6 -2.67l0 -1.25 1.09 0 0 1.25 -1.09 0zm0 7.62l0 -6.43 1.09 0 0 6.43 -1.09 0zm6.9 0l0 -0.81c-0.4,0.64 -1,0.95 -1.79,0.95 -0.51,0 -0.99,-0.14 -1.41,-0.42 -0.44,-0.28 -0.76,-0.67 -1,-1.18 -0.23,-0.51 -0.36,-1.08 -0.36,-1.74 0,-0.65 0.12,-1.22 0.33,-1.75 0.21,-0.52 0.53,-0.92 0.95,-1.2 0.44,-0.28 0.92,-0.41 1.44,-0.41 0.39,0 0.73,0.08 1.03,0.25 0.31,0.16 0.54,0.37 0.74,0.64l0 -3.2 1.09 0 0 8.87 -1.02 0 0 0 0 0zm-3.43 -3.2c0,0.81 0.16,1.44 0.52,1.84 0.34,0.41 0.74,0.61 1.22,0.61 0.48,0 0.88,-0.19 1.23,-0.58 0.32,-0.38 0.5,-0.97 0.5,-1.77 0,-0.88 -0.18,-1.53 -0.51,-1.95 -0.35,-0.4 -0.77,-0.61 -1.27,-0.61 -0.48,0 -0.89,0.2 -1.21,0.59 -0.33,0.4 -0.48,1.02 -0.48,1.87l0 0 0 0zm5.98 3.74l1.05 0.16c0.04,0.31 0.16,0.56 0.37,0.7 0.27,0.2 0.64,0.31 1.11,0.31 0.5,0 0.89,-0.11 1.17,-0.31 0.27,-0.19 0.45,-0.48 0.56,-0.85 0.06,-0.21 0.08,-0.67 0.08,-1.38 -0.48,0.56 -1.08,0.83 -1.79,0.83 -0.88,0 -1.57,-0.31 -2.05,-0.95 -0.48,-0.64 -0.73,-1.41 -0.73,-2.29 0,-0.62 0.11,-1.18 0.33,-1.7 0.23,-0.52 0.55,-0.91 0.97,-1.2 0.42,-0.29 0.92,-0.42 1.49,-0.42 0.76,0 1.38,0.31 1.87,0.93l0 -0.8 1.01 0 0 5.57c0,1 -0.1,1.7 -0.31,2.12 -0.2,0.42 -0.53,0.75 -0.97,1 -0.44,0.22 -0.98,0.35 -1.63,0.35 -0.77,0 -1.38,-0.17 -1.86,-0.51 -0.46,-0.34 -0.69,-0.86 -0.67,-1.56l0 0 0 0 0 0zm0.89 -3.85c0,0.83 0.17,1.44 0.5,1.83 0.33,0.39 0.76,0.58 1.26,0.58 0.51,0 0.92,-0.19 1.26,-0.57 0.34,-0.4 0.51,-0.99 0.51,-1.81 0,-0.79 -0.17,-1.38 -0.52,-1.77 -0.35,-0.41 -0.77,-0.61 -1.26,-0.61 -0.49,0 -0.91,0.2 -1.24,0.59 -0.34,0.4 -0.51,0.98 -0.51,1.76l0 0 0 0zm10.58 1.23l1.14 0.15c-0.18,0.67 -0.51,1.17 -0.99,1.53 -0.48,0.36 -1.09,0.54 -1.83,0.54 -0.94,0 -1.69,-0.28 -2.24,-0.86 -0.54,-0.58 -0.82,-1.39 -0.82,-2.43 0,-1.07 0.28,-1.92 0.83,-2.51 0.56,-0.6 1.29,-0.9 2.16,-0.9 0.86,0 1.57,0.3 2.11,0.88 0.54,0.58 0.81,1.4 0.81,2.46 0,0.07 0,0.16 0,0.28l-4.79 0c0.04,0.72 0.24,1.26 0.59,1.63 0.36,0.37 0.8,0.56 1.35,0.56 0.39,0 0.74,-0.11 1.02,-0.32 0.28,-0.21 0.51,-0.54 0.66,-1.01l0 0 0 0 0 0zm-3.56 -1.74l3.58 0c-0.05,-0.55 -0.18,-0.94 -0.41,-1.21 -0.35,-0.43 -0.79,-0.64 -1.34,-0.64 -0.51,0 -0.93,0.17 -1.27,0.51 -0.34,0.32 -0.53,0.77 -0.56,1.34z"/>
  <path class="fil4" d="M97.45 130.07c0.23,0.65 0.32,1.35 0.3,2.07 -0.02,0.71 -0.17,1.41 -0.43,2.05 -0.28,0.65 -0.65,1.23 -1.13,1.73 -0.49,0.51 -1.07,0.89 -1.77,1.14 -0.31,0.1 -0.65,0.16 -1,0.16 -0.37,0.01 -0.72,-0.04 -1.07,-0.14 -0.33,-0.11 -0.64,-0.27 -0.91,-0.49 -0.27,-0.23 -0.45,-0.5 -0.57,-0.84 -0.15,-0.41 -0.23,-0.83 -0.24,-1.29 -0.01,-0.45 0.05,-0.89 0.15,-1.34 0.11,-0.44 0.3,-0.85 0.54,-1.24 0.24,-0.38 0.54,-0.68 0.9,-0.94 0.17,-0.1 0.29,-0.1 0.4,-0.01 0.09,0.1 0.05,0.22 -0.16,0.37 -0.22,0.15 -0.38,0.35 -0.53,0.58 -0.14,0.24 -0.25,0.51 -0.31,0.81 -0.07,0.32 -0.1,0.62 -0.09,0.94 0.01,0.31 0.06,0.62 0.16,0.92 0.07,0.18 0.19,0.35 0.39,0.49 0.17,0.14 0.4,0.25 0.63,0.33 0.24,0.08 0.48,0.14 0.74,0.16 0.24,0.01 0.46,-0.01 0.62,-0.06 0.52,-0.2 0.97,-0.48 1.34,-0.88 0.36,-0.4 0.65,-0.85 0.83,-1.36 0.21,-0.5 0.31,-1.02 0.32,-1.57 0.03,-0.56 -0.06,-1.07 -0.23,-1.57 -0.19,-0.54 -0.45,-0.99 -0.76,-1.33 -0.32,-0.34 -0.69,-0.58 -1.09,-0.73 -0.42,-0.16 -0.85,-0.23 -1.32,-0.21 -0.48,0.01 -0.97,0.12 -1.48,0.3 -0.79,0.27 -1.51,0.74 -2.17,1.43 -0.66,0.66 -1.24,1.46 -1.75,2.37 -0.5,0.92 -0.92,1.91 -1.25,2.97 -0.33,1.05 -0.57,2.12 -0.74,3.18 -0.14,1.07 -0.2,2.08 -0.16,3.05 0.04,0.96 0.19,1.79 0.43,2.51 0.37,1.03 0.91,1.74 1.64,2.19 0.71,0.45 1.62,0.48 2.7,0.11 0.75,-0.27 1.41,-0.66 1.95,-1.16 0.55,-0.49 0.98,-1 1.35,-1.52 0.35,-0.52 0.61,-1.02 0.79,-1.49 0.17,-0.47 0.29,-0.8 0.35,-1.02l2.05 -0.66c-0.24,1.25 -0.45,2.46 -0.66,3.58 -0.19,1.13 -0.42,2.18 -0.68,3.16 -0.27,0.97 -0.6,1.89 -0.99,2.73 -0.4,0.85 -0.91,1.62 -1.55,2.33 -0.64,0.71 -1.45,1.37 -2.41,1.96 -0.95,0.6 -2.12,1.14 -3.5,1.62 -0.62,0.22 -1.34,0.42 -2.13,0.59 -0.79,0.17 -1.56,0.23 -2.31,0.19 -0.76,-0.05 -1.45,-0.25 -2.07,-0.59 -0.63,-0.36 -1.08,-0.94 -1.37,-1.75 -0.15,-0.44 -0.21,-0.9 -0.18,-1.4 0.03,-0.5 0.16,-0.97 0.36,-1.42 0.21,-0.46 0.5,-0.88 0.88,-1.25 0.38,-0.35 0.86,-0.64 1.41,-0.83 0.2,-0.07 0.47,-0.14 0.79,-0.17 0.31,-0.03 0.64,-0.04 0.97,-0.04 0.33,0.01 0.65,0.03 0.94,0.08 0.31,0.07 0.54,0.14 0.71,0.23 0.03,0.02 0.04,0.08 0,0.16 -0.04,0.08 -0.09,0.11 -0.15,0.1 -0.39,-0.07 -0.81,-0.09 -1.23,-0.06 -0.44,0.03 -0.83,0.11 -1.19,0.24 -0.42,0.14 -0.8,0.35 -1.09,0.62 -0.28,0.27 -0.49,0.56 -0.64,0.91 -0.14,0.34 -0.21,0.68 -0.22,1.06 -0.01,0.38 0.05,0.74 0.18,1.12 0.26,0.71 0.6,1.24 1.05,1.57 0.44,0.34 0.95,0.57 1.51,0.65 0.56,0.09 1.16,0.07 1.77,-0.03 0.6,-0.12 1.18,-0.26 1.74,-0.46 1.42,-0.49 2.59,-1.17 3.54,-2 0.96,-0.86 1.74,-1.81 2.33,-2.87 0.59,-1.05 1.03,-2.18 1.32,-3.39 0.27,-1.2 0.46,-2.42 0.53,-3.63 -0.21,0.47 -0.47,0.92 -0.79,1.36 -0.32,0.43 -0.7,0.82 -1.11,1.18 -0.41,0.37 -0.85,0.69 -1.34,0.98 -0.48,0.3 -0.98,0.53 -1.49,0.71 -0.61,0.21 -1.22,0.31 -1.82,0.29 -0.62,-0.02 -1.19,-0.15 -1.71,-0.39 -0.51,-0.23 -0.98,-0.57 -1.4,-1.02 -0.39,-0.44 -0.71,-0.98 -0.94,-1.61 -0.35,-1.01 -0.55,-2.08 -0.6,-3.21 -0.03,-1.14 0.07,-2.27 0.29,-3.4 0.22,-1.15 0.58,-2.26 1.04,-3.34 0.48,-1.08 1.05,-2.09 1.75,-3.03 0.69,-0.92 1.47,-1.74 2.36,-2.45 0.88,-0.7 1.83,-1.24 2.87,-1.6 0.6,-0.21 1.2,-0.32 1.8,-0.32 0.59,0 1.14,0.11 1.67,0.32 0.52,0.2 0.99,0.52 1.39,0.94 0.42,0.41 0.72,0.93 0.95,1.57l0 0 0 0zm7.03 2.45c-0.05,-0.15 -0.14,-0.24 -0.26,-0.3 -0.12,-0.07 -0.24,-0.1 -0.39,-0.1 -0.15,0 -0.31,0.01 -0.45,0.04 -0.17,0.04 -0.29,0.07 -0.4,0.1 -0.53,0.18 -0.94,0.54 -1.25,1.06 -0.29,0.52 -0.53,1.1 -0.68,1.75 -0.15,0.65 -0.27,1.3 -0.3,1.95 -0.04,0.66 -0.05,1.22 -0.05,1.69 0.75,-0.37 1.41,-0.75 1.98,-1.18 0.58,-0.42 1.05,-0.88 1.39,-1.38 0.36,-0.51 0.56,-1.05 0.65,-1.65 0.1,-0.6 0.01,-1.26 -0.24,-1.98l0 0 0 0zm2.07 -0.18c0.2,0.55 0.24,1.09 0.13,1.61 -0.1,0.51 -0.31,1 -0.61,1.44 -0.29,0.46 -0.68,0.89 -1.12,1.3 -0.45,0.41 -0.93,0.78 -1.43,1.1 -0.5,0.35 -0.99,0.65 -1.49,0.91 -0.5,0.28 -0.94,0.5 -1.32,0.68 -0.03,0.46 -0.04,0.92 -0.02,1.36 0.01,0.45 0.09,0.87 0.24,1.28 0.2,0.6 0.56,1.05 1.04,1.34 0.48,0.29 1.02,0.32 1.63,0.12 0.54,-0.19 0.93,-0.45 1.18,-0.78 0.24,-0.33 0.4,-0.6 0.53,-0.8 0.05,-0.11 0.14,-0.14 0.25,-0.12 0.1,0.02 0.14,0.12 0.1,0.25 -0.06,0.26 -0.18,0.52 -0.38,0.77 -0.2,0.25 -0.42,0.48 -0.66,0.7 -0.24,0.21 -0.48,0.4 -0.73,0.54 -0.25,0.15 -0.46,0.25 -0.63,0.31 -0.45,0.16 -0.9,0.26 -1.35,0.29 -0.44,0.04 -0.86,-0.01 -1.25,-0.13 -0.38,-0.13 -0.72,-0.34 -1.02,-0.64 -0.3,-0.28 -0.54,-0.69 -0.72,-1.18 -0.36,-1.01 -0.54,-2.1 -0.54,-3.27 -0.01,-1.16 0.17,-2.28 0.53,-3.36 0.35,-1.08 0.91,-2.05 1.62,-2.9 0.72,-0.86 1.64,-1.47 2.76,-1.87 0.27,-0.09 0.6,-0.15 0.93,-0.17 0.33,-0.03 0.66,0 0.96,0.08 0.32,0.08 0.6,0.22 0.84,0.4 0.24,0.18 0.42,0.43 0.53,0.74l0 0 0 0 0 0zm7.5 -0.71c-0.1,-0.33 -0.23,-0.66 -0.37,-0.98 -0.12,-0.35 -0.29,-0.65 -0.49,-0.89 -0.19,-0.25 -0.41,-0.43 -0.69,-0.53 -0.26,-0.11 -0.6,-0.09 -0.98,0.04 -0.39,0.13 -0.72,0.41 -0.99,0.82 -0.26,0.39 -0.47,0.87 -0.63,1.44 -0.16,0.56 -0.28,1.16 -0.35,1.8 -0.07,0.66 -0.1,1.29 -0.09,1.91 0.01,0.61 0.05,1.19 0.11,1.73 0.07,0.53 0.16,0.95 0.28,1.28 0.12,0.38 0.27,0.74 0.44,1.04 0.16,0.31 0.35,0.56 0.58,0.75 0.21,0.18 0.48,0.3 0.8,0.34 0.34,0.05 0.74,-0.02 1.2,-0.18 0.33,-0.11 0.62,-0.37 0.84,-0.76 0.22,-0.39 0.38,-0.85 0.52,-1.39 0.12,-0.53 0.2,-1.11 0.25,-1.73 0.04,-0.63 0.04,-1.24 0.02,-1.83 -0.03,-0.6 -0.08,-1.15 -0.16,-1.66 -0.08,-0.51 -0.18,-0.91 -0.29,-1.2l0 0 0 0 0 0zm2.24 -0.8c0.32,0.95 0.47,1.97 0.43,3.04 -0.05,1.08 -0.25,2.11 -0.63,3.09 -0.36,0.99 -0.9,1.86 -1.6,2.64 -0.69,0.77 -1.52,1.33 -2.47,1.66 -0.46,0.16 -0.89,0.25 -1.32,0.26 -0.44,0.02 -0.82,-0.02 -1.2,-0.15 -0.37,-0.12 -0.69,-0.32 -0.98,-0.62 -0.29,-0.28 -0.51,-0.66 -0.67,-1.13 -0.35,-1 -0.53,-2.08 -0.54,-3.27 -0.02,-1.16 0.15,-2.28 0.48,-3.37 0.33,-1.09 0.84,-2.05 1.53,-2.88 0.68,-0.85 1.55,-1.46 2.57,-1.82 0.56,-0.2 1.07,-0.27 1.52,-0.21 0.46,0.07 0.87,0.21 1.24,0.45 0.37,0.25 0.69,0.57 0.96,0.97 0.27,0.39 0.49,0.84 0.68,1.34l0 0 0 0 0 0zm9.74 -5.34c0.08,0.27 0.12,0.54 0.08,0.81 -0.04,0.28 -0.12,0.53 -0.25,0.77 -0.13,0.24 -0.31,0.45 -0.52,0.63 -0.22,0.19 -0.45,0.33 -0.7,0.42 -0.11,0.04 -0.22,0.06 -0.37,0.06 -0.14,0.01 -0.29,0 -0.42,-0.03 -0.14,-0.04 -0.28,-0.08 -0.4,-0.14 -0.11,-0.07 -0.18,-0.16 -0.23,-0.26 -0.04,-0.12 -0.01,-0.22 0.08,-0.31 0.09,-0.08 0.19,-0.19 0.3,-0.31 0.12,-0.13 0.2,-0.29 0.26,-0.47 0.05,-0.2 0.03,-0.45 -0.09,-0.77 -0.13,-0.39 -0.36,-0.53 -0.67,-0.42 -0.24,0.1 -0.48,0.24 -0.7,0.44 -0.22,0.22 -0.43,0.45 -0.61,0.72 -0.2,0.26 -0.35,0.54 -0.49,0.84 -0.14,0.3 -0.25,0.6 -0.34,0.88l-0.41 6.67c0,0.14 -0.01,0.29 -0.03,0.48 -0.01,0.18 -0.02,0.34 -0.02,0.52 0,0.17 0,0.33 0,0.48 -0.01,0.13 0,0.22 0.02,0.27 0.06,0.16 0.14,0.3 0.24,0.42 0.11,0.13 0.26,0.16 0.49,0.08 0.14,-0.05 0.27,-0.15 0.44,-0.32 0.14,-0.16 0.28,-0.35 0.41,-0.56 0.15,-0.2 0.27,-0.39 0.38,-0.61 0.11,-0.2 0.21,-0.37 0.29,-0.5 0.11,-0.2 0.21,-0.22 0.31,-0.06 0.09,0.15 0.06,0.37 -0.08,0.62 -0.24,0.51 -0.54,0.98 -0.89,1.41 -0.34,0.44 -0.81,0.76 -1.39,0.96 -0.44,0.15 -0.87,0.18 -1.29,0.08 -0.42,-0.09 -0.71,-0.37 -0.89,-0.83 -0.05,-0.16 -0.08,-0.34 -0.09,-0.56 -0.01,-0.21 -0.02,-0.43 -0.01,-0.66 0,-0.24 0.01,-0.48 0.02,-0.71 0.02,-0.23 0.02,-0.44 0.03,-0.63l0.36 -6.63c0.02,-0.62 -0.01,-1.03 -0.1,-1.22 -0.1,-0.19 -0.24,-0.25 -0.45,-0.18 -0.22,0.07 -0.39,0.21 -0.53,0.38 -0.15,0.18 -0.28,0.39 -0.39,0.6 -0.12,0.23 -0.22,0.46 -0.3,0.7 -0.08,0.23 -0.16,0.43 -0.23,0.6 -0.09,0.17 -0.2,0.23 -0.34,0.2 -0.12,-0.03 -0.16,-0.12 -0.12,-0.27 0.11,-0.32 0.24,-0.65 0.39,-0.99 0.14,-0.33 0.31,-0.65 0.49,-0.93 0.19,-0.29 0.4,-0.54 0.64,-0.78 0.22,-0.22 0.49,-0.38 0.8,-0.49 0.56,-0.18 1.02,-0.15 1.42,0.11 0.41,0.27 0.68,0.64 0.81,1.1 0.07,-0.19 0.18,-0.42 0.33,-0.7 0.15,-0.27 0.31,-0.56 0.51,-0.84 0.2,-0.29 0.42,-0.55 0.68,-0.79 0.27,-0.23 0.57,-0.42 0.89,-0.53 0.27,-0.09 0.55,-0.15 0.8,-0.19 0.26,-0.04 0.52,0 0.74,0.09 0.22,0.08 0.44,0.23 0.63,0.45 0.21,0.21 0.37,0.52 0.51,0.9l0 0 0 0 0 0zm6.9 -2.27c-0.12,-0.38 -0.37,-0.64 -0.71,-0.8 -0.35,-0.14 -0.73,-0.14 -1.12,-0.01 -0.33,0.13 -0.64,0.38 -0.92,0.78 -0.28,0.41 -0.53,0.91 -0.76,1.48 -0.22,0.58 -0.4,1.22 -0.55,1.94 -0.13,0.7 -0.23,1.43 -0.28,2.16 -0.05,0.74 -0.04,1.45 0.03,2.14 0.06,0.69 0.18,1.32 0.38,1.88 0.15,0.43 0.34,0.79 0.57,1.06 0.25,0.28 0.5,0.36 0.78,0.26 0.52,-0.19 0.97,-0.52 1.36,-1.02 0.38,-0.5 0.68,-1.09 0.92,-1.75 0.24,-0.66 0.42,-1.39 0.54,-2.15 0.12,-0.77 0.19,-1.52 0.2,-2.28 0.02,-0.74 -0.01,-1.44 -0.09,-2.09 -0.08,-0.64 -0.19,-1.17 -0.35,-1.6l0 0 0 0 0 0zm2.05 8.51c-0.06,0.87 -0.17,1.72 -0.32,2.55 -0.17,0.83 -0.43,1.6 -0.79,2.32 -0.35,0.72 -0.83,1.36 -1.42,1.91 -0.6,0.55 -1.35,1 -2.29,1.32 -0.25,0.09 -0.54,0.17 -0.89,0.27 -0.36,0.1 -0.71,0.15 -1.05,0.16 -0.35,0.03 -0.67,-0.02 -0.95,-0.13 -0.28,-0.11 -0.47,-0.33 -0.6,-0.67 -0.11,-0.31 -0.09,-0.56 0.05,-0.75 0.15,-0.18 0.37,-0.34 0.68,-0.45 0.37,-0.12 0.66,-0.14 0.89,-0.02 0.22,0.11 0.42,0.26 0.59,0.42 0.17,0.16 0.35,0.32 0.51,0.45 0.16,0.13 0.39,0.15 0.64,0.05 0.61,-0.21 1.1,-0.55 1.44,-1.02 0.35,-0.48 0.62,-1.03 0.8,-1.64 0.16,-0.62 0.28,-1.25 0.35,-1.91 0.05,-0.66 0.08,-1.27 0.1,-1.84 -0.29,0.4 -0.62,0.82 -1.02,1.23 -0.41,0.41 -0.88,0.72 -1.45,0.91 -0.83,0.29 -1.52,0.29 -2.09,-0.02 -0.56,-0.3 -1,-0.87 -1.29,-1.7 -0.2,-0.57 -0.34,-1.23 -0.42,-1.94 -0.06,-0.73 -0.06,-1.48 0,-2.23 0.08,-0.78 0.22,-1.56 0.42,-2.33 0.2,-0.78 0.48,-1.5 0.84,-2.16 0.34,-0.65 0.77,-1.24 1.26,-1.73 0.5,-0.49 1.08,-0.86 1.72,-1.09 0.71,-0.24 1.27,-0.29 1.67,-0.13 0.41,0.17 0.78,0.45 1.12,0.85l0.13 -1.61 2.11 -0.74 -0.74 11.67 0 0 0 0 0 0zm5.37 -3.65c-0.01,0.15 -0.01,0.3 -0.03,0.49 -0.01,0.19 -0.02,0.36 -0.02,0.53 0,0.17 0,0.31 -0.01,0.47 0,0.13 0.01,0.23 0.02,0.27 0.05,0.14 0.13,0.3 0.25,0.43 0.1,0.14 0.27,0.17 0.48,0.09 0.16,-0.05 0.31,-0.16 0.45,-0.32 0.17,-0.17 0.3,-0.36 0.42,-0.58 0.13,-0.19 0.25,-0.4 0.36,-0.61 0.1,-0.2 0.21,-0.37 0.28,-0.5 0.13,-0.19 0.23,-0.22 0.31,-0.06 0.11,0.16 0.07,0.37 -0.06,0.62 -0.25,0.51 -0.56,0.98 -0.9,1.42 -0.34,0.43 -0.8,0.75 -1.4,0.95 -0.42,0.15 -0.86,0.18 -1.28,0.08 -0.43,-0.09 -0.72,-0.37 -0.89,-0.83 -0.05,-0.16 -0.08,-0.34 -0.09,-0.56 -0.02,-0.2 -0.02,-0.42 -0.02,-0.66 0.01,-0.23 0.02,-0.48 0.03,-0.7 0.01,-0.24 0.02,-0.44 0.03,-0.64l0.37 -6.62c0.03,-0.61 0,-1.01 -0.1,-1.2 -0.1,-0.2 -0.25,-0.26 -0.44,-0.19 -0.22,0.07 -0.41,0.21 -0.54,0.39 -0.16,0.17 -0.28,0.38 -0.4,0.6 -0.1,0.23 -0.22,0.45 -0.29,0.69 -0.08,0.23 -0.17,0.43 -0.24,0.61 -0.08,0.16 -0.2,0.22 -0.32,0.19 -0.14,-0.03 -0.18,-0.12 -0.12,-0.27 0.11,-0.32 0.23,-0.65 0.38,-0.98 0.14,-0.35 0.3,-0.66 0.5,-0.95 0.17,-0.29 0.38,-0.55 0.61,-0.78 0.23,-0.22 0.51,-0.39 0.81,-0.51 0.34,-0.11 0.67,-0.13 0.95,-0.06 0.29,0.07 0.53,0.22 0.72,0.41 0.2,0.19 0.37,0.44 0.47,0.72 0.1,0.28 0.15,0.59 0.13,0.88l-0.42 7.18 0 0 0 0 0 0zm0.69 -14.62c0.12,0.36 0.1,0.72 -0.07,1.05 -0.16,0.35 -0.42,0.58 -0.8,0.72 -0.36,0.12 -0.72,0.1 -1.05,-0.07 -0.35,-0.16 -0.59,-0.42 -0.71,-0.78 -0.13,-0.37 -0.11,-0.72 0.05,-1.07 0.17,-0.35 0.43,-0.58 0.79,-0.71 0.37,-0.13 0.73,-0.1 1.07,0.06 0.35,0.17 0.58,0.43 0.72,0.8l0 0 0 0 0 0zm8.84 4.09c0.01,-0.22 -0.05,-0.39 -0.19,-0.55 -0.13,-0.14 -0.32,-0.26 -0.52,-0.35 -0.22,-0.09 -0.45,-0.15 -0.69,-0.17 -0.26,-0.02 -0.48,0.01 -0.69,0.09 -0.48,0.17 -0.9,0.49 -1.22,0.98 -0.32,0.49 -0.58,1.07 -0.79,1.73 -0.2,0.66 -0.34,1.38 -0.43,2.15 -0.07,0.77 -0.1,1.53 -0.09,2.28 0.01,0.74 0.05,1.43 0.15,2.07 0.1,0.63 0.21,1.14 0.34,1.52 0.13,0.38 0.35,0.63 0.65,0.77 0.31,0.14 0.61,0.16 0.86,0.06 0.17,-0.05 0.39,-0.26 0.63,-0.59 0.25,-0.34 0.49,-0.71 0.72,-1.12 0.22,-0.4 0.43,-0.79 0.6,-1.18 0.16,-0.39 0.25,-0.66 0.27,-0.82l0.4 -6.87 0 0 0 0 0 0zm1.64 7.4c-0.01,0.14 0,0.31 0,0.5 0.01,0.19 0.03,0.36 0.1,0.51 0.05,0.18 0.13,0.31 0.23,0.39 0.13,0.09 0.27,0.1 0.45,0.04 0.24,-0.08 0.47,-0.29 0.72,-0.63 0.23,-0.35 0.5,-0.8 0.8,-1.35 0.06,-0.1 0.14,-0.1 0.25,0 0.09,0.09 0.11,0.21 0.04,0.36 -0.08,0.24 -0.21,0.5 -0.33,0.75 -0.14,0.27 -0.33,0.53 -0.53,0.77 -0.22,0.24 -0.49,0.47 -0.79,0.69 -0.32,0.23 -0.71,0.42 -1.15,0.57 -0.38,0.13 -0.68,0.16 -0.92,0.08 -0.23,-0.09 -0.41,-0.23 -0.55,-0.42 -0.12,-0.21 -0.22,-0.44 -0.28,-0.71 -0.05,-0.25 -0.1,-0.51 -0.11,-0.74 -0.15,0.31 -0.32,0.64 -0.52,1 -0.19,0.37 -0.41,0.72 -0.66,1.05 -0.24,0.35 -0.51,0.65 -0.8,0.93 -0.28,0.28 -0.6,0.46 -0.93,0.59 -0.7,0.25 -1.27,0.25 -1.7,0.01 -0.45,-0.24 -0.79,-0.75 -1.07,-1.55 -0.23,-0.65 -0.41,-1.38 -0.49,-2.16 -0.1,-0.79 -0.11,-1.6 -0.04,-2.4 0.05,-0.82 0.19,-1.62 0.42,-2.42 0.22,-0.8 0.53,-1.53 0.93,-2.21 0.37,-0.67 0.85,-1.27 1.42,-1.79 0.55,-0.5 1.19,-0.9 1.93,-1.17 0.41,-0.13 0.8,-0.11 1.18,0.06 0.39,0.17 0.69,0.46 0.92,0.86l0.09 -1.28 2.07 -0.73 -0.68 10.4 0 0 0 0 0 0z"/>
  <path class="fil4" d="M25.35 74.31c1.12,-1.58 2.1,-2.62 2.95,-3.08 1.23,-0.69 2.5,-0.77 3.81,-0.25 1.38,0.55 2.29,1.55 2.76,3.03 0.54,1.78 0.29,3.99 -0.74,6.57l-3.71 9.3 -0.48 -0.19c0.34,-0.84 0.49,-1.45 0.46,-1.82 -0.04,-0.36 -0.16,-0.66 -0.37,-0.88 -0.2,-0.22 -0.81,-0.53 -1.81,-0.93l-11.9 -4.75c-1,-0.41 -1.65,-0.6 -1.96,-0.58 -0.29,0.02 -0.6,0.15 -0.87,0.39 -0.28,0.26 -0.59,0.79 -0.92,1.62l-0.47 -0.17 3.5 -8.79c0.85,-2.09 1.62,-3.5 2.35,-4.23 0.72,-0.72 1.56,-1.19 2.5,-1.4 0.94,-0.2 1.83,-0.13 2.66,0.19 0.88,0.36 1.54,0.99 1.97,1.91 0.43,0.92 0.52,2.27 0.27,4.06l0 0 0 0 0 0zm-2.31 4.78c0.51,-1.3 0.75,-2.31 0.71,-3.04 -0.05,-0.72 -0.26,-1.36 -0.66,-1.89 -0.39,-0.54 -0.99,-0.96 -1.81,-1.29 -0.8,-0.32 -1.53,-0.42 -2.17,-0.31 -0.65,0.12 -1.23,0.42 -1.74,0.92 -0.51,0.49 -1.03,1.4 -1.55,2.72l7.22 2.89 0 0 0 0 0 0zm1.05 0.41l5.86 2.35 0.68 0.26c0.48,0.21 0.89,0.23 1.25,0.07 0.33,-0.13 0.6,-0.45 0.79,-0.92 0.29,-0.71 0.38,-1.44 0.31,-2.15 -0.08,-0.72 -0.37,-1.36 -0.84,-1.92 -0.48,-0.56 -1.09,-1 -1.82,-1.29 -0.86,-0.34 -1.7,-0.47 -2.52,-0.39 -0.82,0.1 -1.5,0.43 -2.06,1.02 -0.56,0.58 -1.11,1.58 -1.65,2.97l0 0 0 0 0 0zm20.28 -28.58l5 4.82 -10.73 13.79 -0.41 -0.32 0.41 -0.51c0.35,-0.45 0.55,-0.88 0.6,-1.28 0.05,-0.28 -0.02,-0.58 -0.2,-0.88 -0.11,-0.23 -0.57,-0.65 -1.36,-1.27l-10.25 -7.97c-0.81,-0.63 -1.34,-0.98 -1.61,-1.05 -0.26,-0.06 -0.57,-0.03 -0.91,0.1 -0.35,0.14 -0.7,0.43 -1.03,0.86l-0.4 0.51 -0.4 -0.31 6.45 -8.27 0.39 0.3 -0.52 0.68c-0.36,0.46 -0.56,0.87 -0.62,1.28 -0.04,0.29 0.01,0.58 0.2,0.9 0.11,0.24 0.56,0.65 1.36,1.27l9.93 7.72c0.79,0.61 1.33,0.96 1.62,1.04 0.29,0.09 0.59,0.03 0.91,-0.15 0.21,-0.14 0.6,-0.57 1.18,-1.3l1 -1.29c0.64,-0.83 1.02,-1.62 1.16,-2.4 0.14,-0.76 0.06,-1.6 -0.26,-2.49 -0.32,-0.88 -0.95,-1.98 -1.89,-3.29l0.38 -0.49 0 0 0 0zm-3.65 -14.99l8.29 -5.89 0.3 0.41 -0.42 0.3c-0.63,0.45 -1.01,0.8 -1.15,1.12 -0.14,0.3 -0.18,0.59 -0.11,0.89 0.07,0.29 0.43,0.91 1.09,1.84l5.58 7.86c1.01,1.44 1.79,2.31 2.35,2.63 0.56,0.31 1.18,0.43 1.89,0.4 0.72,-0.05 1.46,-0.34 2.22,-0.87 0.87,-0.62 1.47,-1.34 1.79,-2.17 0.34,-0.82 0.41,-1.68 0.23,-2.59 -0.18,-0.9 -0.88,-2.2 -2.08,-3.91l-4.67 -6.56c-0.51,-0.71 -0.95,-1.19 -1.32,-1.39 -0.37,-0.19 -0.71,-0.28 -1.02,-0.24 -0.49,0.08 -1.06,0.34 -1.72,0.79l-0.28 -0.41 5.55 -3.94 0.29 0.41 -0.32 0.25c-0.46,0.31 -0.77,0.66 -0.93,1.07 -0.18,0.39 -0.21,0.82 -0.07,1.28 0.08,0.32 0.34,0.81 0.82,1.49l4.33 6.09c1.35,1.89 2.18,3.35 2.54,4.36 0.34,1.01 0.29,2.21 -0.18,3.6 -0.47,1.39 -1.53,2.67 -3.19,3.85 -1.38,0.99 -2.6,1.56 -3.61,1.73 -1.39,0.22 -2.59,0.09 -3.58,-0.4 -0.97,-0.49 -1.95,-1.4 -2.89,-2.72l-5.59 -7.87c-0.68,-0.94 -1.13,-1.48 -1.39,-1.63 -0.27,-0.16 -0.56,-0.22 -0.93,-0.18 -0.35,0.05 -0.86,0.32 -1.52,0.81l-0.3 -0.41 0 0 -0.01 0 0.01 0zm30.89 -17.1l2.97 7.46 0.37 -0.15c1.17,-0.46 1.85,-1.16 2.09,-2.09 0.23,-0.95 0.14,-2.14 -0.29,-3.62l0.53 -0.22 3.83 9.6 -0.53 0.2c-0.52,-1 -1.09,-1.76 -1.7,-2.3 -0.62,-0.53 -1.19,-0.81 -1.75,-0.85 -0.55,-0.04 -1.27,0.1 -2.14,0.46l2.06 5.14c0.4,1 0.69,1.6 0.86,1.79 0.18,0.19 0.41,0.32 0.7,0.36 0.29,0.06 0.69,-0.02 1.21,-0.23l1.12 -0.44c1.7,-0.67 2.9,-1.63 3.63,-2.82 0.71,-1.21 0.98,-2.7 0.77,-4.5l0.5 -0.2 1.5 6.14 -15.8 6.32 -0.19 -0.47 0.6 -0.24c0.53,-0.22 0.92,-0.48 1.18,-0.8 0.17,-0.23 0.27,-0.51 0.27,-0.87 0.01,-0.25 -0.17,-0.84 -0.54,-1.77l-4.81 -12.08c-0.35,-0.82 -0.56,-1.33 -0.7,-1.5 -0.21,-0.28 -0.48,-0.47 -0.78,-0.53 -0.44,-0.12 -0.96,-0.06 -1.57,0.17l-0.59 0.24 -0.18 -0.46 15.3 -6.12 2.15 5.42 -0.52 0.2c-0.77,-1.22 -1.53,-2.02 -2.23,-2.41 -0.7,-0.39 -1.54,-0.54 -2.49,-0.48 -0.58,0.04 -1.56,0.34 -2.93,0.89l-1.9 0.76 0 0 0 0zm43.83 3.15l-0.68 5.52c-0.13,1.05 -0.16,1.74 -0.04,2.02 0.08,0.29 0.29,0.53 0.6,0.74 0.3,0.2 0.9,0.35 1.8,0.47l-0.06 0.5 -10.02 -1.22 0.07 -0.51c0.9,0.11 1.52,0.1 1.88,-0.02 0.34,-0.13 0.59,-0.33 0.74,-0.57 0.18,-0.26 0.31,-0.92 0.45,-1.97l1.56 -12.78c0.14,-1.06 0.15,-1.73 0.06,-2.03 -0.1,-0.28 -0.3,-0.53 -0.61,-0.72 -0.3,-0.21 -0.92,-0.37 -1.8,-0.48l0.05 -0.5 9.1 1.11c2.37,0.29 4.07,0.67 5.14,1.12 1.05,0.47 1.87,1.18 2.45,2.15 0.59,0.97 0.81,2.05 0.66,3.23 -0.18,1.45 -0.85,2.58 -2,3.4 -0.74,0.52 -1.72,0.85 -2.95,1l3.88 7.19c0.51,0.94 0.89,1.52 1.13,1.77 0.35,0.34 0.8,0.56 1.31,0.65l-0.07 0.53 -6.16 -0.76 -5.21 -9.69 -1.29 -0.15 0 0 0.01 0 0 0zm1.16 -9.57l-1.04 8.54 0.82 0.09c1.34,0.18 2.36,0.18 3.05,0.01 0.69,-0.16 1.28,-0.55 1.74,-1.13 0.44,-0.59 0.73,-1.4 0.86,-2.42 0.2,-1.48 -0.03,-2.63 -0.64,-3.42 -0.61,-0.8 -1.7,-1.29 -3.24,-1.48l-1.55 -0.19 0 0 0 0 0 0zm23.82 24.41l-0.18 0.47 -9.53 -3.81 0.19 -0.47c1.16,0.64 2.15,0.68 2.8,0.03 0.17,-0.18 0.46,-0.73 0.82,-1.65l4.82 -12.07c0.38,-0.95 0.57,-1.56 0.56,-1.83 0,-0.28 -0.12,-0.56 -0.34,-0.86 -0.23,-0.29 -0.6,-0.55 -1.12,-0.75l-0.6 -0.25 0.18 -0.46 9.53 3.81 -0.18 0.46 -0.6 -0.25c-0.52,-0.19 -0.99,-0.27 -1.4,-0.21 -0.27,0.04 -0.55,0.18 -0.79,0.43 -0.19,0.18 -0.47,0.73 -0.84,1.65l-4.83 12.07c-0.37,0.95 -0.56,1.57 -0.55,1.84 0.01,0.28 0.13,0.56 0.36,0.86 0.23,0.29 0.6,0.54 1.11,0.74l0.59 0.25 0 0 0 0zm4.02 2.42l0.29 -0.41 0.53 0.38c0.47,0.32 0.88,0.51 1.24,0.54 0.34,0.03 0.67,-0.03 0.97,-0.22 0.19,-0.1 0.58,-0.59 1.18,-1.42l7.54 -10.58c0.59,-0.84 0.92,-1.39 0.97,-1.65 0.06,-0.28 0.01,-0.57 -0.13,-0.92 -0.16,-0.34 -0.45,-0.66 -0.91,-1l-0.53 -0.37 0.29 -0.42 7.18 5.13c1.92,1.35 3.27,2.73 4.07,4.07 0.98,1.66 1.36,3.4 1.17,5.21 -0.17,1.82 -0.85,3.56 -2.02,5.19 -0.79,1.13 -1.71,2.04 -2.76,2.73 -1.04,0.7 -2.07,1.15 -3.09,1.36 -1,0.22 -2.03,0.22 -3.06,0.06 -1.02,-0.15 -2.14,-0.53 -3.38,-1.09 -0.54,-0.25 -1.34,-0.74 -2.36,-1.47l-7.19 -5.12 0 0 0 0zm16.91 -10.81l-8.93 12.52c-0.47,0.67 -0.72,1.09 -0.76,1.29 -0.04,0.19 -0.02,0.38 0.07,0.57 0.12,0.27 0.39,0.55 0.8,0.84 1.31,0.95 2.65,1.21 3.99,0.8 1.79,-0.54 3.63,-2.09 5.45,-4.64 1.47,-2.06 2.32,-3.94 2.54,-5.63 0.18,-1.33 -0.02,-2.45 -0.58,-3.37 -0.39,-0.67 -1.25,-1.45 -2.58,-2.38l0 0zm28.2 26.22l-5.45 4.29 -0.3 -0.39c1.08,-1.69 1.6,-3.34 1.57,-4.96 -0.03,-1.64 -0.53,-3.05 -1.49,-4.27 -0.91,-1.15 -1.99,-1.87 -3.25,-2.13 -1.26,-0.26 -2.59,-0.08 -4.01,0.51 -1.42,0.6 -2.73,1.38 -3.95,2.33 -1.49,1.18 -2.65,2.37 -3.49,3.6 -0.84,1.23 -1.21,2.44 -1.12,3.64 0.08,1.18 0.55,2.31 1.39,3.38 0.29,0.39 0.63,0.73 1.02,1.05 0.39,0.33 0.82,0.65 1.29,0.94l3.21 -2.53c0.61,-0.47 0.99,-0.84 1.1,-1.07 0.12,-0.21 0.14,-0.53 0.08,-0.9 -0.06,-0.37 -0.22,-0.76 -0.52,-1.12l-0.3 -0.4 0.38 -0.31 5.93 7.52 -0.4 0.32c-0.49,-0.55 -0.88,-0.89 -1.18,-1.01 -0.29,-0.13 -0.63,-0.14 -1.01,-0.05 -0.19,0.05 -0.59,0.28 -1.16,0.74l-3.21 2.52c-1.2,-0.64 -2.35,-1.41 -3.43,-2.29 -1.05,-0.89 -2.04,-1.92 -2.95,-3.07 -1.15,-1.46 -1.9,-2.84 -2.27,-4.13 -0.36,-1.27 -0.51,-2.55 -0.45,-3.8 0.08,-1.25 0.36,-2.41 0.85,-3.47 0.62,-1.36 1.58,-2.55 2.88,-3.57 2.33,-1.83 4.95,-2.56 7.82,-2.19 2.9,0.38 5.33,1.82 7.28,4.3 0.6,0.76 1.09,1.5 1.47,2.21 0.18,0.39 0.45,1.06 0.75,2.04 0.31,0.96 0.51,1.52 0.63,1.67 0.16,0.21 0.39,0.34 0.69,0.39 0.31,0.07 0.74,0 1.29,-0.18l0.31 0.39 0 0 0 0 0 0zm6.78 17.23l-7.46 2.96 0.13 0.37c0.47,1.18 1.18,1.87 2.1,2.1 0.93,0.24 2.15,0.15 3.62,-0.27l0.21 0.52 -9.59 3.81 -0.22 -0.53c1.01,-0.53 1.77,-1.09 2.3,-1.7 0.53,-0.61 0.82,-1.19 0.88,-1.74 0.04,-0.56 -0.12,-1.27 -0.46,-2.15l-5.16 2.04c-1.01,0.41 -1.6,0.7 -1.79,0.87 -0.2,0.17 -0.31,0.41 -0.36,0.7 -0.05,0.29 0.02,0.69 0.23,1.21l0.43 1.1c0.69,1.72 1.62,2.93 2.82,3.65 1.19,0.72 2.69,0.99 4.49,0.79l0.2 0.5 -6.15 1.48 -6.26 -15.82 0.46 -0.18 0.25 0.6c0.19,0.53 0.47,0.91 0.8,1.17 0.21,0.18 0.5,0.27 0.85,0.27 0.26,0.01 0.85,-0.15 1.77,-0.53l12.09 -4.78c0.83,-0.34 1.34,-0.56 1.51,-0.68 0.29,-0.22 0.45,-0.49 0.54,-0.8 0.11,-0.44 0.06,-0.95 -0.18,-1.54l-0.23 -0.61 0.46 -0.18 6.09 15.3 -5.43 2.16 -0.21 -0.52c1.23,-0.8 2.02,-1.53 2.42,-2.23 0.39,-0.69 0.55,-1.53 0.47,-2.5 -0.03,-0.57 -0.31,-1.54 -0.87,-2.93l-0.75 -1.91 0 0 0 0 0 0z"/>
  <path class="fil4" d="M85.84 200.2l-1.9 -0.44 2.79 -12.19c-0.56,0.34 -1.26,0.64 -2.11,0.9 -0.85,0.27 -1.6,0.45 -2.25,0.52l0.42 -1.84c1.2,-0.26 2.27,-0.65 3.23,-1.18 0.97,-0.53 1.7,-1.09 2.19,-1.68l1.23 0.27 -3.6 15.64 0 0 0 0 0 0zm11.9 -6.73c-0.78,-0.36 -1.34,-0.83 -1.7,-1.42 -0.35,-0.58 -0.49,-1.25 -0.44,-2.02 0.09,-1.15 0.58,-2.1 1.47,-2.81 0.9,-0.74 2.03,-1.04 3.41,-0.95 1.39,0.1 2.48,0.6 3.26,1.47 0.79,0.88 1.13,1.89 1.04,3.05 -0.05,0.73 -0.29,1.37 -0.72,1.89 -0.43,0.52 -1.05,0.89 -1.86,1.13 0.95,0.39 1.65,0.95 2.11,1.7 0.45,0.75 0.65,1.62 0.57,2.61 -0.11,1.35 -0.68,2.46 -1.71,3.31 -1.03,0.85 -2.34,1.23 -3.9,1.11 -1.56,-0.13 -2.79,-0.68 -3.69,-1.69 -0.88,-1.01 -1.29,-2.19 -1.18,-3.59 0.09,-1.03 0.41,-1.88 0.99,-2.54 0.58,-0.65 1.36,-1.07 2.35,-1.25l0 0 0 0zm-0.13 -3.35c-0.06,0.75 0.13,1.38 0.58,1.89 0.44,0.52 1.06,0.81 1.84,0.88 0.75,0.05 1.4,-0.14 1.92,-0.58 0.5,-0.44 0.78,-1 0.84,-1.69 0.06,-0.72 -0.15,-1.34 -0.61,-1.87 -0.45,-0.52 -1.05,-0.82 -1.79,-0.87 -0.76,-0.06 -1.39,0.14 -1.91,0.57 -0.52,0.45 -0.82,1 -0.87,1.67l0 0 0 0 0 0zm-1.2 7.3c-0.04,0.56 0.04,1.12 0.26,1.67 0.23,0.54 0.58,0.97 1.09,1.28 0.5,0.34 1.06,0.51 1.65,0.56 0.94,0.09 1.73,-0.16 2.39,-0.72 0.65,-0.55 1.01,-1.3 1.08,-2.23 0.07,-0.94 -0.19,-1.74 -0.76,-2.39 -0.58,-0.67 -1.34,-1.04 -2.27,-1.12 -0.94,-0.06 -1.73,0.19 -2.37,0.75 -0.65,0.56 -1,1.29 -1.07,2.2l0 0 0 0zm15.75 -3.62c-0.82,-0.24 -1.46,-0.62 -1.89,-1.14 -0.43,-0.52 -0.68,-1.18 -0.74,-1.93 -0.09,-1.17 0.25,-2.18 1.02,-3.02 0.78,-0.86 1.85,-1.34 3.24,-1.44 1.37,-0.1 2.54,0.21 3.44,0.96 0.9,0.73 1.4,1.69 1.5,2.85 0.05,0.74 -0.1,1.39 -0.44,1.96 -0.34,0.6 -0.89,1.06 -1.67,1.41 1,0.26 1.78,0.71 2.35,1.38 0.56,0.66 0.88,1.49 0.95,2.48 0.11,1.36 -0.3,2.53 -1.18,3.54 -0.9,1 -2.13,1.56 -3.69,1.68 -1.57,0.12 -2.88,-0.25 -3.9,-1.11 -1.04,-0.85 -1.6,-1.98 -1.71,-3.37 -0.08,-1.04 0.12,-1.91 0.59,-2.66 0.47,-0.74 1.18,-1.27 2.13,-1.59l0 0 0 0 0 0zm-0.63 -3.3c0.05,0.76 0.34,1.36 0.86,1.79 0.52,0.45 1.17,0.64 1.94,0.59 0.76,-0.07 1.36,-0.36 1.8,-0.87 0.45,-0.51 0.64,-1.1 0.59,-1.79 -0.06,-0.72 -0.34,-1.31 -0.88,-1.76 -0.52,-0.46 -1.16,-0.64 -1.91,-0.59 -0.75,0.05 -1.35,0.34 -1.81,0.86 -0.45,0.52 -0.64,1.1 -0.59,1.77l0 0 0 0zm-0.08 7.41c0.04,0.56 0.2,1.08 0.51,1.6 0.3,0.49 0.71,0.86 1.26,1.11 0.55,0.24 1.12,0.35 1.72,0.3 0.94,-0.07 1.69,-0.43 2.25,-1.08 0.56,-0.64 0.8,-1.43 0.73,-2.35 -0.07,-0.94 -0.44,-1.7 -1.1,-2.27 -0.68,-0.56 -1.49,-0.82 -2.43,-0.75 -0.93,0.09 -1.66,0.44 -2.23,1.09 -0.55,0.66 -0.79,1.44 -0.71,2.35l0 0zm21.22 -11.09l-1.85 0.58c-0.35,-0.7 -0.71,-1.19 -1.11,-1.46 -0.65,-0.44 -1.35,-0.55 -2.11,-0.39 -0.62,0.15 -1.12,0.44 -1.51,0.9 -0.5,0.57 -0.82,1.32 -0.97,2.24 -0.16,0.91 -0.07,2.16 0.28,3.72 0.3,-0.8 0.75,-1.46 1.33,-1.95 0.6,-0.49 1.25,-0.81 1.98,-0.99 1.27,-0.29 2.48,-0.07 3.59,0.66 1.1,0.73 1.84,1.83 2.18,3.32 0.23,0.98 0.23,1.94 0,2.87 -0.23,0.94 -0.67,1.71 -1.3,2.33 -0.63,0.61 -1.41,1.04 -2.34,1.25 -1.59,0.37 -3.04,0.08 -4.31,-0.86 -1.27,-0.93 -2.23,-2.75 -2.84,-5.43 -0.71,-3.02 -0.65,-5.32 0.15,-6.95 0.69,-1.42 1.88,-2.31 3.52,-2.7 1.21,-0.28 2.31,-0.16 3.26,0.35 0.92,0.5 1.62,1.33 2.05,2.51l0 0 0 0 0 0zm-6.27 8.52c0.15,0.65 0.44,1.26 0.85,1.79 0.43,0.54 0.93,0.91 1.49,1.1 0.57,0.2 1.14,0.24 1.7,0.11 0.81,-0.18 1.43,-0.67 1.86,-1.46 0.43,-0.78 0.51,-1.73 0.25,-2.85 -0.25,-1.08 -0.73,-1.86 -1.43,-2.34 -0.72,-0.5 -1.52,-0.63 -2.39,-0.43 -0.87,0.19 -1.53,0.67 -1.99,1.44 -0.46,0.75 -0.57,1.63 -0.34,2.64l0 0 0 0z"/>
  <path class="fil4" d="M97.45 130.07c0.23,0.65 0.32,1.35 0.3,2.07 -0.02,0.71 -0.17,1.41 -0.43,2.05 -0.28,0.65 -0.65,1.23 -1.13,1.73 -0.49,0.51 -1.07,0.89 -1.77,1.14 -0.31,0.1 -0.65,0.16 -1,0.16 -0.37,0.01 -0.72,-0.04 -1.07,-0.14 -0.33,-0.11 -0.64,-0.27 -0.91,-0.49 -0.27,-0.23 -0.45,-0.5 -0.57,-0.84 -0.15,-0.41 -0.23,-0.83 -0.24,-1.29 -0.01,-0.45 0.05,-0.89 0.15,-1.34 0.11,-0.44 0.3,-0.85 0.54,-1.24 0.24,-0.38 0.54,-0.68 0.9,-0.94 0.17,-0.1 0.29,-0.1 0.4,-0.01 0.09,0.1 0.05,0.22 -0.16,0.37 -0.22,0.15 -0.38,0.35 -0.53,0.58 -0.14,0.24 -0.25,0.51 -0.31,0.81 -0.07,0.32 -0.1,0.62 -0.09,0.94 0.01,0.31 0.06,0.62 0.16,0.92 0.07,0.18 0.19,0.35 0.39,0.49 0.17,0.14 0.4,0.25 0.63,0.33 0.24,0.08 0.48,0.14 0.74,0.16 0.24,0.01 0.46,-0.01 0.62,-0.06 0.52,-0.2 0.97,-0.48 1.34,-0.88 0.36,-0.4 0.65,-0.85 0.83,-1.36 0.21,-0.5 0.31,-1.02 0.32,-1.57 0.03,-0.56 -0.06,-1.07 -0.23,-1.57 -0.19,-0.54 -0.45,-0.99 -0.76,-1.33 -0.32,-0.34 -0.69,-0.58 -1.09,-0.73 -0.42,-0.16 -0.85,-0.23 -1.32,-0.21 -0.48,0.01 -0.97,0.12 -1.48,0.3 -0.79,0.27 -1.51,0.74 -2.17,1.43 -0.66,0.66 -1.24,1.46 -1.75,2.37 -0.5,0.92 -0.92,1.91 -1.25,2.97 -0.33,1.05 -0.57,2.12 -0.74,3.18 -0.14,1.07 -0.2,2.08 -0.16,3.05 0.04,0.96 0.19,1.79 0.43,2.51 0.37,1.03 0.91,1.74 1.64,2.19 0.71,0.45 1.62,0.48 2.7,0.11 0.75,-0.27 1.41,-0.66 1.95,-1.16 0.55,-0.49 0.98,-1 1.35,-1.52 0.35,-0.52 0.61,-1.02 0.79,-1.49 0.17,-0.47 0.29,-0.8 0.35,-1.02l2.05 -0.66c-0.24,1.25 -0.45,2.46 -0.66,3.58 -0.19,1.13 -0.42,2.18 -0.68,3.16 -0.27,0.97 -0.6,1.89 -0.99,2.73 -0.4,0.85 -0.91,1.62 -1.55,2.33 -0.64,0.71 -1.45,1.37 -2.41,1.96 -0.95,0.6 -2.12,1.14 -3.5,1.62 -0.62,0.22 -1.34,0.42 -2.13,0.59 -0.79,0.17 -1.56,0.23 -2.31,0.19 -0.76,-0.05 -1.45,-0.25 -2.07,-0.59 -0.63,-0.36 -1.08,-0.94 -1.37,-1.75 -0.15,-0.44 -0.21,-0.9 -0.18,-1.4 0.03,-0.5 0.16,-0.97 0.36,-1.42 0.21,-0.46 0.5,-0.88 0.88,-1.25 0.38,-0.35 0.86,-0.64 1.41,-0.83 0.2,-0.07 0.47,-0.14 0.79,-0.17 0.31,-0.03 0.64,-0.04 0.97,-0.04 0.33,0.01 0.65,0.03 0.94,0.08 0.31,0.07 0.54,0.14 0.71,0.23 0.03,0.02 0.04,0.08 0,0.16 -0.04,0.08 -0.09,0.11 -0.15,0.1 -0.39,-0.07 -0.81,-0.09 -1.23,-0.06 -0.44,0.03 -0.83,0.11 -1.19,0.24 -0.42,0.14 -0.8,0.35 -1.09,0.62 -0.28,0.27 -0.49,0.56 -0.64,0.91 -0.14,0.34 -0.21,0.68 -0.22,1.06 -0.01,0.38 0.05,0.74 0.18,1.12 0.26,0.71 0.6,1.24 1.05,1.57 0.44,0.34 0.95,0.57 1.51,0.65 0.56,0.09 1.16,0.07 1.77,-0.03 0.6,-0.12 1.18,-0.26 1.74,-0.46 1.42,-0.49 2.59,-1.17 3.54,-2 0.96,-0.86 1.74,-1.81 2.33,-2.87 0.59,-1.05 1.03,-2.18 1.32,-3.39 0.27,-1.2 0.46,-2.42 0.53,-3.63 -0.21,0.47 -0.47,0.92 -0.79,1.36 -0.32,0.43 -0.7,0.82 -1.11,1.18 -0.41,0.37 -0.85,0.69 -1.34,0.98 -0.48,0.3 -0.98,0.53 -1.49,0.71 -0.61,0.21 -1.22,0.31 -1.82,0.29 -0.62,-0.02 -1.19,-0.15 -1.71,-0.39 -0.51,-0.23 -0.98,-0.57 -1.4,-1.02 -0.39,-0.44 -0.71,-0.98 -0.94,-1.61 -0.35,-1.01 -0.55,-2.08 -0.6,-3.21 -0.03,-1.14 0.07,-2.27 0.29,-3.4 0.22,-1.15 0.58,-2.26 1.04,-3.34 0.48,-1.08 1.05,-2.09 1.75,-3.03 0.69,-0.92 1.47,-1.74 2.36,-2.45 0.88,-0.7 1.83,-1.24 2.87,-1.6 0.6,-0.21 1.2,-0.32 1.8,-0.32 0.59,0 1.14,0.11 1.67,0.32 0.52,0.2 0.99,0.52 1.39,0.94 0.42,0.41 0.72,0.93 0.95,1.57l0 0 0 0zm7.03 2.45c-0.05,-0.15 -0.14,-0.24 -0.26,-0.3 -0.12,-0.07 -0.24,-0.1 -0.39,-0.1 -0.15,0 -0.31,0.01 -0.45,0.04 -0.17,0.04 -0.29,0.07 -0.4,0.1 -0.53,0.18 -0.94,0.54 -1.25,1.06 -0.29,0.52 -0.53,1.1 -0.68,1.75 -0.15,0.65 -0.27,1.3 -0.3,1.95 -0.04,0.66 -0.05,1.22 -0.05,1.69 0.75,-0.37 1.41,-0.75 1.98,-1.18 0.58,-0.42 1.05,-0.88 1.39,-1.38 0.36,-0.51 0.56,-1.05 0.65,-1.65 0.1,-0.6 0.01,-1.26 -0.24,-1.98l0 0 0 0zm2.07 -0.18c0.2,0.55 0.24,1.09 0.13,1.61 -0.1,0.51 -0.31,1 -0.61,1.44 -0.29,0.46 -0.68,0.89 -1.12,1.3 -0.45,0.41 -0.93,0.78 -1.43,1.1 -0.5,0.35 -0.99,0.65 -1.49,0.91 -0.5,0.28 -0.94,0.5 -1.32,0.68 -0.03,0.46 -0.04,0.92 -0.02,1.36 0.01,0.45 0.09,0.87 0.24,1.28 0.2,0.6 0.56,1.05 1.04,1.34 0.48,0.29 1.02,0.32 1.63,0.12 0.54,-0.19 0.93,-0.45 1.18,-0.78 0.24,-0.33 0.4,-0.6 0.53,-0.8 0.05,-0.11 0.14,-0.14 0.25,-0.12 0.1,0.02 0.14,0.12 0.1,0.25 -0.06,0.26 -0.18,0.52 -0.38,0.77 -0.2,0.25 -0.42,0.48 -0.66,0.7 -0.24,0.21 -0.48,0.4 -0.73,0.54 -0.25,0.15 -0.46,0.25 -0.63,0.31 -0.45,0.16 -0.9,0.26 -1.35,0.29 -0.44,0.04 -0.86,-0.01 -1.25,-0.13 -0.38,-0.13 -0.72,-0.34 -1.02,-0.64 -0.3,-0.28 -0.54,-0.69 -0.72,-1.18 -0.36,-1.01 -0.54,-2.1 -0.54,-3.27 -0.01,-1.16 0.17,-2.28 0.53,-3.36 0.35,-1.08 0.91,-2.05 1.62,-2.9 0.72,-0.86 1.64,-1.47 2.76,-1.87 0.27,-0.09 0.6,-0.15 0.93,-0.17 0.33,-0.03 0.66,0 0.96,0.08 0.32,0.08 0.6,0.22 0.84,0.4 0.24,0.18 0.42,0.43 0.53,0.74l0 0 0 0 0 0zm7.5 -0.71c-0.1,-0.33 -0.23,-0.66 -0.37,-0.98 -0.12,-0.35 -0.29,-0.65 -0.49,-0.89 -0.19,-0.25 -0.41,-0.43 -0.69,-0.53 -0.26,-0.11 -0.6,-0.09 -0.98,0.04 -0.39,0.13 -0.72,0.41 -0.99,0.82 -0.26,0.39 -0.47,0.87 -0.63,1.44 -0.16,0.56 -0.28,1.16 -0.35,1.8 -0.07,0.66 -0.1,1.29 -0.09,1.91 0.01,0.61 0.05,1.19 0.11,1.73 0.07,0.53 0.16,0.95 0.28,1.28 0.12,0.38 0.27,0.74 0.44,1.04 0.16,0.31 0.35,0.56 0.58,0.75 0.21,0.18 0.48,0.3 0.8,0.34 0.34,0.05 0.74,-0.02 1.2,-0.18 0.33,-0.11 0.62,-0.37 0.84,-0.76 0.22,-0.39 0.38,-0.85 0.52,-1.39 0.12,-0.53 0.2,-1.11 0.25,-1.73 0.04,-0.63 0.04,-1.24 0.02,-1.83 -0.03,-0.6 -0.08,-1.15 -0.16,-1.66 -0.08,-0.51 -0.18,-0.91 -0.29,-1.2l0 0 0 0 0 0zm2.24 -0.8c0.32,0.95 0.47,1.97 0.43,3.04 -0.05,1.08 -0.25,2.11 -0.63,3.09 -0.36,0.99 -0.9,1.86 -1.6,2.64 -0.69,0.77 -1.52,1.33 -2.47,1.66 -0.46,0.16 -0.89,0.25 -1.32,0.26 -0.44,0.02 -0.82,-0.02 -1.2,-0.15 -0.37,-0.12 -0.69,-0.32 -0.98,-0.62 -0.29,-0.28 -0.51,-0.66 -0.67,-1.13 -0.35,-1 -0.53,-2.08 -0.54,-3.27 -0.02,-1.16 0.15,-2.28 0.48,-3.37 0.33,-1.09 0.84,-2.05 1.53,-2.88 0.68,-0.85 1.55,-1.46 2.57,-1.82 0.56,-0.2 1.07,-0.27 1.52,-0.21 0.46,0.07 0.87,0.21 1.24,0.45 0.37,0.25 0.69,0.57 0.96,0.97 0.27,0.39 0.49,0.84 0.68,1.34l0 0 0 0 0 0zm9.74 -5.34c0.08,0.27 0.12,0.54 0.08,0.81 -0.04,0.28 -0.12,0.53 -0.25,0.77 -0.13,0.24 -0.31,0.45 -0.52,0.63 -0.22,0.19 -0.45,0.33 -0.7,0.42 -0.11,0.04 -0.22,0.06 -0.37,0.06 -0.14,0.01 -0.29,0 -0.42,-0.03 -0.14,-0.04 -0.28,-0.08 -0.4,-0.14 -0.11,-0.07 -0.18,-0.16 -0.23,-0.26 -0.04,-0.12 -0.01,-0.22 0.08,-0.31 0.09,-0.08 0.19,-0.19 0.3,-0.31 0.12,-0.13 0.2,-0.29 0.26,-0.47 0.05,-0.2 0.03,-0.45 -0.09,-0.77 -0.13,-0.39 -0.36,-0.53 -0.67,-0.42 -0.24,0.1 -0.48,0.24 -0.7,0.44 -0.22,0.22 -0.43,0.45 -0.61,0.72 -0.2,0.26 -0.35,0.54 -0.49,0.84 -0.14,0.3 -0.25,0.6 -0.34,0.88l-0.41 6.67c0,0.14 -0.01,0.29 -0.03,0.48 -0.01,0.18 -0.02,0.34 -0.02,0.52 0,0.17 0,0.33 0,0.48 -0.01,0.13 0,0.22 0.02,0.27 0.06,0.16 0.14,0.3 0.24,0.42 0.11,0.13 0.26,0.16 0.49,0.08 0.14,-0.05 0.27,-0.15 0.44,-0.32 0.14,-0.16 0.28,-0.35 0.41,-0.56 0.15,-0.2 0.27,-0.39 0.38,-0.61 0.11,-0.2 0.21,-0.37 0.29,-0.5 0.11,-0.2 0.21,-0.22 0.31,-0.06 0.09,0.15 0.06,0.37 -0.08,0.62 -0.24,0.51 -0.54,0.98 -0.89,1.41 -0.34,0.44 -0.81,0.76 -1.39,0.96 -0.44,0.15 -0.87,0.18 -1.29,0.08 -0.42,-0.09 -0.71,-0.37 -0.89,-0.83 -0.05,-0.16 -0.08,-0.34 -0.09,-0.56 -0.01,-0.21 -0.02,-0.43 -0.01,-0.66 0,-0.24 0.01,-0.48 0.02,-0.71 0.02,-0.23 0.02,-0.44 0.03,-0.63l0.36 -6.63c0.02,-0.62 -0.01,-1.03 -0.1,-1.22 -0.1,-0.19 -0.24,-0.25 -0.45,-0.18 -0.22,0.07 -0.39,0.21 -0.53,0.38 -0.15,0.18 -0.28,0.39 -0.39,0.6 -0.12,0.23 -0.22,0.46 -0.3,0.7 -0.08,0.23 -0.16,0.43 -0.23,0.6 -0.09,0.17 -0.2,0.23 -0.34,0.2 -0.12,-0.03 -0.16,-0.12 -0.12,-0.27 0.11,-0.32 0.24,-0.65 0.39,-0.99 0.14,-0.33 0.31,-0.65 0.49,-0.93 0.19,-0.29 0.4,-0.54 0.64,-0.78 0.22,-0.22 0.49,-0.38 0.8,-0.49 0.56,-0.18 1.02,-0.15 1.42,0.11 0.41,0.27 0.68,0.64 0.81,1.1 0.07,-0.19 0.18,-0.42 0.33,-0.7 0.15,-0.27 0.31,-0.56 0.51,-0.84 0.2,-0.29 0.42,-0.55 0.68,-0.79 0.27,-0.23 0.57,-0.42 0.89,-0.53 0.27,-0.09 0.55,-0.15 0.8,-0.19 0.26,-0.04 0.52,0 0.74,0.09 0.22,0.08 0.44,0.23 0.63,0.45 0.21,0.21 0.37,0.52 0.51,0.9l0 0 0 0 0 0zm6.9 -2.27c-0.12,-0.38 -0.37,-0.64 -0.71,-0.8 -0.35,-0.14 -0.73,-0.14 -1.12,-0.01 -0.33,0.13 -0.64,0.38 -0.92,0.78 -0.28,0.41 -0.53,0.91 -0.76,1.48 -0.22,0.58 -0.4,1.22 -0.55,1.94 -0.13,0.7 -0.23,1.43 -0.28,2.16 -0.05,0.74 -0.04,1.45 0.03,2.14 0.06,0.69 0.18,1.32 0.38,1.88 0.15,0.43 0.34,0.79 0.57,1.06 0.25,0.28 0.5,0.36 0.78,0.26 0.52,-0.19 0.97,-0.52 1.36,-1.02 0.38,-0.5 0.68,-1.09 0.92,-1.75 0.24,-0.66 0.42,-1.39 0.54,-2.15 0.12,-0.77 0.19,-1.52 0.2,-2.28 0.02,-0.74 -0.01,-1.44 -0.09,-2.09 -0.08,-0.64 -0.19,-1.17 -0.35,-1.6l0 0 0 0 0 0zm2.05 8.51c-0.06,0.87 -0.17,1.72 -0.32,2.55 -0.17,0.83 -0.43,1.6 -0.79,2.32 -0.35,0.72 -0.83,1.36 -1.42,1.91 -0.6,0.55 -1.35,1 -2.29,1.32 -0.25,0.09 -0.54,0.17 -0.89,0.27 -0.36,0.1 -0.71,0.15 -1.05,0.16 -0.35,0.03 -0.67,-0.02 -0.95,-0.13 -0.28,-0.11 -0.47,-0.33 -0.6,-0.67 -0.11,-0.31 -0.09,-0.56 0.05,-0.75 0.15,-0.18 0.37,-0.34 0.68,-0.45 0.37,-0.12 0.66,-0.14 0.89,-0.02 0.22,0.11 0.42,0.26 0.59,0.42 0.17,0.16 0.35,0.32 0.51,0.45 0.16,0.13 0.39,0.15 0.64,0.05 0.61,-0.21 1.1,-0.55 1.44,-1.02 0.35,-0.48 0.62,-1.03 0.8,-1.64 0.16,-0.62 0.28,-1.25 0.35,-1.91 0.05,-0.66 0.08,-1.27 0.1,-1.84 -0.29,0.4 -0.62,0.82 -1.02,1.23 -0.41,0.41 -0.88,0.72 -1.45,0.91 -0.83,0.29 -1.52,0.29 -2.09,-0.02 -0.56,-0.3 -1,-0.87 -1.29,-1.7 -0.2,-0.57 -0.34,-1.23 -0.42,-1.94 -0.06,-0.73 -0.06,-1.48 0,-2.23 0.08,-0.78 0.22,-1.56 0.42,-2.33 0.2,-0.78 0.48,-1.5 0.84,-2.16 0.34,-0.65 0.77,-1.24 1.26,-1.73 0.5,-0.49 1.08,-0.86 1.72,-1.09 0.71,-0.24 1.27,-0.29 1.67,-0.13 0.41,0.17 0.78,0.45 1.12,0.85l0.13 -1.61 2.11 -0.74 -0.74 11.67 0 0 0 0 0 0zm5.37 -3.65c-0.01,0.15 -0.01,0.3 -0.03,0.49 -0.01,0.19 -0.02,0.36 -0.02,0.53 0,0.17 0,0.31 -0.01,0.47 0,0.13 0.01,0.23 0.02,0.27 0.05,0.14 0.13,0.3 0.25,0.43 0.1,0.14 0.27,0.17 0.48,0.09 0.16,-0.05 0.31,-0.16 0.45,-0.32 0.17,-0.17 0.3,-0.36 0.42,-0.58 0.13,-0.19 0.25,-0.4 0.36,-0.61 0.1,-0.2 0.21,-0.37 0.28,-0.5 0.13,-0.19 0.23,-0.22 0.31,-0.06 0.11,0.16 0.07,0.37 -0.06,0.62 -0.25,0.51 -0.56,0.98 -0.9,1.42 -0.34,0.43 -0.8,0.75 -1.4,0.95 -0.42,0.15 -0.86,0.18 -1.28,0.08 -0.43,-0.09 -0.72,-0.37 -0.89,-0.83 -0.05,-0.16 -0.08,-0.34 -0.09,-0.56 -0.02,-0.2 -0.02,-0.42 -0.02,-0.66 0.01,-0.23 0.02,-0.48 0.03,-0.7 0.01,-0.24 0.02,-0.44 0.03,-0.64l0.37 -6.62c0.03,-0.61 0,-1.01 -0.1,-1.2 -0.1,-0.2 -0.25,-0.26 -0.44,-0.19 -0.22,0.07 -0.41,0.21 -0.54,0.39 -0.16,0.17 -0.28,0.38 -0.4,0.6 -0.1,0.23 -0.22,0.45 -0.29,0.69 -0.08,0.23 -0.17,0.43 -0.24,0.61 -0.08,0.16 -0.2,0.22 -0.32,0.19 -0.14,-0.03 -0.18,-0.12 -0.12,-0.27 0.11,-0.32 0.23,-0.65 0.38,-0.98 0.14,-0.35 0.3,-0.66 0.5,-0.95 0.17,-0.29 0.38,-0.55 0.61,-0.78 0.23,-0.22 0.51,-0.39 0.81,-0.51 0.34,-0.11 0.67,-0.13 0.95,-0.06 0.29,0.07 0.53,0.22 0.72,0.41 0.2,0.19 0.37,0.44 0.47,0.72 0.1,0.28 0.15,0.59 0.13,0.88l-0.42 7.18 0 0 0 0 0 0zm0.69 -14.62c0.12,0.36 0.1,0.72 -0.07,1.05 -0.16,0.35 -0.42,0.58 -0.8,0.72 -0.36,0.12 -0.72,0.1 -1.05,-0.07 -0.35,-0.16 -0.59,-0.42 -0.71,-0.78 -0.13,-0.37 -0.11,-0.72 0.05,-1.07 0.17,-0.35 0.43,-0.58 0.79,-0.71 0.37,-0.13 0.73,-0.1 1.07,0.06 0.35,0.17 0.58,0.43 0.72,0.8l0 0 0 0 0 0zm8.84 4.09c0.01,-0.22 -0.05,-0.39 -0.19,-0.55 -0.13,-0.14 -0.32,-0.26 -0.52,-0.35 -0.22,-0.09 -0.45,-0.15 -0.69,-0.17 -0.26,-0.02 -0.48,0.01 -0.69,0.09 -0.48,0.17 -0.9,0.49 -1.22,0.98 -0.32,0.49 -0.58,1.07 -0.79,1.73 -0.2,0.66 -0.34,1.38 -0.43,2.15 -0.07,0.77 -0.1,1.53 -0.09,2.28 0.01,0.74 0.05,1.43 0.15,2.07 0.1,0.63 0.21,1.14 0.34,1.52 0.13,0.38 0.35,0.63 0.65,0.77 0.31,0.14 0.61,0.16 0.86,0.06 0.17,-0.05 0.39,-0.26 0.63,-0.59 0.25,-0.34 0.49,-0.71 0.72,-1.12 0.22,-0.4 0.43,-0.79 0.6,-1.18 0.16,-0.39 0.25,-0.66 0.27,-0.82l0.4 -6.87 0 0 0 0 0 0zm1.64 7.4c-0.01,0.14 0,0.31 0,0.5 0.01,0.19 0.03,0.36 0.1,0.51 0.05,0.18 0.13,0.31 0.23,0.39 0.13,0.09 0.27,0.1 0.45,0.04 0.24,-0.08 0.47,-0.29 0.72,-0.63 0.23,-0.35 0.5,-0.8 0.8,-1.35 0.06,-0.1 0.14,-0.1 0.25,0 0.09,0.09 0.11,0.21 0.04,0.36 -0.08,0.24 -0.21,0.5 -0.33,0.75 -0.14,0.27 -0.33,0.53 -0.53,0.77 -0.22,0.24 -0.49,0.47 -0.79,0.69 -0.32,0.23 -0.71,0.42 -1.15,0.57 -0.38,0.13 -0.68,0.16 -0.92,0.08 -0.23,-0.09 -0.41,-0.23 -0.55,-0.42 -0.12,-0.21 -0.22,-0.44 -0.28,-0.71 -0.05,-0.25 -0.1,-0.51 -0.11,-0.74 -0.15,0.31 -0.32,0.64 -0.52,1 -0.19,0.37 -0.41,0.72 -0.66,1.05 -0.24,0.35 -0.51,0.65 -0.8,0.93 -0.28,0.28 -0.6,0.46 -0.93,0.59 -0.7,0.25 -1.27,0.25 -1.7,0.01 -0.45,-0.24 -0.79,-0.75 -1.07,-1.55 -0.23,-0.65 -0.41,-1.38 -0.49,-2.16 -0.1,-0.79 -0.11,-1.6 -0.04,-2.4 0.05,-0.82 0.19,-1.62 0.42,-2.42 0.22,-0.8 0.53,-1.53 0.93,-2.21 0.37,-0.67 0.85,-1.27 1.42,-1.79 0.55,-0.5 1.19,-0.9 1.93,-1.17 0.41,-0.13 0.8,-0.11 1.18,0.06 0.39,0.17 0.69,0.46 0.92,0.86l0.09 -1.28 2.07 -0.73 -0.68 10.4 0 0 0 0 0 0z"/>
 </g>
</svg>
