<?xml version="1.0" encoding="utf-8"?>
<!-- Generator: Adobe Illustrator 18.1.1, SVG Export Plug-In . SVG Version: 6.00 Build 0)  -->
<svg version="1.1" id="Layer_1" xmlns="http://www.w3.org/2000/svg" xmlns:xlink="http://www.w3.org/1999/xlink" x="0px" y="0px"
	 viewBox="0 0 282 90" enable-background="new 0 0 282 90" xml:space="preserve">
<g>
	<g>
		<g id="Blue_Energy_3_">
			<defs>
				<polygon id="SVGID_1_" points="92.9,11.6 65.1,9 65.1,90 92.9,90 				"/>
			</defs>
			<clipPath id="SVGID_2_">
				<use xlink:href="#SVGID_1_"  overflow="visible"/>
			</clipPath>
			<polygon clip-path="url(#SVGID_2_)" fill="#065684" points="92.9,11.6 65.1,9 65.1,90 92.9,90 			"/>
			<g clip-path="url(#SVGID_2_)">
				<g>
					<path fill="#03426D" d="M86.3,41.5c0.2-1.1,1.6-1.4,1.6-1.4L116,49c0,0,0.3,0.2,0.3,0.3c0,0.1-0.5,0-0.5,0l-28.8-5.7
						C87.1,43.6,86.1,42.6,86.3,41.5z"/>
					<path fill="#03426D" d="M86.3,41.5c0.2-1.1,1.6-1.4,1.6-1.4L116,49c0,0,0.3,0.2,0.3,0.3c0,0.1-0.5,0-0.5,0l-28.8-5.7
						C87.1,43.6,86.1,42.6,86.3,41.5z"/>
					<path fill="#03426D" d="M86.3,41.5c0.2-1.1,1.6-1.4,1.6-1.4l28.2,8.9c0,0,0.3,0.2,0.3,0.3c0,0.1-0.5,0-0.5,0l-28.8-5.7
						C87.1,43.6,86.1,42.6,86.3,41.5z"/>
					<path fill="#03426D" d="M86.3,41.5c0.2-1.1,1.6-1.4,1.6-1.4l28.2,8.9c0,0,0.3,0.2,0.3,0.3c0,0.1-0.5,0-0.5,0l-28.8-5.7
						C87.1,43.6,86.2,42.6,86.3,41.5z"/>
					<path fill="#03426D" d="M86.4,41.5c0.2-1.1,1.6-1.4,1.6-1.4l28.2,8.9c0,0,0.3,0.2,0.3,0.3c0,0.1-0.5,0-0.5,0l-28.8-5.7
						C87.1,43.6,86.2,42.6,86.4,41.5z"/>
					<path fill="#03426D" d="M86.4,41.5c0.2-1.1,1.6-1.4,1.6-1.4l28.2,8.9c0,0,0.3,0.2,0.3,0.3c0,0.1-0.5,0-0.5,0l-28.8-5.7
						C87.2,43.6,86.2,42.6,86.4,41.5z"/>
					<path fill="#03426D" d="M86.4,41.5c0.2-1.1,1.6-1.4,1.6-1.4l28.2,8.9c0,0,0.3,0.2,0.3,0.3c0,0.1-0.5,0-0.5,0l-28.8-5.7
						C87.2,43.6,86.2,42.6,86.4,41.5z"/>
					<path fill="#03426D" d="M86.4,41.5c0.2-1.1,1.6-1.4,1.6-1.4l28.2,8.9c0,0,0.3,0.2,0.3,0.3c0,0.1-0.5,0-0.5,0l-28.8-5.7
						C87.2,43.6,86.2,42.6,86.4,41.5z"/>
					<path fill="#03426D" d="M86.4,41.5c0.2-1.1,1.6-1.4,1.6-1.4l28.2,8.9c0,0,0.3,0.2,0.3,0.3c0,0.1-0.5,0-0.5,0l-28.8-5.7
						C87.2,43.6,86.2,42.6,86.4,41.5z"/>
					<path fill="#03426D" d="M86.4,41.5c0.2-1.1,1.6-1.4,1.6-1.4l28.2,8.9c0,0,0.3,0.2,0.3,0.3c0,0.1-0.5,0-0.5,0l-28.8-5.7
						C87.2,43.6,86.2,42.6,86.4,41.5z"/>
					<path fill="#03426D" d="M86.5,41.5C86.6,40.4,88,40,88,40l28.2,8.9c0,0,0.3,0.2,0.3,0.3c0,0.1-0.5,0-0.5,0l-28.8-5.7
						C87.2,43.6,86.3,42.6,86.5,41.5z"/>
					<path fill="#03426D" d="M86.5,41.5C86.7,40.3,88,40,88,40l28.2,8.9c0,0,0.3,0.2,0.3,0.3c0,0.1-0.5,0-0.5,0l-28.8-5.7
						C87.3,43.6,86.3,42.6,86.5,41.5z"/>
					<path fill="#03426D" d="M86.5,41.5C86.7,40.3,88,40,88,40l28.2,8.9c0,0,0.3,0.2,0.3,0.3c0,0.1-0.5,0-0.5,0l-28.8-5.7
						C87.3,43.6,86.3,42.6,86.5,41.5z"/>
					<path fill="#03426D" d="M86.5,41.5c0.2-1.1,1.6-1.4,1.6-1.4l28.2,8.9c0,0,0.3,0.2,0.3,0.3c0,0.1-0.5,0-0.5,0l-28.8-5.7
						C87.3,43.6,86.3,42.6,86.5,41.5z"/>
					<path fill="#03426D" d="M86.5,41.5c0.2-1.1,1.6-1.4,1.6-1.4l28.2,8.9c0,0,0.3,0.2,0.3,0.3c0,0.1-0.5,0-0.5,0l-28.8-5.7
						C87.3,43.6,86.3,42.6,86.5,41.5z"/>
					<path fill="#03426D" d="M86.5,41.4c0.2-1.1,1.6-1.4,1.6-1.4l28.2,8.9c0,0,0.3,0.2,0.3,0.3c0,0.1-0.5,0-0.5,0l-28.8-5.7
						C87.3,43.6,86.3,42.6,86.5,41.4z"/>
					<path fill="#03426D" d="M86.6,41.4c0.2-1.1,1.6-1.4,1.6-1.4l28.2,8.9c0,0,0.3,0.2,0.3,0.3c0,0.1-0.5,0-0.5,0l-28.8-5.7
						C87.3,43.6,86.4,42.6,86.6,41.4z"/>
				</g>
				<g>
					<path fill="#03426D" d="M82.6,38.2c-1,0.5-2-0.5-2-0.5L72.5,9.2c0,0,0-0.4,0-0.4c0.1,0,0.3,0.4,0.3,0.4L84,36.3
						C84,36.3,83.7,37.7,82.6,38.2z"/>
					<path fill="#03426D" d="M82.6,38.2c-1,0.5-2-0.5-2-0.5L72.5,9.2c0,0,0-0.4,0-0.4c0.1,0,0.3,0.4,0.3,0.4L84,36.3
						C84,36.3,83.7,37.7,82.6,38.2z"/>
					<path fill="#03426D" d="M82.7,38.2c-1,0.5-2-0.5-2-0.5L72.5,9.2c0,0,0-0.4,0-0.4c0.1,0,0.3,0.4,0.3,0.4L84,36.3
						C84,36.3,83.7,37.7,82.7,38.2z"/>
					<path fill="#03426D" d="M82.7,38.1c-1,0.5-2-0.5-2-0.5L72.5,9.2c0,0,0-0.4,0-0.4c0.1,0,0.3,0.4,0.3,0.4L84,36.3
						C84,36.3,83.7,37.7,82.7,38.1z"/>
					<path fill="#03426D" d="M82.7,38.1c-1,0.5-2-0.5-2-0.5L72.5,9.2c0,0,0-0.4,0-0.4c0.1,0,0.3,0.4,0.3,0.4L84,36.3
						C84,36.3,83.7,37.7,82.7,38.1z"/>
					<path fill="#03426D" d="M82.7,38.1c-1,0.5-2-0.5-2-0.5L72.6,9.2c0,0,0-0.4,0-0.4c0.1,0,0.3,0.4,0.3,0.4L84,36.3
						C84,36.3,83.7,37.7,82.7,38.1z"/>
					<path fill="#03426D" d="M82.7,38.1c-1,0.5-2-0.5-2-0.5L72.6,9.2c0,0,0-0.4,0-0.4c0.1,0,0.3,0.4,0.3,0.4L84,36.3
						C84,36.3,83.8,37.7,82.7,38.1z"/>
					<path fill="#03426D" d="M82.7,38.1c-1,0.5-2-0.5-2-0.5L72.6,9.2c0,0,0-0.4,0-0.4c0.1,0,0.3,0.4,0.3,0.4l11.1,27.2
						C84.1,36.3,83.8,37.7,82.7,38.1z"/>
					<path fill="#03426D" d="M82.8,38.1c-1,0.5-2-0.5-2-0.5L72.6,9.2c0,0,0-0.4,0-0.4c0.1,0,0.3,0.4,0.3,0.4l11.1,27.2
						C84.1,36.3,83.8,37.7,82.8,38.1z"/>
					<path fill="#03426D" d="M82.8,38.1c-1,0.5-2-0.5-2-0.5L72.6,9.2c0,0,0-0.4,0-0.4c0.1,0,0.3,0.4,0.3,0.4l11.1,27.2
						C84.1,36.3,83.8,37.7,82.8,38.1z"/>
					<path fill="#03426D" d="M82.8,38.1c-1,0.5-2-0.5-2-0.5L72.6,9.2c0,0,0-0.4,0-0.4c0.1,0,0.3,0.4,0.3,0.4l11.1,27.2
						C84.1,36.3,83.8,37.7,82.8,38.1z"/>
					<path fill="#03426D" d="M82.8,38.1c-1,0.5-2-0.5-2-0.5L72.6,9.2c0,0,0-0.4,0-0.4c0.1,0,0.3,0.4,0.3,0.4l11.1,27.2
						C84.1,36.3,83.8,37.6,82.8,38.1z"/>
					<path fill="#03426D" d="M82.8,38.1c-1,0.5-2-0.5-2-0.5L72.7,9.1c0,0,0-0.4,0-0.4c0.1,0,0.3,0.4,0.3,0.4l11.1,27.2
						C84.1,36.3,83.9,37.6,82.8,38.1z"/>
					<path fill="#03426D" d="M82.8,38.1c-1,0.5-2-0.5-2-0.5L72.7,9.1c0,0,0-0.4,0-0.4c0.1,0,0.3,0.4,0.3,0.4l11.1,27.2
						C84.2,36.3,83.9,37.6,82.8,38.1z"/>
					<path fill="#03426D" d="M82.9,38.1c-1,0.5-2-0.5-2-0.5L72.7,9.1c0,0,0-0.4,0-0.4c0.1,0,0.3,0.4,0.3,0.4l11.1,27.2
						C84.2,36.3,83.9,37.6,82.9,38.1z"/>
					<path fill="#03426D" d="M82.9,38.1c-1,0.5-2-0.5-2-0.5L72.7,9.1c0,0,0-0.4,0-0.4c0.1,0,0.3,0.4,0.3,0.4l11.1,27.2
						C84.2,36.3,83.9,37.6,82.9,38.1z"/>
					<path fill="#03426D" d="M82.9,38.1c-1,0.5-2-0.5-2-0.5L72.7,9.1c0,0,0-0.4,0-0.4c0.1,0,0.3,0.4,0.3,0.4l11.1,27.2
						C84.2,36.3,83.9,37.6,82.9,38.1z"/>
				</g>
				<line fill="#03426D" x1="79.6" y1="43.2" x2="62.6" y2="67.4"/>
				<path fill="#03426D" d="M82,43.3c-0.8-0.8-2.1-0.2-2.1-0.2l-17,24.2c0,0-0.2,0.3-0.1,0.4c0.1,0.1,0.4-0.3,0.4-0.3l19.5-22
					C82.6,45.5,82.8,44.1,82,43.3z"/>
				<path fill="#03426D" d="M82.3,90.4c-1.3,0-2.3-0.7-2.3-0.7l2.6-45.2h1.7l0.5,45.2C84.7,89.8,83.6,90.4,82.3,90.4z"/>
				<circle fill="#03426D" cx="83.5" cy="41.1" r="4"/>
			</g>
			<g clip-path="url(#SVGID_2_)">
				<path fill="#5BB0D3" d="M73.6,50c0.7,0,1.2-0.3,1.2-0.3L73.5,27h-0.8l-0.2,22.6C72.4,49.7,73,50,73.6,50z"/>
				<g>
					<path fill="#5BB0D3" d="M72.4,27l0,0.5c0.2,0,0.3,0.1,0.5,0.1c0.2,0,0.4,0,0.6-0.1l0-0.5H72.4z"/>
				</g>
				<g>
					<path fill="#5BB0D3" d="M72,24.3c0.4-0.4,0.1-1,0.1-1l-11.7-9.1c0,0-0.2-0.1-0.2-0.1c0,0,0.1,0.2,0.1,0.2l10.5,10.2
						C70.9,24.6,71.6,24.7,72,24.3z"/>
					<path fill="#5BB0D3" d="M72,24.2c0.4-0.4,0.1-1,0.1-1l-11.7-9.1c0,0-0.2-0.1-0.2-0.1c0,0,0.1,0.2,0.1,0.2l10.5,10.2
						C70.9,24.5,71.6,24.6,72,24.2z"/>
					<path fill="#5BB0D3" d="M87,21.1l-12.2,2.7c0,0-0.5,0.5-0.4,1.1c0.1,0.6,0.8,0.7,0.8,0.7l11.8-4V21.1z"/>
					<path fill="#5BB0D3" d="M87,21l-12.2,2.7c0,0-0.5,0.5-0.4,1.1c0.1,0.6,0.8,0.7,0.8,0.7l11.8-4V21z"/>
					<path fill="#5BB0D3" d="M72.5,26.8c0.6,0.1,0.7,0.8,0.7,0.8l-5.1,13.9c0,0-0.1,0.2-0.1,0.1c0,0,0-0.2,0-0.2l3.5-14.3
						C71.5,27.1,72,26.6,72.5,26.8z"/>
					<path fill="#5BB0D3" d="M72.5,26.6c0.6,0.1,0.7,0.8,0.7,0.8l-5.1,13.9c0,0-0.1,0.2-0.1,0.1c0,0,0-0.2,0-0.2L71.4,27
						C71.4,27,71.9,26.5,72.5,26.6z"/>
				</g>
				<circle fill="#5BB0D3" cx="73" cy="25.4" r="2"/>
				<circle fill="#5BB0D3" cx="73.4" cy="25.5" r="0.4"/>
			</g>
			<g clip-path="url(#SVGID_2_)">
				<path fill="#5BB0D3" d="M80.8,91.8c0.7,0,1.3-0.4,1.3-0.4l-1.4-24.7h-0.9l-0.3,24.8C79.5,91.5,80.1,91.9,80.8,91.8z"/>
				<g>
					<path fill="#5BB0D3" d="M80.1,63.3c0.6,0,0.9-0.7,0.9-0.7l-1.8-16.3c0,0-0.1-0.2-0.1-0.2c-0.1,0-0.1,0.3-0.1,0.3l0,16.3
						C79,62.6,79.4,63.3,80.1,63.3z"/>
					<path fill="#5BB0D3" d="M80.1,63.3c0.6,0,0.9-0.7,0.9-0.7l-1.8-16.3c0,0-0.1-0.2-0.1-0.2c-0.1,0-0.1,0.3-0.1,0.3l0,16.3
						C79,62.6,79.4,63.3,80.1,63.3z"/>
					<path fill="#5BB0D3" d="M80.1,63.3c0.6,0,0.9-0.7,0.9-0.7l-1.8-16.3c0,0-0.1-0.2-0.1-0.2c-0.1,0-0.1,0.3-0.1,0.3l0,16.3
						C79,62.6,79.4,63.3,80.1,63.3z"/>
					<path fill="#5BB0D3" d="M80.1,63.3c0.6,0,0.9-0.7,0.9-0.7l-1.8-16.3c0,0-0.1-0.2-0.1-0.2c-0.1,0-0.1,0.3-0.1,0.3l0,16.3
						C79,62.6,79.4,63.3,80.1,63.3z"/>
					<path fill="#5BB0D3" d="M80.1,63.3c0.6,0,0.9-0.7,0.9-0.7l-1.8-16.3c0,0-0.1-0.2-0.1-0.2c-0.1,0-0.1,0.3-0.1,0.3l0,16.3
						C79,62.6,79.5,63.2,80.1,63.3z"/>
					<path fill="#5BB0D3" d="M80.1,63.3c0.6,0,0.9-0.7,0.9-0.7l-1.8-16.3c0,0-0.1-0.2-0.1-0.2c-0.1,0-0.1,0.3-0.1,0.3l0,16.3
						C79,62.6,79.5,63.2,80.1,63.3z"/>
					<path fill="#5BB0D3" d="M80.1,63.2c0.6,0,0.9-0.7,0.9-0.7l-1.8-16.3c0,0-0.1-0.2-0.1-0.2c-0.1,0-0.1,0.3-0.1,0.3l0,16.3
						C79,62.6,79.5,63.2,80.1,63.2z"/>
					<path fill="#5BB0D3" d="M80.1,63.2c0.6,0,0.9-0.7,0.9-0.7l-1.8-16.3c0,0-0.1-0.2-0.1-0.2c-0.1,0-0.1,0.3-0.1,0.3l0,16.3
						C79,62.6,79.5,63.2,80.1,63.2z"/>
					<path fill="#5BB0D3" d="M80.1,63.2c0.6,0,0.9-0.7,0.9-0.7l-1.8-16.3c0,0-0.1-0.2-0.1-0.2c-0.1,0-0.1,0.3-0.1,0.3l0,16.3
						C79,62.6,79.5,63.2,80.1,63.2z"/>
					<path fill="#5BB0D3" d="M80.1,63.2c0.6,0,0.9-0.7,0.9-0.7l-1.8-16.3c0,0-0.1-0.2-0.1-0.2c-0.1,0-0.1,0.3-0.1,0.3l0,16.3
						C79,62.6,79.5,63.2,80.1,63.2z"/>
					<path fill="#5BB0D3" d="M80.1,63.2c0.6,0,0.9-0.7,0.9-0.7l-1.8-16.3c0,0-0.1-0.2-0.1-0.2c-0.1,0-0.1,0.3-0.1,0.3l0,16.3
						C79,62.6,79.5,63.2,80.1,63.2z"/>
					<path fill="#5BB0D3" d="M80.1,63.2c0.6,0,0.9-0.7,0.9-0.7l-1.8-16.3c0,0-0.1-0.2-0.1-0.2c-0.1,0-0.1,0.3-0.1,0.3l0,16.3
						C79,62.5,79.5,63.2,80.1,63.2z"/>
					<path fill="#5BB0D3" d="M80.1,63.2c0.6,0,0.9-0.7,0.9-0.7l-1.8-16.3c0,0-0.1-0.2-0.1-0.2c-0.1,0-0.1,0.3-0.1,0.3l0,16.3
						C79.1,62.5,79.5,63.2,80.1,63.2z"/>
					<path fill="#5BB0D3" d="M80.1,63.2c0.6,0,0.9-0.7,0.9-0.7l-1.8-16.3c0,0-0.1-0.2-0.1-0.2c-0.1,0-0.1,0.3-0.1,0.3l0,16.3
						C79.1,62.5,79.5,63.2,80.1,63.2z"/>
					<path fill="#5BB0D3" d="M80.1,63.2c0.6,0,0.9-0.7,0.9-0.7l-1.8-16.3c0,0-0.1-0.2-0.1-0.2c-0.1,0-0.1,0.3-0.1,0.3l0,16.3
						C79.1,62.5,79.5,63.2,80.1,63.2z"/>
					<path fill="#5BB0D3" d="M80.1,63.2c0.6,0,0.9-0.7,0.9-0.7l-1.8-16.3c0,0-0.1-0.2-0.1-0.2c-0.1,0-0.1,0.3-0.1,0.3l0,16.3
						C79.1,62.5,79.5,63.2,80.1,63.2z"/>
					<path fill="#5BB0D3" d="M80.1,63.2c0.6,0,0.9-0.7,0.9-0.7l-1.8-16.3c0,0-0.1-0.2-0.1-0.2c-0.1,0-0.1,0.3-0.1,0.3l0,16.3
						C79.1,62.5,79.5,63.1,80.1,63.2z"/>
				</g>
				<g>
					<path fill="#5BB0D3" d="M81.5,65.6c-0.4,0.5,0.1,1.2,0.1,1.2l14.6,7.5c0,0,0.2,0.1,0.2,0c0-0.1-0.2-0.2-0.2-0.2l-13.6-9
						C82.6,65.1,81.9,65.1,81.5,65.6z"/>
					<path fill="#5BB0D3" d="M81.5,65.6c-0.4,0.5,0.1,1.2,0.1,1.2l14.6,7.5c0,0,0.2,0.1,0.2,0c0-0.1-0.2-0.2-0.2-0.2l-13.6-9
						C82.6,65.1,81.9,65.1,81.5,65.6z"/>
					<path fill="#5BB0D3" d="M81.5,65.6c-0.4,0.5,0.1,1.2,0.1,1.2l14.6,7.5c0,0,0.2,0.1,0.2,0c0-0.1-0.2-0.2-0.2-0.2l-13.6-9
						C82.6,65.1,81.9,65.1,81.5,65.6z"/>
					<path fill="#5BB0D3" d="M81.5,65.6c-0.4,0.5,0.1,1.2,0.1,1.2l14.6,7.5c0,0,0.2,0.1,0.2,0c0-0.1-0.2-0.2-0.2-0.2l-13.6-9
						C82.6,65.1,81.9,65.1,81.5,65.6z"/>
					<path fill="#5BB0D3" d="M81.5,65.6c-0.4,0.5,0.1,1.2,0.1,1.2l14.6,7.5c0,0,0.2,0.1,0.2,0c0-0.1-0.2-0.2-0.2-0.2l-13.6-9
						C82.6,65.1,81.9,65.1,81.5,65.6z"/>
					<path fill="#5BB0D3" d="M81.5,65.6c-0.4,0.5,0.1,1.2,0.1,1.2l14.6,7.5c0,0,0.2,0.1,0.2,0c0-0.1-0.2-0.2-0.2-0.2l-13.6-9
						C82.6,65.1,81.9,65.1,81.5,65.6z"/>
					<path fill="#5BB0D3" d="M81.5,65.6c-0.4,0.5,0.1,1.2,0.1,1.2l14.6,7.5c0,0,0.2,0.1,0.2,0c0-0.1-0.2-0.2-0.2-0.2l-13.6-9
						C82.7,65.1,81.9,65.1,81.5,65.6z"/>
					<path fill="#5BB0D3" d="M81.5,65.6c-0.4,0.5,0.1,1.2,0.1,1.2l14.6,7.5c0,0,0.2,0.1,0.2,0c0-0.1-0.2-0.2-0.2-0.2l-13.6-9
						C82.7,65.1,81.9,65.1,81.5,65.6z"/>
					<path fill="#5BB0D3" d="M81.5,65.6c-0.4,0.5,0.1,1.2,0.1,1.2l14.6,7.5c0,0,0.2,0.1,0.2,0c0-0.1-0.2-0.2-0.2-0.2l-13.6-9
						C82.7,65.1,81.9,65.1,81.5,65.6z"/>
					<path fill="#5BB0D3" d="M81.5,65.6c-0.4,0.5,0.1,1.2,0.1,1.2l14.6,7.5c0,0,0.2,0.1,0.2,0c0-0.1-0.2-0.2-0.2-0.2l-13.6-9
						C82.7,65,81.9,65.1,81.5,65.6z"/>
					<path fill="#5BB0D3" d="M81.5,65.6c-0.4,0.5,0.1,1.2,0.1,1.2l14.6,7.5c0,0,0.2,0.1,0.2,0c0-0.1-0.2-0.2-0.2-0.2l-13.6-9
						C82.7,65,81.9,65,81.5,65.6z"/>
					<path fill="#5BB0D3" d="M81.5,65.6c-0.4,0.5,0.1,1.2,0.1,1.2l14.6,7.5c0,0,0.2,0.1,0.2,0c0-0.1-0.2-0.2-0.2-0.2l-13.6-9
						C82.7,65,81.9,65,81.5,65.6z"/>
					<path fill="#5BB0D3" d="M81.5,65.5c-0.4,0.5,0.1,1.2,0.1,1.2l14.6,7.5c0,0,0.2,0.1,0.2,0c0-0.1-0.2-0.2-0.2-0.2l-13.6-9
						C82.7,65,81.9,65,81.5,65.5z"/>
					<path fill="#5BB0D3" d="M81.6,65.5c-0.4,0.5,0.1,1.2,0.1,1.2l14.6,7.5c0,0,0.2,0.1,0.2,0c0-0.1-0.2-0.2-0.2-0.2l-13.6-9
						C82.7,65,81.9,65,81.6,65.5z"/>
					<path fill="#5BB0D3" d="M81.6,65.5c-0.4,0.5,0.1,1.2,0.1,1.2l14.6,7.5c0,0,0.2,0.1,0.2,0c0-0.1-0.2-0.2-0.2-0.2l-13.6-9
						C82.7,65,81.9,65,81.6,65.5z"/>
					<path fill="#5BB0D3" d="M81.6,65.5c-0.4,0.5,0.1,1.2,0.1,1.2l14.6,7.5c0,0,0.2,0.1,0.2,0c0-0.1-0.2-0.2-0.2-0.2l-13.6-9
						C82.7,65,81.9,65,81.6,65.5z"/>
					<path fill="#5BB0D3" d="M81.6,65.5c-0.4,0.5,0.1,1.2,0.1,1.2l14.6,7.5c0,0,0.2,0.1,0.2,0c0-0.1-0.2-0.2-0.2-0.2l-13.6-9
						C82.7,65,81.9,65,81.6,65.5z"/>
				</g>
				<g>
					<path fill="#5BB0D3" d="M78.5,65.6c0.3,0.5-0.1,1.2-0.1,1.2l-15,6.7c0,0-0.2,0.1-0.2,0c0-0.1,0.2-0.2,0.2-0.2l14-8.2
						C77.4,65,78.2,65,78.5,65.6z"/>
					<path fill="#5BB0D3" d="M78.5,65.6c0.3,0.5-0.1,1.2-0.1,1.2l-15,6.7c0,0-0.2,0.1-0.2,0c0-0.1,0.2-0.2,0.2-0.2l14-8.2
						C77.4,65,78.2,65,78.5,65.6z"/>
					<path fill="#5BB0D3" d="M78.6,65.6c0.3,0.5-0.1,1.2-0.1,1.2l-15,6.7c0,0-0.2,0.1-0.2,0c0-0.1,0.2-0.2,0.2-0.2l14-8.2
						C77.4,65,78.2,65,78.6,65.6z"/>
					<path fill="#5BB0D3" d="M78.6,65.6c0.3,0.5-0.1,1.2-0.1,1.2l-15,6.7c0,0-0.2,0.1-0.2,0c0-0.1,0.2-0.2,0.2-0.2l14-8.2
						C77.5,65,78.2,65,78.6,65.6z"/>
					<path fill="#5BB0D3" d="M78.6,65.5c0.3,0.5-0.1,1.2-0.1,1.2l-15,6.7c0,0-0.2,0.1-0.2,0c0-0.1,0.2-0.2,0.2-0.2l14-8.2
						C77.5,65,78.2,65,78.6,65.5z"/>
					<path fill="#5BB0D3" d="M78.6,65.5c0.3,0.5-0.1,1.2-0.1,1.2l-15,6.7c0,0-0.2,0.1-0.2,0c0-0.1,0.2-0.2,0.2-0.2l14-8.2
						C77.5,65,78.2,65,78.6,65.5z"/>
					<path fill="#5BB0D3" d="M78.6,65.5c0.3,0.5-0.1,1.2-0.1,1.2l-15,6.7c0,0-0.2,0.1-0.2,0c0-0.1,0.2-0.2,0.2-0.2l14-8.2
						C77.5,64.9,78.2,65,78.6,65.5z"/>
					<path fill="#5BB0D3" d="M78.6,65.5c0.3,0.5-0.1,1.2-0.1,1.2l-15,6.7c0,0-0.2,0.1-0.2,0c0-0.1,0.2-0.2,0.2-0.2l14-8.2
						C77.5,64.9,78.2,65,78.6,65.5z"/>
					<path fill="#5BB0D3" d="M78.6,65.5c0.3,0.5-0.1,1.2-0.1,1.2l-15,6.7c0,0-0.2,0.1-0.2,0c0-0.1,0.2-0.2,0.2-0.2l14-8.2
						C77.5,64.9,78.2,65,78.6,65.5z"/>
					<path fill="#5BB0D3" d="M78.6,65.5c0.3,0.5-0.1,1.2-0.1,1.2l-15,6.7c0,0-0.2,0.1-0.2,0c0-0.1,0.2-0.2,0.2-0.2l14-8.2
						C77.5,64.9,78.3,65,78.6,65.5z"/>
					<path fill="#5BB0D3" d="M78.6,65.5c0.3,0.5-0.1,1.2-0.1,1.2l-15,6.7c0,0-0.2,0.1-0.2,0c0-0.1,0.2-0.2,0.2-0.2l14-8.2
						C77.5,64.9,78.3,65,78.6,65.5z"/>
					<path fill="#5BB0D3" d="M78.6,65.5c0.3,0.5-0.1,1.2-0.1,1.2l-15,6.7c0,0-0.2,0.1-0.2,0c0-0.1,0.2-0.2,0.2-0.2l14-8.2
						C77.5,64.9,78.3,65,78.6,65.5z"/>
					<path fill="#5BB0D3" d="M78.6,65.5c0.3,0.5-0.1,1.2-0.1,1.2l-15,6.7c0,0-0.2,0.1-0.2,0c0-0.1,0.2-0.2,0.2-0.2l14-8.2
						C77.5,64.9,78.3,64.9,78.6,65.5z"/>
					<path fill="#5BB0D3" d="M78.6,65.5c0.3,0.5-0.1,1.2-0.1,1.2l-15,6.7c0,0-0.2,0.1-0.2,0c0-0.1,0.2-0.2,0.2-0.2l14-8.2
						C77.5,64.9,78.3,64.9,78.6,65.5z"/>
					<path fill="#5BB0D3" d="M78.6,65.5c0.3,0.5-0.1,1.2-0.1,1.2l-15,6.7c0,0-0.2,0.1-0.2,0c0-0.1,0.2-0.2,0.2-0.2l14-8.2
						C77.5,64.9,78.3,64.9,78.6,65.5z"/>
					<path fill="#5BB0D3" d="M78.6,65.5c0.3,0.5-0.1,1.2-0.1,1.2l-15,6.7c0,0-0.2,0.1-0.2,0c0-0.1,0.2-0.2,0.2-0.2l14-8.2
						C77.5,64.9,78.3,64.9,78.6,65.5z"/>
					<path fill="#5BB0D3" d="M78.6,65.4c0.3,0.5-0.1,1.2-0.1,1.2l-15,6.7c0,0-0.2,0.1-0.2,0c0-0.1,0.2-0.2,0.2-0.2l14-8.2
						C77.5,64.9,78.3,64.9,78.6,65.4z"/>
				</g>
				<g>
					<path fill="#5BB0D3" d="M79.7,66.8l0,0.4c0.1,0,0.3,0,0.4,0c0.2,0,0.4,0,0.5-0.1l0-0.4H79.7z"/>
				</g>
				<g>
					<circle fill="#5BB0D3" cx="80.1" cy="64.9" r="2.2"/>
					<circle fill="#5BB0D3" cx="80.1" cy="64.9" r="2.1"/>
					<circle fill="#5BB0D3" cx="80.2" cy="64.9" r="2"/>
					<circle fill="#5BB0D3" cx="80.2" cy="64.9" r="1.9"/>
					<circle fill="#5BB0D3" cx="80.2" cy="64.9" r="1.7"/>
					<circle fill="#5BB0D3" cx="80.2" cy="64.9" r="1.6"/>
					<circle fill="#5BB0D3" cx="80.3" cy="64.9" r="1.5"/>
					<circle fill="#5BB0D3" cx="80.3" cy="64.9" r="1.4"/>
					<circle fill="#5BB0D3" cx="80.3" cy="65" r="1.3"/>
					<circle fill="#5BB0D3" cx="80.3" cy="65" r="1.2"/>
					<circle fill="#5BB0D3" cx="80.3" cy="65" r="1.1"/>
					<circle fill="#5BB0D3" cx="80.4" cy="65" r="1"/>
					<circle fill="#5BB0D3" cx="80.4" cy="65" r="0.9"/>
					<circle fill="#5BB0D3" cx="80.4" cy="65" r="0.7"/>
					<circle fill="#5BB0D3" cx="80.4" cy="65" r="0.6"/>
					<circle fill="#5BB0D3" cx="80.5" cy="65" r="0.5"/>
					<circle fill="#5BB0D3" cx="80.5" cy="65" r="0.4"/>
				</g>
			</g>
			<path id="Oil_derrick_3_" clip-path="url(#SVGID_2_)" fill="#FFFFFF" d="M103,84.9v-7.7h-3.2V66.1l3.3,1.1l0.9-2.7l-28.6-9.5
				l0.7-9.3l-2.2-0.9c-8.6,8.1-6.9,18.6-5.9,22.6l0.2,0.1v17.4H63v2.8h45.4v-2.8H103z M99.4,77.2h-3.2v7.7h-4.7l-3.7-21h-0.4v-1.2
				c0-0.2,0-0.5-0.1-0.7l12.1,4V77.2z M82.9,74.2l4.9-4h0.1l0.7,4H82.9z M88.7,75.1l0.7,4l-6.5-4H88.7z M87.7,69.1l-3.3-4.2h2.6
				L87.7,69.1z M84,64.9L84,64.9L84,64.9L84,64.9z M84,65.1l3.4,4.3h-4.1L84,65.1z M87.1,70.3l-4.8,3.8l0.7-3.8H87.1z M89.1,79.4
				h-7.7l0.8-4.3L89.1,79.4z M89.7,80.3l0.8,4.4h-9.6L89.7,80.3z M88.8,80.3l-8.2,4.1l0.7-4.1H88.8z M68.5,67.6l0.2,0.1l5.5-10
				l9.8,3.2c-0.3,0.4-0.5,1.1-0.5,1.8v1.2h-0.4l-3.7,21H68.5V67.6z"/>
		</g>
		<g id="Red_Loco_3_">
			<defs>
				<polygon id="SVGID_3_" points="62.1,0 31.2,6.9 31.2,90 62.1,90 				"/>
			</defs>
			<clipPath id="SVGID_4_">
				<use xlink:href="#SVGID_3_"  overflow="visible"/>
			</clipPath>
			<polygon clip-path="url(#SVGID_4_)" fill="#C6302B" points="62.1,0 31.2,6.9 31.2,90 62.1,90 			"/>
			<path display="none" clip-path="url(#SVGID_4_)" fill="#FF8888" d="M60.3,21c0,0-15,6.2-14.8,11.2c0.1,4,20.3,6.2,20.3,6.2
				s-14.7-3.4-14.7-7.2C51.1,26.3,60.3,21,60.3,21z"/>
			<path clip-path="url(#SVGID_4_)" fill="#B5221E" d="M97.8-4.6l0.1-0.9c0,0-112.6,37.9-80,46.6l14.1,0.1c0,0-11.2-0.4-12.6-4.9
				L40.9,39c1.1,0.7,2.5,1.4,4.3,2l22.1,0.1c0,0-70.4-1.2,30.4-36.6l0.1-1.3c0,0-1.7,0.6-4.5,1.5L77.6,2.9c2.2-0.8,4.5-1.7,6.9-2.6
				l13.4,2.2V0.9L86.4-0.4c1.8-0.7,3.7-1.4,5.6-2.1l5.8,0.9v-1.7l-2.9-0.3C95.8-3.9,96.8-4.2,97.8-4.6z M38.6,36.4l-18.8-3
				c0.7-1.5,2.3-3.2,5-5.3L40,31.2C38.5,33.1,38,34.8,38.6,36.4z M42.4,28.7l-14.6-2.8c1.9-1.3,4.3-2.7,7-4.2l12.5,3.4
				C45.4,26.3,43.8,27.5,42.4,28.7z M50,23.5l-12.8-3c1.9-1,4-2,6.3-3.1l11.8,3.3C53.4,21.5,51.6,22.5,50,23.5z M58.4,18.9
				l-12.5-2.8c1.8-0.9,3.8-1.7,5.8-2.7L63,16.8C61.5,17.5,59.9,18.2,58.4,18.9z M66.7,15.1l-12.3-2.8c1.8-0.8,3.7-1.6,5.7-2.4
				l11.8,3C70.1,13.6,68.4,14.4,66.7,15.1z M75.9,11.3l-13-2.6c1.7-0.7,3.4-1.4,5.2-2.1L82,8.9C80.1,9.6,78,10.4,75.9,11.3z M89.9,6
				c-1.5,0.5-3.1,1.1-4.9,1.8L69.9,5.9c1.8-0.7,3.7-1.5,5.7-2.2L89.9,6z"/>
			<g id="Loco_3_" clip-path="url(#SVGID_4_)">
				<polygon fill="#C6302B" points="43.8,36.1 40.9,23.5 43.7,20.8 43.7,20.2 49.6,20.2 49.5,20.8 52.6,23.5 49.6,36 				"/>
				<circle fill="#C6302B" cx="46.7" cy="38.1" r="3.4"/>
				<path id="Hide_Track_3_" fill="#C6302B" d="M37.9,47.6c0,4.7,4,8.6,8.8,8.6c4.9,0,8.8-3.8,8.8-8.6c0-4.7-4-8.6-8.8-8.6
					C41.9,39.1,37.9,42.9,37.9,47.6z"/>
				<path id="Smoke_3_" fill="#FFFFFF" d="M45,20.2c0,0-2.2-3.9,2.4-4.6c-0.9-0.6-4.6-5.2,1.2-7.8C48-2.3,61,0.6,58.5,8.7
					c1.3,6.6-3.4,6.7-4.2,6.1c0.6,5.5-4.6,4.5-4.6,4.5l-0.9,0.9H45z"/>
				<path id="_x3C_Path_x3E__3_" fill="#FFFFFF" d="M58.5,67.9l-5.6,0.4v-2H40.4v1.9L35,67.9c0,0-6.9,8.9-6.9,10.9
					c0,2,15,10.9,16.3,11.7c1.3,0.7,2.4,0.7,2.4,0.7c0.2,0,1.2-0.1,2.3-0.7c1.3-0.7,16.3-9.7,16.3-11.7
					C65.4,76.8,58.5,67.9,58.5,67.9z M29.9,78.9c-1.8-1.1,4.9-10,6.2-9.2C37.3,70.4,31.8,80.1,29.9,78.9z M33.8,81.8
					c-1.9-1,4.4-10.2,5.7-9.5C40.8,73,35.9,82.9,33.8,81.8z M39,85.4c-2-0.7,2.8-10.7,4.2-10.2C44.5,75.7,41.1,86.2,39,85.4z
					 M46.8,89.1c-2.7,0-1.7-12.8,0-12.8C48.5,76.4,49.2,89.1,46.8,89.1z M54.6,85.4c-2.1,0.8-5.5-9.7-4.2-10.2
					C51.9,74.7,56.6,84.7,54.6,85.4z M59.7,81.8c-2,1.1-6.9-8.8-5.7-9.5C55.3,71.6,61.6,80.8,59.7,81.8z M63.7,78.9
					c-1.9,1.2-7.4-8.5-6.2-9.2C58.8,68.9,65.5,77.8,63.7,78.9z"/>
				<polygon fill="#FFFFFF" points="44.1,20.8 44.1,20.2 43.7,20.2 43.7,20.8 40.9,23.5 41.8,23.5 				"/>
				<polygon fill="#FFFFFF" points="49.5,20.8 49.5,20.2 45,20.2 45,20.8 44.1,23.5 52.6,23.5 				"/>
				<path fill="#FFFFFF" d="M39.5,47.6c0,3.8,3.2,7,7.2,7c4,0,7.2-3.1,7.2-7c0-3.8-3.2-7-7.2-7C42.8,40.7,39.5,43.8,39.5,47.6z"/>
				<path fill="#C6302B" d="M41.7,47.6c0,2.7,2.3,4.9,5,4.9c2.8,0,5-2.2,5-4.9c0-2.7-2.3-4.9-5-4.9C44,42.8,41.7,45,41.7,47.6z"/>
				<path display="none" fill="#FFFFFF" d="M44.2,47.6c0,1.3,1.1,2.4,2.5,2.4c1.4,0,2.5-1.1,2.5-2.4c0-1.3-1.1-2.4-2.5-2.4
					C45.3,45.2,44.2,46.3,44.2,47.6z"/>
				<polygon display="none" fill-rule="evenodd" clip-rule="evenodd" fill="#C6302B" points="44.2,44.8 41.9,44.8 42.8,45.9 
					42.8,48.3 42.3,48.8 42.3,50.7 44.2,50.7 44.7,50.1 46,50.1 46.8,51.1 47.5,50.1 48.9,50.1 49.3,50.8 51.2,50.8 51.2,48.9 
					50.7,48.3 50.7,45.9 51.6,44.8 49.3,44.8 49.1,44.8 49,44.7 48.8,44.6 48.7,44.6 48.5,44.5 48.3,44.5 48.2,44.4 48,44.4 
					47.9,44.3 47.7,44.3 47.6,44.3 47.4,44.2 47.2,44.2 47.1,44.2 46.9,44.2 46.8,44.2 46.6,44.2 46.4,44.2 46.3,44.2 46.1,44.2 
					46,44.3 45.8,44.3 45.6,44.3 45.5,44.4 45.3,44.4 45.2,44.5 45,44.5 44.9,44.6 44.7,44.6 44.5,44.7 44.4,44.8 44.2,44.8 				"/>
				<path fill="#FFFFFF" d="M32.6,47.9v9.5h0v1.4h1V62h3.2v3.6h19.9V62h2.9v-3.3h0.9v-0.6v-0.7V48c0.2-0.1,0.3-0.2,0.3-0.4
					c0-0.2-0.2-0.5-0.5-0.5c-0.2,0-0.4,0.2-0.5,0.4l-1.4,0.7v-0.8l0.9,0c0,0-1-0.8-2.8-1.7c-0.7-3.4-3.2-6.1-6.5-7.3
					c0-0.2,0.1-0.4,0.1-0.6c0-0.7-0.2-1.4-0.6-1.9l2.8-11.7h-8.2l1.4,11.1c0.4-0.2,0.8-0.3,1.2-0.3c1.6,0,2.9,1.3,2.9,2.8
					c0,0.6-0.2,1.1-0.5,1.6c3.7,1,6.4,4.3,6.4,8.2c0,4.7-3.9,8.5-8.7,8.5c-4.8,0-8.7-3.8-8.7-8.5c0-3.9,2.7-7.2,6.4-8.2
					c-0.3-0.5-0.5-1-0.5-1.6c0-0.6,0.2-1.1,0.5-1.5l-0.1,0l-2.4-12.1h-0.8l2.7,11.8c-0.3,0.5-0.5,1.1-0.5,1.8c0,0.2,0,0.4,0.1,0.6
					c-3.2,1.1-5.7,3.8-6.4,7.1c-0.9,0.5-1.9,1.1-2.8,1.8l0.9,0v0.8l-1.8-0.9c0-0.2-0.2-0.3-0.4-0.3c-0.3,0-0.5,0.2-0.5,0.5
					C32.3,47.6,32.4,47.8,32.6,47.9z M58,55.7h-1.2v-5.8c0.1,0,0.2-0.2,0.3-0.3l0.9-0.5V55.7z M58.5,48.8l1.6-0.9c0,0,0.1,0,0.1,0
					v9.4h-1.7V48.8z M56.8,48.1H58v0.4L56.9,49c-0.1,0-0.1-0.1-0.2-0.1C56.7,48.7,56.8,48.4,56.8,48.1z M55,53.2
					c0.7-1,1.2-2.1,1.5-3.3v5.8H55V53.2z M54.7,53.6v2h-2.2C53.3,55.1,54,54.4,54.7,53.6z M38.7,53.5c0.6,0.8,1.4,1.5,2.3,2.1h-2.3
					V53.5z M37,50.2c0.3,1,0.8,2,1.4,2.8v2.6H37V50.2z M35.5,48.1h1.2c0,0.3,0.1,0.7,0.1,1c0,0,0,0,0,0l-1.2-0.6V48.1z M35.5,49.1
					l0.9,0.5c0,0.2,0.1,0.3,0.3,0.4v5.7h-1.2V49.1z M32.9,47.9c0,0,0.1,0,0.1-0.1l1.6,0.8l0.3,0.2v8.6h-2V47.9z"/>
				<g>
					<ellipse fill="#F48F89" cx="43.7" cy="54.8" rx="0.6" ry="0.6"/>
					<ellipse fill="#F48F89" cx="43.7" cy="40.5" rx="0.6" ry="0.6"/>
					<ellipse fill="#F48F89" cx="52.4" cy="53.1" rx="0.6" ry="0.6"/>
					<ellipse fill="#F48F89" cx="52.4" cy="42.2" rx="0.6" ry="0.6"/>
					<ellipse fill="#F48F89" cx="54.7" cy="47.6" rx="0.6" ry="0.6"/>
					<ellipse fill="#F48F89" cx="49.8" cy="40.5" rx="0.6" ry="0.6"/>
					<ellipse fill="#F48F89" cx="49.9" cy="54.7" rx="0.6" ry="0.6"/>
					<ellipse fill="#F48F89" cx="54.1" cy="44.7" rx="0.6" ry="0.6"/>
					<ellipse fill="#F48F89" cx="54.1" cy="50.5" rx="0.6" ry="0.6"/>
					<ellipse fill="#F48F89" cx="39.4" cy="50.6" rx="0.6" ry="0.6"/>
					<ellipse fill="#F48F89" cx="46.8" cy="55.4" rx="0.6" ry="0.6"/>
					<ellipse fill="#F48F89" cx="41" cy="53.1" rx="0.6" ry="0.6"/>
					<ellipse fill="#F48F89" cx="41.1" cy="42.2" rx="0.6" ry="0.6"/>
					<ellipse fill="#F48F89" cx="39.4" cy="44.7" rx="0.6" ry="0.6"/>
					<ellipse fill="#F48F89" cx="38.8" cy="47.6" rx="0.6" ry="0.6"/>
				</g>
			</g>
		</g>
		<g id="Green_Road_3_">
			<polygon fill="#6F6F00" points="28.1,19.2 0.4,24.3 0.4,90 28.1,90 			"/>
			<g>
				<defs>
					<polygon id="SVGID_5_" points="28.1,19.2 0.4,24.3 0.4,90 28.1,90 					"/>
				</defs>
				<clipPath id="SVGID_6_">
					<use xlink:href="#SVGID_5_"  overflow="visible"/>
				</clipPath>
				<g clip-path="url(#SVGID_6_)">
					<g>
						<g>
							<path fill="#595900" d="M26.7,25.8c1.8,1,5.6,2.7,9.9,2.7c3,0,5.8-0.8,8.3-2.4l5.1,4.8c-1.4,2.3-3.8,6.8-3.8,10.2
								c0,2.2,0.9,4.8,1.9,7.9c1.1,3.3,2.3,7.1,2.3,10.1c0,5.1-5.6,9.2-10.5,9.4l0,0l0,0c-2.7,0.2-6.1,0.9-9.2,1.9
								c-1.7,0.6-3,1.2-4,1.8c-1-0.6-2.3-1.2-4-1.8c-3-1-6.5-1.7-9.1-1.9l0,0l0,0c-2.6-0.2-5.3-1.3-7.4-3.1
								c-2.1-1.8-3.2-4.1-3.2-6.4c0-3.1,1.2-6.8,2.3-10.1c1-3.1,1.9-5.8,1.9-7.9c0-3.5-2.4-7.9-3.8-10.2l5.1-4.8
								c2.5,1.6,5.2,2.4,8.2,2.4C21.1,28.5,24.9,26.8,26.7,25.8 M45,23.5c-2.7,2.3-5.7,3-8.4,3c-5.4,0-9.9-3-9.9-3s-4.5,3-9.9,3
								c-2.7,0-5.7-0.8-8.4-3l-7.6,7.1c0,0,4.3,6.4,4.3,10.5c0,4.1-4.2,11.9-4.2,18.1c0,6.2,6.3,11,12.4,11.4
								c5.3,0.4,13.3,3,13.3,4.6c0-1.6,7.9-4.3,13.3-4.6c6.1-0.3,12.4-5.2,12.4-11.4c0-6.2-4.2-13.9-4.2-18.1
								c0-4.1,4.3-10.5,4.3-10.5L45,23.5L45,23.5z"/>
						</g>
					</g>
					<g>
						<path fill="#595900" d="M9.7,37.5v-7.9h3.2c0.5,0,0.8,0,1.1,0.1c0.2,0.1,0.5,0.1,0.6,0.3c0.2,0.2,0.4,0.4,0.6,0.7
							c0.1,0.3,0.2,0.6,0.2,1c0,0.5-0.1,1-0.4,1.3c-0.3,0.3-0.7,0.6-1.2,0.7c0.4,0,0.7,0.1,0.9,0.2c0.2,0.1,0.3,0.4,0.4,0.7
							c0,0.2,0.1,0.6,0.2,1.3c0.1,0.7,0.2,1.3,0.3,1.8h-1.7c-0.1-0.1-0.1-0.4-0.1-0.8c0-0.1,0-0.1,0-0.1l-0.1-1.1
							c0-0.4-0.1-0.7-0.3-0.8c-0.1-0.1-0.5-0.2-1-0.2h-1v3H9.7z M11.3,31.1v1.8h1c0.5,0,0.8-0.1,1-0.2c0.2-0.1,0.3-0.4,0.3-0.7
							c0-0.3-0.1-0.6-0.3-0.7c-0.2-0.1-0.5-0.2-1-0.2H11.3z"/>
						<path fill="#595900" d="M19.5,37.6c-1.1,0-1.9-0.4-2.5-1.1c-0.6-0.7-0.9-1.7-0.9-3.1c0-1.3,0.3-2.3,0.9-3
							c0.6-0.7,1.5-1.1,2.6-1.1c1.1,0,2,0.4,2.6,1.1c0.6,0.7,0.9,1.7,0.9,3.1c0,1.3-0.3,2.3-0.9,3C21.6,37.3,20.7,37.6,19.5,37.6z
							 M17.8,33.6c0,0.8,0.2,1.5,0.5,1.9c0.3,0.4,0.8,0.6,1.3,0.6c0.6,0,1.1-0.2,1.4-0.6c0.3-0.4,0.5-1,0.5-1.8c0-0.9-0.2-1.5-0.5-2
							c-0.3-0.5-0.8-0.7-1.4-0.7c-0.6,0-1,0.2-1.3,0.7C18,32.1,17.8,32.8,17.8,33.6z"/>
						<path fill="#595900" d="M24.1,29.6h1.7V34c0,0.6,0.1,1.1,0.3,1.4c0.2,0.3,0.6,0.5,1.1,0.5c0.5,0,0.9-0.2,1.1-0.5
							c0.2-0.3,0.4-0.8,0.4-1.4v-4.5h1.7V34c0,1.2-0.3,2.1-0.8,2.7c-0.5,0.6-1.3,0.9-2.4,0.9c-0.5,0-1-0.1-1.4-0.2
							c-0.4-0.1-0.7-0.4-1-0.6c-0.3-0.3-0.5-0.6-0.6-1.1c-0.1-0.4-0.2-1-0.2-1.7V29.6z"/>
						<path fill="#595900" d="M33.4,37.5v-6.2h-2.2v-1.7h6.1v1.7h-2.2v6.2H33.4z"/>
						<path fill="#595900" d="M38.1,37.5v-7.9h5v1.7h-3.4v1.4h3.2v1.6h-3.2v1.5h3.5v1.7H38.1z"/>
					</g>
					<rect x="5.8" y="39.3" fill="#595900" width="23.1" height="1.9"/>
					<g>
						<path fill="#595900" d="M24.5,50.6h-4.7c-0.1-0.7-0.3-1.2-0.7-1.6c-0.4-0.4-0.9-0.5-1.6-0.5c-1,0-1.7,0.4-2.3,1.3
							c-0.5,0.9-0.8,2.1-0.8,3.7c0,0.2,0,0.4,0,0.5c0,0.1,0,0.2,0,0.3c0.7-0.6,1.4-1.1,2.1-1.4c0.7-0.3,1.5-0.5,2.3-0.5
							c1.9,0,3.3,0.7,4.4,2c1.1,1.4,1.6,3.2,1.6,5.5c0,2.5-0.7,4.5-2,5.9c-1.3,1.4-3.2,2.1-5.5,2.1c-2.4,0-4.3-1-5.7-3
							c-1.3-2-2-4.8-2-8.4c0-4,0.7-7,2-8.9c1.3-2,3.4-3,6.1-3c2,0,3.5,0.5,4.6,1.5C23.6,47.1,24.3,48.6,24.5,50.6z M14.6,60.1
							c0,1.1,0.2,1.9,0.7,2.5c0.5,0.6,1.2,0.9,2.1,0.9c0.9,0,1.5-0.3,2-0.9c0.5-0.6,0.7-1.4,0.7-2.5c0-1.1-0.2-2-0.7-2.6
							c-0.5-0.6-1.1-1-2-1c-0.9,0-1.6,0.3-2.1,1C14.9,58.2,14.6,59,14.6,60.1z"/>
						<path fill="#595900" d="M41.1,50.6h-4.7c-0.1-0.7-0.3-1.2-0.7-1.6c-0.4-0.4-0.9-0.5-1.6-0.5c-1,0-1.7,0.4-2.3,1.3
							c-0.5,0.9-0.8,2.1-0.8,3.7c0,0.2,0,0.4,0,0.5c0,0.1,0,0.2,0,0.3c0.7-0.6,1.4-1.1,2.1-1.4c0.7-0.3,1.5-0.5,2.3-0.5
							c1.9,0,3.3,0.7,4.4,2c1.1,1.4,1.6,3.2,1.6,5.5c0,2.5-0.7,4.5-2,5.9c-1.3,1.4-3.2,2.1-5.5,2.1c-2.4,0-4.3-1-5.7-3
							c-1.3-2-2-4.8-2-8.4c0-4,0.7-7,2-8.9c1.3-2,3.4-3,6.1-3c2,0,3.5,0.5,4.6,1.5C40.3,47.1,40.9,48.6,41.1,50.6z M31.3,60.1
							c0,1.1,0.2,1.9,0.7,2.5c0.5,0.6,1.2,0.9,2.1,0.9c0.9,0,1.5-0.3,2-0.9c0.5-0.6,0.7-1.4,0.7-2.5c0-1.1-0.2-2-0.7-2.6
							c-0.5-0.6-1.1-1-2-1c-0.9,0-1.6,0.3-2.1,1C31.6,58.2,31.3,59,31.3,60.1z"/>
					</g>
				</g>
				<g clip-path="url(#SVGID_6_)">
					<g>
						<path fill="#FFFFFF" d="M-7.9,89.2c0,0,23.5-4.6,23.5-11.5c0-6.8-21.9-9-21.5-15.2c0.4-6.2,31.6-4.9,31.6-4.9
							s-26.5,1.3-25.1,5.1c1.5,3.8,29,8.1,28.8,17.4c-0.1,5.9-13.3,12.3-13.3,12.3"/>
					</g>
					<g>
						<g>
							<polygon fill="#6F6F00" points="3.1,91.4 3.5,91.3 4,91.1 4.9,90.8 5.8,93.2 4.9,93.6 4.4,93.8 3.9,94 							"/>
						</g>
						<g>
							<path fill="#6F6F00" d="M6.8,90.2l0.9-0.4l0.9-0.4c0.6-0.2,1.2-0.5,1.8-0.8l1,2.1c-0.6,0.3-1.2,0.6-1.9,0.9l-0.9,0.4
								l-0.9,0.4L6.8,90.2z"/>
						</g>
						<g>
							<path fill="#6F6F00" d="M12.3,87.8l0.5-0.2l0.4-0.2c0.3-0.1,0.6-0.3,0.9-0.5c0.6-0.3,1.1-0.6,1.7-1l1.1,1.7
								c-0.6,0.4-1.2,0.8-1.8,1.1c-0.3,0.2-0.6,0.3-0.9,0.5l-0.5,0.3l-0.4,0.2L12.3,87.8z"/>
						</g>
						<g>
							<path fill="#6F6F00" d="M17.3,84.9l0.4-0.3c0.1-0.1,0.3-0.2,0.4-0.3c0.2-0.2,0.5-0.4,0.7-0.6c0.5-0.4,0.9-0.9,1.2-1.4l1.5,1
								c-0.4,0.6-0.9,1.2-1.4,1.7c-0.3,0.3-0.5,0.5-0.8,0.7c-0.1,0.1-0.3,0.2-0.4,0.3l-0.4,0.3L17.3,84.9z"/>
						</g>
						<g>
							<path fill="#6F6F00" d="M20.9,80.8l0-0.1l0-0.1l0,0l0-0.1l0-0.1c0-0.1,0.1-0.3,0.1-0.4c0-0.3,0.1-0.6,0.1-0.9
								c0-0.6-0.1-1.1-0.4-1.6l1.4-0.7c0.4,0.7,0.6,1.5,0.6,2.2c0,0.4,0,0.8,0,1.2c0,0.2,0,0.4-0.1,0.6l0,0.1l0,0.2l0,0.1l0,0.1
								l0,0.1L20.9,80.8z"/>
						</g>
						<g>
							<path fill="#6F6F00" d="M19.8,76l-0.2-0.2l-0.2-0.2c-0.1-0.1-0.2-0.2-0.3-0.3c-0.2-0.2-0.5-0.4-0.7-0.6
								c-0.5-0.4-1-0.8-1.6-1.1l0.7-1.1c0.6,0.4,1.2,0.7,1.7,1.1c0.3,0.2,0.6,0.4,0.8,0.7c0.1,0.1,0.3,0.2,0.4,0.4
								c0.1,0.1,0.1,0.1,0.2,0.2l0.2,0.2L19.8,76z"/>
						</g>
						<g>
							<path fill="#6F6F00" d="M15.1,72.6c-0.3-0.2-0.6-0.3-0.9-0.5l-0.9-0.5c-0.6-0.3-1.2-0.6-1.8-0.9l0.4-0.9
								c0.6,0.3,1.2,0.5,1.9,0.8c0.3,0.1,0.6,0.3,0.9,0.4c0.3,0.1,0.6,0.3,0.9,0.5L15.1,72.6z"/>
						</g>
						<g>
							<path fill="#6F6F00" d="M9.7,69.9c-1.2-0.6-2.4-1.1-3.7-1.6l0.3-0.7c1.3,0.5,2.5,1,3.8,1.5L9.7,69.9z"/>
						</g>
						<g>
							<path fill="#6F6F00" d="M4.2,67.5C3,67,1.7,66.5,0.5,66l0.2-0.5c1.3,0.4,2.5,0.9,3.8,1.4L4.2,67.5z"/>
						</g>
						<g>
							<polygon fill="#6F6F00" points="-1.4,65.2 -3.3,64.5 -3.1,64.1 -1.2,64.8 							"/>
						</g>
					</g>
					<g>
						<path fill="#C5C553" d="M-11.7,89.1c0,0,25.4-4.8,25.7-11.7c0.2-4.6-26.6-11.6-26.6-11.6s17.6,7.6,18,11.4
							C6,82.8-11.7,89.1-11.7,89.1z"/>
						<path fill="#6F6F00" d="M-11.7,89.2l-0.1-0.2c0.2-0.1,17.7-6.3,17.1-11.8c-0.4-3.7-17.8-11.2-18-11.3l0.1-0.2
							c0.1,0,6.8,1.8,13.4,4.1c8.9,3.1,13.4,5.7,13.3,7.6C14,80.3,9.6,83.2,1.1,86C-5.2,88-11.6,89.2-11.7,89.2z M-11.3,66.2
							c4,1.8,16.5,7.6,16.9,10.9c0.2,2.4-2.6,5.1-8.4,8.2c-3,1.6-6,2.8-7.6,3.4c5.1-1.1,24.1-5.5,24.4-11.4C14,75.6,9.5,73,0.8,70
							C-4.1,68.3-9,66.9-11.3,66.2z"/>
					</g>
					<g>
						<path fill="#C5C553" d="M24.9,58.4c0,0-22.7,1.8-22.5,4.1c0.2,2.4,19.9,7.2,19.9,7.2S8.3,65.3,8.5,62.9
							C8.7,60.3,24.9,58.4,24.9,58.4z"/>
					</g>
					<g>
						<path fill="#C5C553" d="M18.9,56.7c0,0-15.8-0.2-21.6,1.2l0.1,0.8C-0.8,57.6,18.9,56.7,18.9,56.7z"/>
					</g>
				</g>
			</g>
		</g>
	</g>
	<g>
		<g id="El_Reno_-_Shapes_8_">
			<polygon points="134.4,30.3 134.4,22.8 112.6,22.8 112.6,54.7 134.4,54.7 134.4,47.3 121.9,47.3 121.9,42.4 133,42.4 133,35 
				121.9,35 121.9,30.3 			"/>
			<polygon points="145.6,47.3 145.6,22.8 136.4,22.8 136.4,54.7 157.3,54.7 157.3,47.3 			"/>
			<path d="M189.9,41.3c0.3-0.3,0.7-0.6,1-0.9c0.6-0.6,1.2-1.3,1.6-2c0.5-0.7,0.9-1.5,1.1-2.4c0.3-0.9,0.4-1.8,0.4-2.8
				c0-1.6-0.3-3-0.9-4.3c-0.6-1.3-1.5-2.4-2.6-3.4c-1.1-0.9-2.5-1.6-4.1-2.1c-1.6-0.5-3.4-0.7-5.3-0.7h-12.1v31.9h9.3v-11h2.8
				l5.4,11h9.9L189.9,41.3z M178.4,30.3h2.6c1.3,0,2.4,0.2,2.9,0.7c0.5,0.4,0.7,1.2,0.7,2.3c0,0.5,0,0.9-0.1,1.2
				c-0.1,0.3-0.2,0.6-0.3,0.9c-0.1,0.3-0.3,0.5-0.4,0.7c0,0.1-0.1,0.1-0.1,0.2h-5.3V30.3z"/>
			<polygon points="219.5,30.3 219.5,22.8 197.6,22.8 197.6,54.7 219.5,54.7 219.5,47.3 206.9,47.3 206.9,42.4 218,42.4 218,35 
				206.9,35 206.9,30.3 			"/>
			<polygon points="240.6,22.8 240.6,39.1 230,22.8 221.4,22.8 221.4,54.7 230.7,54.7 230.7,38.4 241.2,54.7 249.9,54.7 249.9,22.8 
							"/>
			<path d="M281.3,32.1c-0.7-2-1.7-3.8-3.1-5.2c-1.3-1.4-3-2.6-4.8-3.3c-1.9-0.8-3.9-1.2-6.2-1.2c-2.3,0-4.4,0.4-6.2,1.2
				c-1.9,0.8-3.5,1.9-4.8,3.3c-1.3,1.4-2.3,3.2-3,5.2c-0.7,2-1,4.2-1,6.7c0,2.5,0.4,4.7,1,6.7c0.7,2,1.7,3.8,3,5.2
				c1.3,1.4,3,2.6,4.8,3.3c1.9,0.8,3.9,1.1,6.2,1.1c2.3,0,4.4-0.4,6.2-1.1c1.9-0.8,3.5-1.9,4.8-3.3c1.3-1.4,2.4-3.2,3.1-5.2
				c0.7-2,1-4.2,1-6.7C282.4,36.3,282,34.1,281.3,32.1z M267.2,47.7c-0.9,0-1.7-0.2-2.4-0.5c-0.7-0.4-1.3-0.9-1.8-1.6
				c-0.5-0.7-0.9-1.7-1.2-2.8c-0.3-1.2-0.5-2.5-0.5-4c0-1.5,0.2-2.9,0.5-4c0.3-1.1,0.7-2,1.2-2.8c0.5-0.7,1.1-1.2,1.8-1.6
				c0.7-0.4,1.5-0.5,2.4-0.5c0.9,0,1.7,0.2,2.4,0.5c0.7,0.4,1.3,0.9,1.8,1.6c0.5,0.7,0.9,1.7,1.2,2.8c0.3,1.2,0.4,2.5,0.4,4.1
				c0,1.5-0.2,2.9-0.4,4.1c-0.3,1.1-0.7,2-1.2,2.8c-0.5,0.7-1.1,1.2-1.8,1.6C268.9,47.5,268.1,47.7,267.2,47.7z"/>
		</g>
		<g>
			<g>
				<path d="M121.3,59.9h1.9l-1.8,7h-2l-1.6-4.8l-1.6,4.8h-1.9l-1.8-7h1.9l1,5.1l1.7-5.1h1.5l1.6,5.1L121.3,59.9z"/>
				<path d="M124.4,66.9v-7h5.3v1.1h-3.5v1.8h3.1V64h-3.1v1.8h3.5v1.1H124.4z"/>
				<path d="M131.3,59.7h1.7l-1.1,2.5l-1.2-0.1L131.3,59.7z"/>
				<path d="M134.4,59.9h3c0.5,0,1,0.1,1.4,0.2c0.4,0.1,0.7,0.2,1,0.4c0.3,0.2,0.5,0.4,0.6,0.7c0.1,0.3,0.2,0.6,0.2,0.9
					c0,0.2,0,0.4-0.1,0.6c-0.1,0.2-0.2,0.3-0.3,0.5c-0.1,0.2-0.2,0.3-0.4,0.4c-0.2,0.1-0.3,0.2-0.5,0.4l1.7,3h-1.9l-1.5-2.6h-1.4
					v2.6h-1.8V59.9z M136.2,61.1v2.1h2c0.1-0.1,0.1-0.1,0.2-0.2c0.1-0.1,0.1-0.1,0.2-0.2c0-0.1,0.1-0.2,0.1-0.3c0-0.1,0-0.2,0-0.4
					c0-0.4-0.1-0.6-0.3-0.8c-0.2-0.2-0.6-0.2-1-0.2H136.2z"/>
				<path d="M142.3,66.9v-7h5.3v1.1h-3.5v1.8h3.1V64h-3.1v1.8h3.5v1.1H142.3z"/>
				<path d="M151.8,59.9h3c0.5,0,1,0.1,1.4,0.2c0.4,0.1,0.7,0.3,1,0.5c0.3,0.2,0.5,0.4,0.6,0.7c0.1,0.3,0.2,0.6,0.2,0.9
					s-0.1,0.6-0.2,0.9c-0.1,0.3-0.4,0.5-0.6,0.7c-0.3,0.2-0.6,0.4-1,0.5c-0.4,0.1-0.9,0.2-1.4,0.2h-1.2v2.5h-1.8V59.9z M153.6,61.1
					v2.3h1.1c1,0,1.5-0.4,1.5-1.1c0-0.4-0.1-0.7-0.4-0.8c-0.3-0.2-0.6-0.3-1.2-0.3H153.6z"/>
				<path d="M159.4,59.9h3c0.5,0,1,0.1,1.4,0.2c0.4,0.1,0.7,0.2,1,0.4c0.3,0.2,0.5,0.4,0.6,0.7s0.2,0.6,0.2,0.9c0,0.2,0,0.4-0.1,0.6
					c-0.1,0.2-0.2,0.3-0.3,0.5c-0.1,0.2-0.2,0.3-0.4,0.4c-0.2,0.1-0.3,0.2-0.5,0.4l1.7,3h-1.9l-1.5-2.6h-1.4v2.6h-1.8V59.9z
					 M161.2,61.1v2.1h2c0.1-0.1,0.1-0.1,0.2-0.2c0.1-0.1,0.1-0.1,0.2-0.2c0-0.1,0.1-0.2,0.1-0.3c0-0.1,0-0.2,0-0.4
					c0-0.4-0.1-0.6-0.3-0.8c-0.2-0.2-0.6-0.2-1-0.2H161.2z"/>
				<path d="M166.8,63.4c0-0.6,0.1-1.1,0.3-1.5c0.2-0.4,0.4-0.8,0.8-1.1s0.7-0.6,1.2-0.7c0.5-0.2,1-0.3,1.6-0.3
					c0.6,0,1.1,0.1,1.6,0.3c0.5,0.2,0.9,0.4,1.2,0.7c0.3,0.3,0.6,0.7,0.8,1.1c0.2,0.4,0.3,0.9,0.3,1.5c0,0.6-0.1,1.1-0.3,1.5
					c-0.2,0.4-0.4,0.8-0.8,1.1c-0.3,0.3-0.7,0.6-1.2,0.7c-0.5,0.2-1,0.2-1.6,0.2c-0.6,0-1.1-0.1-1.6-0.2c-0.5-0.2-0.9-0.4-1.2-0.7
					c-0.3-0.3-0.6-0.7-0.8-1.1C166.9,64.5,166.8,64,166.8,63.4z M168.6,63.4c0,0.4,0,0.8,0.1,1.1c0.1,0.3,0.2,0.6,0.4,0.8
					c0.2,0.2,0.4,0.4,0.6,0.5c0.2,0.1,0.5,0.2,0.8,0.2c0.3,0,0.6-0.1,0.8-0.2c0.2-0.1,0.5-0.3,0.6-0.5c0.2-0.2,0.3-0.5,0.4-0.8
					s0.1-0.7,0.1-1.1s0-0.8-0.1-1.1c-0.1-0.3-0.2-0.6-0.4-0.8c-0.2-0.2-0.4-0.4-0.6-0.5c-0.2-0.1-0.5-0.2-0.8-0.2
					c-0.3,0-0.6,0.1-0.8,0.2s-0.5,0.3-0.6,0.5c-0.2,0.2-0.3,0.5-0.4,0.8C168.7,62.7,168.6,63,168.6,63.4z"/>
				<path d="M180.9,59.9h1.8v4.8c0,0.4-0.1,0.7-0.2,1c-0.2,0.3-0.4,0.5-0.7,0.7c-0.3,0.2-0.7,0.4-1.1,0.5c-0.4,0.1-0.9,0.2-1.4,0.2
					c-0.5,0-1-0.1-1.4-0.2c-0.4-0.1-0.8-0.3-1.1-0.5c-0.3-0.2-0.5-0.5-0.7-0.7c-0.2-0.3-0.2-0.6-0.2-1v-4.7h1.8v4.7
					c0,0.2,0,0.4,0.1,0.5c0.1,0.2,0.2,0.3,0.3,0.4c0.1,0.1,0.3,0.2,0.5,0.2c0.2,0.1,0.4,0.1,0.6,0.1c0.2,0,0.5,0,0.7-0.1
					c0.2-0.1,0.4-0.1,0.5-0.2c0.1-0.1,0.3-0.2,0.3-0.4c0.1-0.2,0.1-0.3,0.1-0.5V59.9z"/>
				<path d="M184.5,59.9h2.8c0.6,0,1.2,0.1,1.7,0.3c0.5,0.2,0.9,0.4,1.3,0.7c0.4,0.3,0.6,0.7,0.8,1.1c0.2,0.4,0.3,0.9,0.3,1.4
					c0,0.5-0.1,1-0.3,1.4c-0.2,0.4-0.5,0.8-0.8,1.1c-0.4,0.3-0.8,0.5-1.3,0.7c-0.5,0.2-1.1,0.3-1.7,0.3h-2.8V59.9z M186.3,61.1v4.8
					h0.8c0.4,0,0.7,0,1-0.1c0.3-0.1,0.5-0.2,0.7-0.4c0.2-0.2,0.4-0.4,0.5-0.7s0.2-0.7,0.2-1.1c0-0.4-0.1-0.8-0.2-1.1
					c-0.1-0.3-0.3-0.5-0.5-0.7c-0.2-0.2-0.5-0.3-0.7-0.4c-0.3-0.1-0.6-0.1-1-0.1H186.3z"/>
				<path d="M195.3,63.4c0-0.6,0.1-1.1,0.3-1.5c0.2-0.4,0.4-0.8,0.8-1.1s0.7-0.6,1.2-0.7c0.5-0.2,1-0.3,1.6-0.3
					c0.6,0,1.1,0.1,1.6,0.3c0.5,0.2,0.9,0.4,1.2,0.7c0.3,0.3,0.6,0.7,0.8,1.1c0.2,0.4,0.3,0.9,0.3,1.5c0,0.6-0.1,1.1-0.3,1.5
					c-0.2,0.4-0.4,0.8-0.8,1.1c-0.3,0.3-0.7,0.6-1.2,0.7c-0.5,0.2-1,0.2-1.6,0.2c-0.6,0-1.1-0.1-1.6-0.2c-0.5-0.2-0.9-0.4-1.2-0.7
					c-0.3-0.3-0.6-0.7-0.8-1.1C195.4,64.5,195.3,64,195.3,63.4z M197.2,63.4c0,0.4,0,0.8,0.1,1.1c0.1,0.3,0.2,0.6,0.4,0.8
					c0.2,0.2,0.4,0.4,0.6,0.5c0.2,0.1,0.5,0.2,0.8,0.2c0.3,0,0.6-0.1,0.8-0.2c0.2-0.1,0.5-0.3,0.6-0.5c0.2-0.2,0.3-0.5,0.4-0.8
					c0.1-0.3,0.1-0.7,0.1-1.1s0-0.8-0.1-1.1c-0.1-0.3-0.2-0.6-0.4-0.8c-0.2-0.2-0.4-0.4-0.6-0.5s-0.5-0.2-0.8-0.2
					c-0.3,0-0.6,0.1-0.8,0.2s-0.5,0.3-0.6,0.5c-0.2,0.2-0.3,0.5-0.4,0.8C197.2,62.7,197.2,63,197.2,63.4z"/>
				<path d="M206.2,64v3h-1.8v-7h5v1.1h-3.2v1.8h2.8V64H206.2z"/>
				<path d="M213,63.4c0-0.6,0.1-1.1,0.3-1.5c0.2-0.4,0.4-0.8,0.8-1.1c0.3-0.3,0.7-0.6,1.2-0.7c0.5-0.2,1-0.3,1.6-0.3
					c0.6,0,1.1,0.1,1.6,0.3c0.5,0.2,0.9,0.4,1.2,0.7s0.6,0.7,0.8,1.1c0.2,0.4,0.3,0.9,0.3,1.5c0,0.6-0.1,1.1-0.3,1.5
					c-0.2,0.4-0.4,0.8-0.8,1.1c-0.3,0.3-0.7,0.6-1.2,0.7c-0.5,0.2-1,0.2-1.6,0.2c-0.6,0-1.1-0.1-1.6-0.2c-0.5-0.2-0.9-0.4-1.2-0.7
					c-0.3-0.3-0.6-0.7-0.8-1.1C213.1,64.5,213,64,213,63.4z M214.8,63.4c0,0.4,0,0.8,0.1,1.1s0.2,0.6,0.4,0.8
					c0.2,0.2,0.4,0.4,0.6,0.5c0.2,0.1,0.5,0.2,0.8,0.2c0.3,0,0.6-0.1,0.8-0.2c0.2-0.1,0.5-0.3,0.6-0.5c0.2-0.2,0.3-0.5,0.4-0.8
					c0.1-0.3,0.1-0.7,0.1-1.1s0-0.8-0.1-1.1c-0.1-0.3-0.2-0.6-0.4-0.8c-0.2-0.2-0.4-0.4-0.6-0.5s-0.5-0.2-0.8-0.2
					c-0.3,0-0.6,0.1-0.8,0.2c-0.2,0.1-0.5,0.3-0.6,0.5c-0.2,0.2-0.3,0.5-0.4,0.8C214.9,62.7,214.8,63,214.8,63.4z"/>
				<path d="M227.1,59.9h1.8v4.8c0,0.4-0.1,0.7-0.2,1c-0.2,0.3-0.4,0.5-0.7,0.7c-0.3,0.2-0.7,0.4-1.1,0.5c-0.4,0.1-0.9,0.2-1.4,0.2
					c-0.5,0-1-0.1-1.4-0.2c-0.4-0.1-0.8-0.3-1.1-0.5c-0.3-0.2-0.5-0.5-0.7-0.7c-0.2-0.3-0.2-0.6-0.2-1v-4.7h1.8v4.7
					c0,0.2,0,0.4,0.1,0.5c0.1,0.2,0.2,0.3,0.3,0.4c0.1,0.1,0.3,0.2,0.5,0.2c0.2,0.1,0.4,0.1,0.6,0.1c0.2,0,0.5,0,0.7-0.1
					c0.2-0.1,0.4-0.1,0.5-0.2c0.1-0.1,0.3-0.2,0.3-0.4c0.1-0.2,0.1-0.3,0.1-0.5V59.9z"/>
				<path d="M230.7,59.9h3c0.5,0,1,0.1,1.4,0.2c0.4,0.1,0.7,0.2,1,0.4c0.3,0.2,0.5,0.4,0.6,0.7c0.1,0.3,0.2,0.6,0.2,0.9
					c0,0.2,0,0.4-0.1,0.6c-0.1,0.2-0.2,0.3-0.3,0.5c-0.1,0.2-0.2,0.3-0.4,0.4c-0.2,0.1-0.3,0.2-0.5,0.4l1.7,3h-1.9l-1.5-2.6h-1.4
					v2.6h-1.8V59.9z M232.5,61.1v2.1h2c0.1-0.1,0.1-0.1,0.2-0.2c0.1-0.1,0.1-0.1,0.2-0.2c0-0.1,0.1-0.2,0.1-0.3c0-0.1,0-0.2,0-0.4
					c0-0.4-0.1-0.6-0.3-0.8c-0.2-0.2-0.6-0.2-1-0.2H232.5z"/>
			</g>
			<g>
				<path d="M244.7,66.3c0.9,0,1.8-1.5,1.8-1.5s0.1-0.2,0.3-0.2c0.2,0,0.3,0.2,0.3,0.3c0,0.2-0.1,0.4-0.1,0.4s-1.2,2.1-2.9,2.1
					c-1.3,0-2.1-0.8-2.1-1.7c0-1.5,1-2.7,1-3.3c0-0.3-1-0.4-1-0.4c-0.6,1.7-1.3,2.8-1.6,3.3c-0.1,0.1-0.2,0.3-0.4,0.3
					c-0.2,0-0.3-0.2-0.3-0.4c0-0.2,0.1-0.3,0.2-0.4c0.3-0.5,1-1.5,1.4-3.1c0,0-0.5-0.4-0.5-1.3c0-0.7,0.6-1.3,1-1.3
					c0.5,0,1,0.6,1,0.9c0,0.5-0.2,0.7-0.2,1c0,0.2,0.3,0.4,0.7,0.4c0.7,0,1-0.2,1.4-0.2c0.4,0,0.7,0.4,0.7,0.8
					c0,0.8-1.2,2.3-1.2,3.7C244.1,66.1,244.3,66.3,244.7,66.3z"/>
				<path d="M251.5,66.8c-0.2,0-0.4,0-0.6-0.1c-0.5,0.4-1.2,0.7-1.9,0.7c-1.4,0-2.6-1.1-2.6-2.5c0-2.9,2.1-4.5,3.9-4.5
					c1.4,0,2.4,1,2.4,2.6c0,0.9-0.4,2-1,2.9c0.1,0,0.2,0,0.3,0c1.1,0,2-1.2,2-1.2s0.1-0.2,0.3-0.2c0.2,0,0.3,0.2,0.3,0.3
					c0,0.2-0.1,0.4-0.1,0.4S253.4,66.8,251.5,66.8z M249.1,66.6c0.2,0,0.3-0.1,0.5-0.2c-0.2-0.1-0.3-0.3-0.3-0.4
					c0-0.4,0.6-0.9,0.8-0.9c0.1,0,0.1,0,0.2,0c0.3-0.9,0.5-2,0.5-2.7c0-0.8-0.3-1.1-0.6-1.1c-0.7,0-1.9,1.7-1.9,4.1
					C248.3,66.1,248.6,66.6,249.1,66.6z"/>
				<path d="M260.2,66.3c0.9,0,1.8-1.5,1.8-1.5s0.1-0.2,0.3-0.2c0.2,0,0.3,0.2,0.3,0.3c0,0.2-0.1,0.4-0.1,0.4s-1.2,2.1-2.9,2.1
					c-1.3,0-1.8-0.7-2-1.3c-0.5,0.6-1.4,1.3-2.3,1.3c-0.8,0-1.7-0.8-1.7-1.7c0-1.3,0.9-4,1.3-5c0.1-0.2,0.2-0.3,0.4-0.3
					c0.5,0,1.3,0.7,1.3,1c0,1-1.1,2.7-1.1,4.4c0,0.3,0.1,0.5,0.4,0.5c0.5,0,1.2-0.7,1.5-1.2c0.4-0.8,1-3.4,1.4-4.3
					c0.1-0.2,0.2-0.3,0.5-0.3c0.5,0,1.3,0.7,1.3,1c0,1-0.9,2.5-0.9,4.2C259.7,66,259.9,66.3,260.2,66.3z"/>
				<path d="M266.5,64.8c0,0,0.1-0.2,0.3-0.2c0.2,0,0.3,0.2,0.3,0.3c0,0.2-0.1,0.4-0.1,0.4s-1.2,2.1-2.9,2.1c-1,0-2.4-0.9-2.4-2.1
					c0-1,0.5-3,1.1-4.8h-0.4c-0.1,0-0.1-0.1-0.1-0.2c0-0.2,0.3-0.6,0.5-0.6h0.3c0.3-0.9,0.7-1.8,1-2.3c0.1-0.2,0.2-0.3,0.4-0.3
					c0.5,0,1.3,0.7,1.3,1c0,0.2-0.2,0.8-0.5,1.6h1.1c0.1,0,0.1,0.1,0.1,0.2c0,0.2-0.3,0.6-0.5,0.6h-1c-0.5,1.6-1.2,3.5-1.2,4.8
					c0,0.5,0.4,0.9,0.9,0.9C265.6,66.3,266.5,64.8,266.5,64.8z"/>
				<path d="M269.3,67.5c-1.7,0-2.9-1.1-2.9-2.6c0-2.7,2.1-4.4,3.6-4.4c1,0,1.8,0.9,1.8,1.8c0,0.8-0.6,2.6-2.7,2.6
					c-0.2,0-0.6-0.1-0.6-0.1c0,1,0.7,1.6,1.5,1.6c1.6,0,2.6-1.6,2.6-1.6s0.1-0.2,0.3-0.2c0.2,0,0.3,0.2,0.3,0.3
					c0,0.2-0.1,0.4-0.1,0.4S271.8,67.5,269.3,67.5z M270.6,61.7c0-0.2-0.1-0.3-0.3-0.3c-0.9,0-1.9,1.8-1.9,2.7
					C269.7,64.1,270.6,62.4,270.6,61.7z"/>
				<path d="M275.1,67.6c-1.6,0-3-1.5-3-2.6c0-1,1.6-1.4,1.6-1.4s0.3-0.6,1.1-1.8c0.8-1.2,1.3-1.6,1.7-1.6c0.3,0,0.8,0.5,0.8,0.6
					c0,0.2-0.4,0.7-0.4,1.2c0,1.4,0.6,2,0.6,3c0,0.9-0.4,1.3-0.4,1.3c1.3-0.4,2.1-1.5,2.1-1.5s0.1-0.2,0.3-0.2
					c0.2,0,0.3,0.2,0.3,0.3c0,0.2-0.1,0.4-0.1,0.4S278.5,67.6,275.1,67.6z M273.8,64.8c0,1,0.2,2,0.8,2c0.5,0,0.9-0.7,0.9-1.5
					c0-0.9-0.5-2-0.5-2.7C275.1,62.6,273.8,64.6,273.8,64.8z"/>
				<path d="M281.5,65.1c0.5,0,0.9,0.3,0.9,0.9c0,0.6-0.5,1.5-1.3,1.5c-0.5,0-0.9-0.4-0.9-0.9C280.2,65.9,280.8,65.1,281.5,65.1z"/>
			</g>
		</g>
	</g>
</g>
</svg>
