<?xml version="1.0" encoding="utf-8"?>
<!-- Generator: Adobe Illustrator 23.0.3, SVG Export Plug-In . SVG Version: 6.00 Build 0)  -->
<svg version="1.1" id="Layer_1" xmlns="http://www.w3.org/2000/svg" xmlns:xlink="http://www.w3.org/1999/xlink" x="0px" y="0px"
	 viewBox="0 0 360 360" style="enable-background:new 0 0 360 360;" xml:space="preserve">
<style type="text/css">
	.st0{fill:#11162A;}
	.st1{fill:#DAAF35;}
	.st2{fill:#FFFFFF;}
</style>
<g>
	<g>
		<path class="st0" d="M59.24,126.24c-0.77,0-1.38,0.21-1.83,0.64c-0.45,0.43-0.68,1.05-0.68,1.84c0,0.68,0.15,1.4,0.45,2.14
			c0.19,0.47,0.65,0.78,1.16,0.78h15.7c0.94,0,1.61-0.21,2.07-0.65c0.46-0.44,0.69-1.09,0.69-1.94c0-0.78-0.17-1.5-0.5-2.14
			c-0.22-0.42-0.64-0.68-1.11-0.68h-3.92c-0.05-2.33-0.07-6.66-0.07-12.9v-8.82c0-1-0.1-1.76-0.29-2.32
			c-0.26-0.73-0.74-1.28-1.39-1.58c-1.19-0.56-3.42-0.53-8.06,0.46c-1.17,0.25-4.72,1-4.72,3.59c0,0.67,0.17,1.33,0.51,1.97
			c0.22,0.41,0.64,0.67,1.11,0.67h1.84c1.2,0,1.56,0.1,1.69,0.17c0.04,0.09,0.15,0.36,0.2,1c0.05,0.62,0.07,1.75,0.07,3.36
			c0,7.13-0.02,11.96-0.07,14.41H59.24z"/>
		<path class="st0" d="M79.94,124.68c0,2.44,1.08,4.39,3.11,5.65c1.9,1.17,4.63,1.74,8.35,1.74c4.46,0,8.03-0.9,10.62-2.66
			c2.74-1.87,4.13-4.24,4.13-7.04c0-2.11-0.85-3.99-2.53-5.58c-0.8-0.76-1.96-1.51-3.49-2.27c3.44-2.04,5.18-4.49,5.18-7.3
			c0-2.32-1.09-4.24-3.14-5.55c-1.93-1.24-4.59-1.84-8.13-1.84c-3.75,0-6.89,0.79-9.31,2.36c-2.6,1.68-3.92,3.95-3.92,6.75
			c0,2.73,1.64,5.17,4.87,7.28C81.86,118.74,79.94,121.58,79.94,124.68z M91.12,106.91c0.34-0.34,0.94-0.51,1.78-0.51
			c0.86,0,1.5,0.2,1.97,0.6c0.26,0.23,0.62,0.64,0.62,1.64c0,1.08-0.62,2.17-1.84,3.23c-3.04-1.5-3.04-3.04-3.04-3.57
			C90.61,107.7,90.77,107.26,91.12,106.91z M91.83,119.14c2.2,0.84,4.5,2.14,4.5,3.93c0,0.77-0.24,1.31-0.76,1.72
			c-0.6,0.47-1.49,0.71-2.63,0.71c-1.15,0-2-0.23-2.5-0.68c-0.48-0.42-0.7-0.94-0.7-1.62C89.74,121.89,90.45,120.52,91.83,119.14z"
			/>
		<path class="st0" d="M251.77,131.47c0.65,0.28,1.97,0.6,6.42,0.6c4.99,0,8.85-0.91,11.47-2.69c2.77-1.89,4.17-4.36,4.17-7.34
			c0-2.23-0.88-5-4.63-6.66c2.56-1.75,3.85-4.14,3.85-7.13c0-3.05-1.12-5.27-3.33-6.6c-2-1.2-4.55-1.81-7.58-1.81
			c-2.8,0-5.22,0.15-7.18,0.46c-2.86,0.44-3.33,0.61-3.64,0.79c-0.36,0.21-0.95,0.72-0.95,1.8c0,0.75,0.22,1.6,0.66,2.61
			c0.46,1.04,0.96,1.77,1.54,2.24c0.73,0.58,1.72,0.73,2.94,0.44c1.36-0.32,1.59-0.43,1.78-0.55c0.27-0.17,0.46-0.36,1.03-1.42
			c1.6-0.24,3.23-0.17,4.09,0.69c0.54,0.54,0.82,1.52,0.82,2.92c0,0.99-0.25,1.7-0.77,2.18c-0.3,0.28-1.18,0.76-3.62,0.76h-1.9
			c-0.45,0-0.86,0.24-1.09,0.62c-0.52,0.9-0.78,1.88-0.78,2.91c0,0.83,0.21,1.48,0.63,1.94c0.31,0.34,0.88,0.76,1.85,0.76h1.04
			c1.69,0,3.07,0.36,4.1,1.08c0.91,0.63,1.33,1.55,1.33,2.89c0,0.94-0.3,1.59-0.95,2.06c-1.81,1.32-5.38,1.08-10.35-0.96
			c-0.54-0.22-1.17-0.04-1.5,0.44c-0.91,1.3-1.37,2.58-1.37,3.81C249.84,130.34,251.05,131.17,251.77,131.47z"/>
		<path class="st0" d="M286.82,114.13c-2.94,2.27-5.31,4.3-7.04,6.03c-1.94,1.94-2.92,4.26-2.92,6.91c0,1.59,0.24,2.86,0.74,3.88
			c0.21,0.43,0.65,0.7,1.12,0.7h16.06c2.08,0,3.37-0.21,4.17-0.68c0.68-0.4,1.49-1.23,1.49-2.97c0-1.32-0.45-2.7-1.34-4.1
			c-0.35-0.54-1.05-0.74-1.61-0.45c-2.75,1.36-6.18,2.08-10.21,2.15c0.41-1.67,1.9-3.39,4.44-5.14c3.72-2.56,6.05-4.65,7.12-6.39
			c1.08-1.76,1.62-3.65,1.62-5.63c0-3.22-1.16-5.52-3.46-6.83c-2.07-1.18-4.9-1.79-8.42-1.79c-2.69,0-5.05,0.15-7.03,0.46
			c-2.88,0.44-3.34,0.61-3.65,0.79c-0.36,0.21-0.95,0.72-0.95,1.8c0,0.75,0.22,1.6,0.67,2.62c0.46,1.04,0.97,1.76,1.55,2.23
			c0.73,0.58,1.72,0.73,2.93,0.44c1.34-0.32,1.57-0.43,1.78-0.56c0.26-0.17,0.44-0.36,1.02-1.41c1.64-0.23,3.73-0.22,4.92,0.62
			c0.21,0.15,0.87,0.61,0.87,2.2C290.7,110.4,289.36,112.17,286.82,114.13z"/>
	</g>
</g>
<g>
	<path class="st1" d="M110.71,357.65v-17.96h6.28v17.96H110.71z"/>
	<path class="st1" d="M133.87,357.65l-4.75-9.03v9.03h-4.9v-17.96h6.28l4.8,9.13v-9.13h4.85v17.96H133.87z"/>
	<path class="st1" d="M147.39,357.65v-17.96h6.28c1.08,0,2.05,0.04,2.89,0.11c0.85,0.07,1.59,0.19,2.24,0.34
		c0.65,0.16,1.21,0.36,1.69,0.61c0.48,0.26,0.88,0.56,1.21,0.92c0.64,0.71,1.06,1.62,1.25,2.76c0.2,1.13,0.3,2.55,0.3,4.26
		c0,0.93-0.02,1.78-0.07,2.55c-0.05,0.76-0.14,1.45-0.28,2.05c-0.14,0.61-0.34,1.14-0.59,1.6c-0.26,0.46-0.59,0.85-1,1.18
		c-0.69,0.57-1.64,0.98-2.87,1.22c-1.22,0.24-2.82,0.36-4.79,0.36H147.39z M153.67,352.7c0.62-0.02,1.14-0.06,1.56-0.14
		c0.42-0.07,0.75-0.26,1-0.55c0.23-0.28,0.4-0.68,0.5-1.21c0.11-0.53,0.16-1.23,0.16-2.12c0-0.97-0.05-1.72-0.16-2.26
		c-0.11-0.54-0.28-0.94-0.53-1.21c-0.25-0.26-0.58-0.42-1-0.47c-0.42-0.05-0.93-0.07-1.54-0.07V352.7z"/>
	<path class="st1" d="M170.05,357.65v-17.96h6.28v17.96H170.05z"/>
	<path class="st1" d="M193.88,357.65l-0.44-2.53h-3.84l-0.54,2.53h-6.59l6.5-17.96h5.86l6.2,17.96H193.88z M191.72,345.44
		l-1.16,5.32h2.09L191.72,345.44z"/>
	<path class="st1" d="M216.81,357.65l-4.75-9.03v9.03h-4.9v-17.96h6.28l4.8,9.13v-9.13h4.85v17.96H216.81z"/>
	<path class="st1" d="M240.64,357.65l-0.44-2.53h-3.84l-0.54,2.53h-6.59l6.5-17.96h5.86l6.2,17.96H240.64z M238.48,345.44
		l-1.16,5.32h2.09L238.48,345.44z"/>
</g>
<g>
	<path class="st0" d="M29.98,320h0.81c7.53,0,13.51-0.89,17.94-2.66c0.99,1.48,1.48,3.09,1.48,4.82c0,1.24-0.46,2.12-1.38,2.66
		c-0.92,0.54-2.79,0.81-5.6,0.81l-27.92,0.03c-0.4-0.99-0.61-1.94-0.61-2.87c0-0.61,0.17-1.05,0.51-1.33
		c0.34-0.28,0.83-0.42,1.48-0.42h2.46c0.14-2.9,0.2-10.44,0.2-22.63c0-6.59-0.08-11.32-0.24-14.2h-3.81
		c-0.4-0.99-0.61-1.93-0.61-2.83c0-0.63,0.17-1.08,0.51-1.37c0.34-0.28,0.83-0.42,1.48-0.42h17.77c0.38,0.83,0.57,1.66,0.57,2.5
		c0,0.81-0.15,1.37-0.44,1.67c-0.29,0.3-0.75,0.45-1.38,0.45h-3.27c-0.11,2.88-0.17,7.62-0.17,14.23
		C29.78,310.61,29.84,317.8,29.98,320z"/>
	<path class="st0" d="M58.42,279.6h30.69c1.44,0,2.47,0.22,3.09,0.66c0.62,0.44,0.93,1.34,0.93,2.71c0,1.66-0.55,3.37-1.65,5.13
		c-4.72-1.91-10.77-2.87-18.14-2.87h-1.62c-0.13,2.2-0.2,6.69-0.2,13.46h17c0.38,1.19,0.57,2.43,0.57,3.71
		c0,0.76-0.14,1.28-0.41,1.53c-0.27,0.26-0.79,0.39-1.55,0.39H71.5c0.02,8.66,0.09,13.88,0.2,15.68h2.8
		c7.58,0,13.58-0.89,18.01-2.66c0.99,1.48,1.48,3.09,1.48,4.82c0,1.24-0.46,2.12-1.38,2.66c-0.92,0.54-2.79,0.81-5.6,0.81
		l-29.98,0.03c-0.4-0.99-0.61-1.94-0.61-2.87c0-0.61,0.17-1.05,0.51-1.33c0.34-0.28,0.83-0.42,1.48-0.42h2.46
		c0.14-2.9,0.2-10.44,0.2-22.63c0-6.59-0.07-11.32-0.2-14.2h-3.84c-0.4-0.99-0.61-1.93-0.61-2.83c0-0.63,0.17-1.08,0.51-1.37
		C57.27,279.74,57.77,279.6,58.42,279.6z"/>
	<path class="st0" d="M103.02,279.6h16.25c6.81,0,11.88,0.89,15.19,2.66c3.32,1.78,4.97,4.47,4.97,8.09c0,4.99-3.13,8.78-9.38,11.37
		c7.8,1.46,11.7,5.01,11.7,10.66c0,3.84-1.77,7.01-5.31,9.51s-9.74,3.74-18.6,3.74l-16.22,0.03c-0.4-0.99-0.61-1.94-0.61-2.87
		c0-0.61,0.17-1.05,0.51-1.33c0.34-0.28,0.83-0.42,1.48-0.42h2.46c0.14-2.9,0.2-9.29,0.2-19.16c0-8.9-0.07-14.79-0.2-17.67h-3.84
		c-0.4-0.99-0.61-1.93-0.61-2.83c0-0.63,0.17-1.08,0.51-1.37C101.87,279.74,102.37,279.6,103.02,279.6z M116.1,298.79
		c1.12,0.23,2.5,0.34,4.11,0.34c2.7,0,4.64-0.5,5.82-1.5c1.18-1,1.77-2.58,1.77-4.74c0-2.34-0.63-4.06-1.89-5.16
		c-1.26-1.1-3.16-1.65-5.7-1.65c-1.33,0-2.69,0.11-4.08,0.34C116.12,288.55,116.1,292.67,116.1,298.79z M116.1,304.96v7.89
		c0,2.59,0.3,4.28,0.91,5.09c0.61,0.81,2.27,1.21,4.99,1.21c2.83,0,4.9-0.52,6.19-1.57s1.94-2.76,1.94-5.14
		c0-2.56-0.78-4.51-2.34-5.83s-3.97-1.99-7.23-1.99C119.12,304.62,117.63,304.73,116.1,304.96z"/>
	<path class="st0" d="M169.25,278.96c3.75,0,5.88,0.12,6.37,0.37c0.5,0.25,2.71,6.15,6.64,17.72c3.93,11.57,6.78,19.55,8.53,23.96
		h3.17c0.38,0.81,0.57,1.64,0.57,2.5c0,0.79-0.15,1.34-0.44,1.65c-0.29,0.32-0.76,0.47-1.42,0.47h-17.23
		c-0.38-0.99-0.57-1.94-0.57-2.87c0-0.61,0.17-1.05,0.51-1.33c0.34-0.28,0.83-0.42,1.48-0.42h1.48c-0.34-1.62-1.2-4.84-2.6-9.68
		h-14.3c-1.26,4.72-2.05,7.95-2.36,9.68h3.2c0.38,0.81,0.57,1.64,0.57,2.5c0,0.79-0.15,1.34-0.44,1.65
		c-0.29,0.32-0.75,0.47-1.38,0.47h-14.7c-0.38-0.99-0.57-1.94-0.57-2.87c0-0.61,0.16-1.05,0.49-1.33c0.33-0.28,0.82-0.42,1.47-0.42
		h1.82c1.6-4.34,4.01-11.38,7.23-21.13c3.23-9.75,5.37-15.67,6.42-17.77C164.27,280.01,166.28,278.96,169.25,278.96z M162.94,305.7
		h11.16c-3.44-11.33-5.37-17-5.78-17C167.9,288.7,166.11,294.37,162.94,305.7z"/>
	<path class="st0" d="M203.45,279.6h14.47c3.01,5.78,5.91,11.13,8.7,16.05c2.79,4.92,5.64,11.03,8.57,18.31v-15.55
		c0-6.59-0.07-11.32-0.2-14.2h-3.81c-0.38-0.99-0.57-1.93-0.57-2.83c0-0.63,0.17-1.08,0.51-1.37c0.34-0.28,0.83-0.42,1.48-0.42
		h15.18c0.38,0.83,0.57,1.66,0.57,2.5c0,0.81-0.15,1.37-0.44,1.67c-0.29,0.3-0.77,0.45-1.42,0.45h-2.93
		c-0.09,2.88-0.13,7.62-0.13,14.23v22.63c0,2.14-0.25,3.48-0.74,4.05c-0.5,0.56-1.8,0.84-3.91,0.84c-4.2,0-6.59-0.16-7.15-0.47
		c-0.56-0.31-2.81-3.72-6.75-10.22c-3.93-6.5-7.57-13.76-10.89-21.79c0,15.47,0.06,24.64,0.17,27.52h3.51
		c0.38,0.81,0.57,1.64,0.57,2.5c0,0.79-0.15,1.34-0.44,1.65c-0.29,0.32-0.75,0.47-1.38,0.47H201.4c-0.4-0.99-0.61-1.94-0.61-2.87
		c0-0.61,0.17-1.05,0.51-1.33c0.34-0.28,0.83-0.42,1.48-0.42h2.8c0.13-2.88,0.2-10.41,0.2-22.6c-0.02-6.59-0.1-11.32-0.24-14.2
		h-3.47c-0.4-0.99-0.61-1.93-0.61-2.83c0-0.63,0.17-1.08,0.51-1.37C202.31,279.74,202.8,279.6,203.45,279.6z"/>
	<path class="st0" d="M250.63,304.76c0-8.77,2.04-15.27,6.12-19.49c4.08-4.23,9.65-6.34,16.71-6.34c6.65,0,11.71,1.55,15.16,4.64
		s5.18,8.73,5.18,16.91c0,8.77-2.04,15.27-6.12,19.49c-4.08,4.23-9.75,6.34-17.01,6.34c-6.47,0-11.43-1.55-14.87-4.64
		S250.63,312.94,250.63,304.76z M262.26,301.49c0,7.22,0.91,12.08,2.73,14.59c1.82,2.51,4.35,3.76,7.61,3.76
		c3.41,0,5.86-1.22,7.34-3.66c1.48-2.44,2.22-6.58,2.22-12.43c0-7.42-0.9-12.33-2.71-14.74c-1.81-2.41-4.35-3.61-7.62-3.61
		c-3.41,0-5.86,1.22-7.34,3.66C263,291.5,262.26,295.64,262.26,301.49z"/>
	<path class="st0" d="M300.03,279.6h14.47c3.01,5.78,5.91,11.13,8.7,16.05c2.79,4.92,5.64,11.03,8.57,18.31v-15.55
		c0-6.59-0.07-11.32-0.2-14.2h-3.81c-0.38-0.99-0.57-1.93-0.57-2.83c0-0.63,0.17-1.08,0.51-1.37c0.34-0.28,0.83-0.42,1.48-0.42
		h15.18c0.38,0.83,0.57,1.66,0.57,2.5c0,0.81-0.15,1.37-0.44,1.67c-0.29,0.3-0.77,0.45-1.42,0.45h-2.93
		c-0.09,2.88-0.13,7.62-0.13,14.23v22.63c0,2.14-0.25,3.48-0.74,4.05c-0.5,0.56-1.8,0.84-3.91,0.84c-4.2,0-6.59-0.16-7.15-0.47
		c-0.56-0.31-2.81-3.72-6.75-10.22c-3.93-6.5-7.57-13.76-10.89-21.79c0,15.47,0.06,24.64,0.17,27.52h3.51
		c0.38,0.81,0.57,1.64,0.57,2.5c0,0.79-0.15,1.34-0.44,1.65c-0.29,0.32-0.75,0.47-1.38,0.47h-15.01c-0.4-0.99-0.61-1.94-0.61-2.87
		c0-0.61,0.17-1.05,0.51-1.33c0.34-0.28,0.83-0.42,1.48-0.42h2.8c0.13-2.88,0.2-10.41,0.2-22.6c-0.02-6.59-0.1-11.32-0.24-14.2
		h-3.47c-0.4-0.99-0.61-1.93-0.61-2.83c0-0.63,0.17-1.08,0.51-1.37C298.88,279.74,299.37,279.6,300.03,279.6z"/>
</g>
<g>
	<path class="st1" d="M150.06,34.09l-6.32-2.13c-3.82-1.28-6.82-4.18-8.25-7.95l-2.37-6.25c-0.19-0.49-0.66-0.8-1.2-0.81
		c-0.53,0.01-0.99,0.35-1.17,0.85l-2.17,6.38c-1.3,3.81-4.2,6.83-7.95,8.27l-6.24,2.4c-0.49,0.19-0.81,0.67-0.8,1.2
		c0.01,0.53,0.35,0.99,0.85,1.16l6.32,2.13c3.8,1.28,6.8,4.16,8.23,7.91l2.4,6.28c0.19,0.49,0.65,0.81,1.17,0.81
		c0.01,0,0.02,0,0.02,0c0.53-0.01,0.99-0.35,1.16-0.85l2.15-6.34c1.29-3.83,4.2-6.86,7.97-8.3l6.25-2.4c0.49-0.19,0.81-0.67,0.8-1.2
		C150.91,34.73,150.57,34.26,150.06,34.09z"/>
	<path class="st1" d="M110.91,68.44l-4.14-1.39c-2.37-0.8-4.24-2.6-5.13-4.94l-1.55-4.09c-0.19-0.49-0.65-0.82-1.2-0.81
		c-0.53,0.01-0.99,0.35-1.17,0.85l-1.42,4.17c-0.81,2.37-2.61,4.25-4.94,5.14l-4.08,1.57c-0.49,0.19-0.81,0.67-0.8,1.2
		c0.01,0.53,0.35,0.99,0.86,1.16l4.13,1.39c2.36,0.8,4.23,2.59,5.12,4.92l1.57,4.11c0.19,0.49,0.65,0.81,1.17,0.81
		c0.01,0,0.02,0,0.02,0c0.53-0.01,0.99-0.35,1.16-0.85l1.4-4.15c0.81-2.38,2.61-4.27,4.96-5.17l4.09-1.57
		c0.49-0.19,0.82-0.67,0.8-1.2C111.75,69.07,111.41,68.6,110.91,68.44z"/>
	<path class="st1" d="M274.28,68.44l-4.14-1.39c-2.37-0.8-4.24-2.6-5.13-4.94l-1.55-4.09c-0.19-0.49-0.7-0.82-1.2-0.81
		c-0.53,0.01-0.99,0.35-1.17,0.85l-1.42,4.17c-0.81,2.37-2.61,4.25-4.94,5.14l-4.08,1.57c-0.49,0.19-0.81,0.67-0.8,1.2
		c0.01,0.53,0.35,0.99,0.86,1.16l4.13,1.39c2.36,0.8,4.23,2.59,5.12,4.92l1.57,4.11c0.19,0.49,0.65,0.81,1.17,0.81
		c0.01,0,0.02,0,0.02,0c0.53-0.01,0.99-0.35,1.16-0.85l1.4-4.15c0.81-2.38,2.61-4.27,4.96-5.17l4.08-1.57
		c0.49-0.19,0.82-0.67,0.8-1.2C275.12,69.07,274.78,68.6,274.28,68.44z"/>
	<path class="st1" d="M241.51,34.09l-6.32-2.13c-3.82-1.28-6.82-4.18-8.25-7.95l-2.37-6.25c-0.19-0.49-0.61-0.8-1.2-0.81
		c-0.53,0.01-0.99,0.35-1.17,0.85l-2.17,6.38c-1.3,3.81-4.2,6.83-7.95,8.27l-6.24,2.4c-0.49,0.19-0.81,0.67-0.8,1.2
		c0.01,0.53,0.35,0.99,0.85,1.16l6.32,2.13c3.8,1.28,6.8,4.16,8.23,7.91l2.4,6.28c0.19,0.49,0.65,0.81,1.17,0.81
		c0.01,0,0.02,0,0.02,0c0.53-0.01,0.99-0.35,1.16-0.85l2.14-6.34c1.3-3.83,4.2-6.86,7.97-8.3l6.25-2.4c0.49-0.19,0.81-0.67,0.8-1.2
		C242.35,34.73,242.01,34.26,241.51,34.09z"/>
</g>
<path class="st0" d="M318.25,158h-7.59v-3.68c0-1.39-1.12-2.51-2.51-2.51h-54.6v-8.13c0-1.02-0.62-1.94-1.56-2.32l-24.09-9.79
	v-15.68l6.02-5.45c0.63-0.57,0.93-1.43,0.79-2.27c-0.14-0.84-0.7-1.56-1.48-1.89l-9.18-3.94c-6.98-18.67-18.97-28.56-26.33-33.13
	l0-7.5l4.41-3.94c0.61-0.55,0.92-1.37,0.82-2.19c-0.1-0.82-0.6-1.54-1.34-1.92l-5.68-2.94c-2.31-2.46-8.72-8.61-16.08-10.16V19.34
	c1.97-0.37,3.75,0.61,5.95,1.82c3.21,1.77,7.21,3.97,13.11,2.29c0.56-0.16,0.94-0.68,0.91-1.27c-0.1-2.07-0.17-3.9-0.24-5.73
	c-0.08-1.9-0.15-3.79-0.25-5.95c-0.02-0.41-0.24-0.79-0.59-1c-0.35-0.22-0.78-0.25-1.16-0.09c-2.09,0.89-3.93-0.08-7.03-1.87
	c-3.72-2.15-8.35-4.84-15.13-2.91c-0.21,0.06-0.39,0.18-0.53,0.33c-0.26,0.23-0.43,0.57-0.43,0.95V40.6
	c-7.18,1.59-13.58,7.63-15.89,10.03l-5.74,3.07c-0.72,0.39-1.21,1.1-1.31,1.92c-0.1,0.81,0.21,1.62,0.82,2.17l4.39,3.92l0.04,7.51
	c-6.46,4.07-19.45,14.27-26.56,33.71l-7.95,3.57c-0.77,0.35-1.32,1.06-1.45,1.9c-0.13,0.84,0.17,1.68,0.8,2.25l4.98,4.5v16.42
	l-23.92,9.79c-0.94,0.39-1.56,1.3-1.56,2.32v8.13H46.52c-1.39,0-2.51,1.12-2.51,2.51V158H38.4c-1.39,0-2.51,1.12-2.51,2.51v14.36
	c0,1.39,1.12,2.51,2.51,2.51h5.66c0.63,0,1.14,0.51,1.14,1.14v36.77c0,0.18-0.14,0.32-0.32,0.32c-1.39,0-2.51,1.12-2.51,2.51v39.02
	c0,1.39,1.12,2.51,2.51,2.51h56.24v6.61c0,1.39,1.12,2.51,2.51,2.51h147.43c1.39,0,2.51-1.12,2.51-2.51v-6.61h57.3
	c1.39,0,2.51-1.12,2.51-2.51v-39.02c0-1.39-1.12-2.51-2.51-2.51c-0.18,0-0.32-0.14-0.32-0.32v-36.77c0-0.63,0.51-1.14,1.14-1.14
	h6.58c1.39,0,2.51-1.12,2.51-2.51v-14.36C320.76,159.12,319.64,158,318.25,158z"/>
<g>
	<path class="st1" d="M98.43,175.76c-3.05,0-5.52,2.02-5.52,4.52v13.37h11.04v-13.37C103.95,177.78,101.48,175.76,98.43,175.76z"/>
	<rect x="92.91" y="199.3" class="st1" width="11.04" height="17.88"/>
	<path class="st1" d="M81.19,175.85c-3.05,0-5.52,2.02-5.52,4.52v13.37h11.04v-13.37C86.71,177.87,84.24,175.85,81.19,175.85z"/>
	<rect x="75.67" y="199.39" class="st1" width="11.04" height="17.88"/>
	<path class="st1" d="M63.94,175.85c-3.05,0-5.52,2.02-5.52,4.52v13.37h11.04v-13.37C69.46,177.87,66.99,175.85,63.94,175.85z"/>
	<rect x="58.42" y="199.3" class="st1" width="11.04" height="17.88"/>
	<rect x="161.75" y="222.42" class="st1" width="13.5" height="27"/>
	<rect x="161.75" y="190.54" class="st1" width="6.82" height="13.5"/>
	<rect x="179.07" y="222.42" class="st1" width="13.5" height="27"/>
	<rect x="185.75" y="190.54" class="st1" width="6.82" height="13.5"/>
	<rect x="173.83" y="190.54" class="st1" width="6.82" height="13.5"/>
	<path class="st1" d="M257.15,175.85c-3.05,0-5.52,2.02-5.52,4.52v13.37h11.04v-13.37C262.67,177.87,260.2,175.85,257.15,175.85z"/>
	<rect x="251.63" y="199.3" class="st1" width="11.04" height="17.88"/>
	<rect x="268.87" y="199.39" class="st1" width="11.04" height="17.88"/>
	<path class="st1" d="M274.39,175.85c-3.05,0-5.52,2.02-5.52,4.52v13.37h11.04v-13.37C279.91,177.87,277.44,175.85,274.39,175.85z"
		/>
	<rect x="286.12" y="199.3" class="st1" width="11.04" height="17.88"/>
	<path class="st1" d="M291.64,175.76c-3.05,0-5.52,2.02-5.52,4.52v13.37h11.04v-13.37C297.16,177.78,294.69,175.76,291.64,175.76z"
		/>
</g>
<path class="st1" d="M163.8,54.75c0,0,5.44-7.35,13.5-7.35c7.81,0,12.38,7.22,12.38,7.22l2.86,1.29l-31.49-0.06L163.8,54.75z"/>
<path class="st1" d="M137.77,107.77c0.16-1.19,0.86-5.15,3.34-10.33c1.13-2.42,2.48-4.67,3.95-6.75c0.25-0.36,0.52-0.73,0.79-1.09
	c0,0,0.01-0.01,0.01-0.01c3.38-4.57,8.14-9.43,14.87-13.87c2.6-1.75,4.33-2.65,4.33-2.65s-6.25,13.06-8.04,24.1
	c0,0-0.31,2.3-0.32,3.37l5.9-2.26c1.6-14.85,9.03-25.19,9.04-25.21l0,0h10.97c0.25,0.36,0.53,0.77,0.81,1.21
	c0.01,0.01,0.01,0.02,0.02,0.03c0.19,0.29,0.38,0.59,0.57,0.91c7.67,12.44,8.35,25.83,8.35,25.83l-29.26-0.62l-28.66,10.85
	l-1.89-1.51L137.77,107.77z"/>
<g>
	<polygon class="st2" points="218.68,123.81 197.57,112.47 197.57,122.06 218.68,130.51 	"/>
	<polygon class="st2" points="182.13,62.17 171.59,59.56 171.59,69.17 182.13,69.17 	"/>
	<rect x="165.37" y="59.49" class="st2" width="2.54" height="9.68"/>
	<polygon class="st2" points="192.58,120.55 192.58,111.58 162.44,107.45 162.44,120.55 177.51,114.68 	"/>
	<polygon class="st2" points="156.71,108.15 135,116.52 135,131.05 156.71,122.13 	"/>
	<rect x="55.11" y="158.48" class="st2" width="48.5" height="4.16"/>
	<polygon class="st2" points="100.71,165.43 44.06,165.48 44.06,167.51 100.71,167.51 	"/>
	<rect x="51.36" y="245.39" class="st2" width="52.84" height="3.67"/>
	<rect x="59.98" y="231.32" class="st2" width="5.95" height="9.71"/>
	<rect x="76.5" y="231.32" class="st2" width="5.74" height="9.71"/>
	<rect x="92.81" y="231.32" class="st2" width="5.95" height="9.71"/>
	<polygon class="st2" points="51.36,226.96 55.66,226.96 64.28,226.96 69.13,226.96 77.75,226.96 95.9,226.96 104.2,226.96 
		104.2,223.29 51.36,223.29 	"/>
	<rect x="113.18" y="254.83" class="st2" width="128.64" height="4.72"/>
	<polygon class="st2" points="118.12,175.76 118.12,249.42 130.06,249.42 130.06,176.8 	"/>
	<polygon class="st2" points="138.06,177.5 138.06,249.42 150.19,249.42 150.19,178.56 	"/>
	<polygon class="st2" points="205.35,183.38 205.35,249.42 217.3,249.42 217.3,184.43 	"/>
	<polygon class="st2" points="225.31,185.13 225.31,249.42 237.13,249.42 237.13,186.16 	"/>
	<rect x="109.33" y="154.49" class="st2" width="136.15" height="10.49"/>
	<polygon class="st2" points="118.07,152.21 177.02,128.21 177.21,125.67 118.25,149.74 	"/>
	<polygon class="st2" points="210.13,146.95 177.58,133.05 147,146.95 	"/>
	<polygon class="st2" points="109.71,146.09 109.71,150.07 177.51,122.56 245.48,150.5 245.48,146.51 177.51,118.52 	"/>
	<rect x="251.05" y="158.48" class="st2" width="48.37" height="4.16"/>
	<rect x="251.05" y="245.39" class="st2" width="52.84" height="3.67"/>
	<rect x="257.94" y="231.32" class="st2" width="5.95" height="9.71"/>
	<rect x="274.46" y="231.32" class="st2" width="5.74" height="9.71"/>
	<rect x="290.78" y="231.32" class="st2" width="5.95" height="9.71"/>
	<polygon class="st2" points="251.05,226.96 259.35,226.96 277.5,226.96 286.12,226.96 290.97,226.96 299.59,226.96 303.89,226.96 
		303.89,223.29 251.05,223.29 	"/>
	<rect x="255.46" y="165.43" class="st2" width="56.66" height="2.08"/>
</g>
</svg>
