<svg id="Layer_1" data-name="Layer 1" xmlns="http://www.w3.org/2000/svg" viewBox="0 0 454.6 243.07"><defs><style>.cls-1{fill:#13a0d2;}.cls-2{fill:#123d60;}</style></defs><g id="RGB"><polygon class="cls-1" points="136.58 0 106.4 0 30.18 0 0 0 0 76.23 30.18 76.23 30.18 151.39 106.4 151.39 106.4 76.23 136.58 76.23 136.58 0"/><circle class="cls-1" cx="223.77" cy="75.89" r="75.5"/><polygon class="cls-1" points="389.02 75.17 389.02 0 312.79 0 312.79 75.17 312.79 151.39 389.02 151.39 452.87 151.39 452.87 75.17 389.02 75.17"/><path class="cls-2" d="M135.38,461c-12.65,0-22.24-9.7-22.24-22.42s9.59-22.52,22.24-22.52a20.77,20.77,0,0,1,20.84,17.16h-9.34a11.84,11.84,0,0,0-11.5-8.26c-7.29,0-12.8,5.87-12.8,13.62s5.51,13.52,12.8,13.52A11.65,11.65,0,0,0,147,443.25h9.4c-2,10.65-10.31,17.77-21,17.77Z" transform="translate(-84.84 -229)"/><path class="cls-2" d="M162.52,426.87h9V460.1h-9Zm0-12.79h9v8.36h-9Z" transform="translate(-84.84 -229)"/><path class="cls-2" d="M199.75,452.1v8h-6.39c-7.31,0-11.8-4.5-11.8-11.87V434.09h-6v-1.94l13.13-13.95h1.71v8.67h9.17v7.22h-9v13c0,3.21,1.85,5.06,5.12,5.06Z" transform="translate(-84.84 -229)"/><path class="cls-2" d="M239,426.87l-14.48,32.78c-4,9-7.49,12.42-14.94,12.42h-3.71V464H209c4.33,0,5.46-1.16,7.5-6.18l.13-.27-14.08-30.68h9.78l8.86,20.44,8.28-20.44Z" transform="translate(-84.84 -229)"/><path class="cls-2" d="M256,443.48c0-10.08,7.67-17.55,18-17.55s18,7.48,18,17.55S284.25,461,274,461,256,453.5,256,443.48Zm26.82,0c0-5.38-3.67-9.11-8.85-9.11s-8.86,3.73-8.86,9.11,3.68,9.11,8.86,9.11S282.86,448.86,282.86,443.48Z" transform="translate(-84.84 -229)"/><path class="cls-2" d="M317.8,434.72h-8.36v25.37h-9V434.72H294.7v-7.41h5.81v-3c0-6.36,3.56-10.43,10.54-10.43h6.69v7.07h-4.89c-2.36,0-3.65,1.22-3.65,3.59v2.78h8.6Z" transform="translate(-84.84 -229)"/><path class="cls-2" d="M368,425.67H356V460.1h-9.33V425.67h-12V417H368Z" transform="translate(-84.84 -229)"/><path class="cls-2" d="M366.39,443.48c0-10.08,7.67-17.55,18-17.55s18,7.48,18,17.55S394.6,461,384.36,461,366.39,453.5,366.39,443.48Zm26.82,0c0-5.38-3.67-9.11-8.85-9.11s-8.86,3.73-8.86,9.11,3.68,9.11,8.86,9.11S393.21,448.86,393.21,443.48Z" transform="translate(-84.84 -229)"/><path class="cls-2" d="M408.46,414.89h9V460.1h-9Z" transform="translate(-84.84 -229)"/><path class="cls-2" d="M458,443.36a21.27,21.27,0,0,1-.17,2.64H432.63c.78,4.53,3.76,7,8.12,7a7.9,7.9,0,0,0,7.05-3.86h9.44A17,17,0,0,1,440.75,461c-9.81,0-17.23-7.6-17.23-17.56s7.37-17.55,17.23-17.55c10.2,0,17.2,7.86,17.2,17.43Zm-25.08-3.5H449c-1.27-4.06-4.19-6.26-8.22-6.26S433.91,435.93,432.87,439.86Z" transform="translate(-84.84 -229)"/><path class="cls-2" d="M497.41,414.89V460.1h-6.64l-1.06-2.77a15.9,15.9,0,0,1-10.41,3.76c-10.08,0-17.47-7.55-17.47-17.61s7.39-17.55,17.47-17.55a16,16,0,0,1,9.12,2.75V414.89Zm-8.32,28.59a9.05,9.05,0,1,0-9,9.11A8.84,8.84,0,0,0,489.09,443.48Z" transform="translate(-84.84 -229)"/><path class="cls-2" d="M503.52,443.48c0-10.08,7.67-17.55,18-17.55s18,7.48,18,17.55-7.72,17.56-18,17.56S503.52,453.5,503.52,443.48Zm26.82,0c0-5.38-3.68-9.11-8.86-9.11s-8.86,3.73-8.86,9.11,3.68,9.11,8.86,9.11S530.34,448.86,530.34,443.48Z" transform="translate(-84.84 -229)"/></g></svg>